<svg xmlns="http://www.w3.org/2000/svg" xmlns:xlink="http://www.w3.org/1999/xlink" width="500" zoomAndPan="magnify" viewBox="0 0 375 374.999991" height="500" preserveAspectRatio="xMidYMid meet" version="1.0"><defs><g/><clipPath id="213b6170c3"><path d="M 69.476562 13.820312 L 86.085938 13.820312 L 86.085938 30.660156 L 69.476562 30.660156 Z M 69.476562 13.820312 " clip-rule="nonzero"/></clipPath><clipPath id="bcd3e7c68a"><path d="M 87.507812 13.820312 L 104.117188 13.820312 L 104.117188 30.660156 L 87.507812 30.660156 Z M 87.507812 13.820312 " clip-rule="nonzero"/></clipPath><clipPath id="815f05a129"><path d="M 106.125 13.820312 L 122.734375 13.820312 L 122.734375 30.660156 L 106.125 30.660156 Z M 106.125 13.820312 " clip-rule="nonzero"/></clipPath><clipPath id="8069ab1014"><path d="M 124.042969 13.820312 L 140.652344 13.820312 L 140.652344 30.660156 L 124.042969 30.660156 Z M 124.042969 13.820312 " clip-rule="nonzero"/></clipPath><clipPath id="59a7326957"><path d="M 142.617188 13.820312 L 159.226562 13.820312 L 159.226562 30.660156 L 142.617188 30.660156 Z M 142.617188 13.820312 " clip-rule="nonzero"/></clipPath><clipPath id="cdd2828241"><path d="M 160.535156 13.820312 L 177.144531 13.820312 L 177.144531 30.660156 L 160.535156 30.660156 Z M 160.535156 13.820312 " clip-rule="nonzero"/></clipPath><clipPath id="6aad7dee87"><path d="M 160.535156 32.164062 L 177.144531 32.164062 L 177.144531 49 L 160.535156 49 Z M 160.535156 32.164062 " clip-rule="nonzero"/></clipPath><clipPath id="99c817b08f"><path d="M 178.78125 13.820312 L 195.390625 13.820312 L 195.390625 30.660156 L 178.78125 30.660156 Z M 178.78125 13.820312 " clip-rule="nonzero"/></clipPath><clipPath id="fd3316dff0"><path d="M 196.699219 13.820312 L 213.304688 13.820312 L 213.304688 30.660156 L 196.699219 30.660156 Z M 196.699219 13.820312 " clip-rule="nonzero"/></clipPath><clipPath id="12bdd5a332"><path d="M 215.269531 13.820312 L 231.878906 13.820312 L 231.878906 30.660156 L 215.269531 30.660156 Z M 215.269531 13.820312 " clip-rule="nonzero"/></clipPath><clipPath id="2cab5e558e"><path d="M 233.84375 13.820312 L 250.453125 13.820312 L 250.453125 30.660156 L 233.84375 30.660156 Z M 233.84375 13.820312 " clip-rule="nonzero"/></clipPath><clipPath id="ac010a4880"><path d="M 252.089844 13.820312 L 268.695312 13.820312 L 268.695312 30.660156 L 252.089844 30.660156 Z M 252.089844 13.820312 " clip-rule="nonzero"/></clipPath><clipPath id="89aef3f667"><path d="M 270.660156 13.820312 L 287.269531 13.820312 L 287.269531 30.660156 L 270.660156 30.660156 Z M 270.660156 13.820312 " clip-rule="nonzero"/></clipPath><clipPath id="e69a200780"><path d="M 288.90625 13.820312 L 305.515625 13.820312 L 305.515625 30.660156 L 288.90625 30.660156 Z M 288.90625 13.820312 " clip-rule="nonzero"/></clipPath><clipPath id="f4cb6c46cc"><path d="M 307.480469 13.820312 L 324.085938 13.820312 L 324.085938 30.660156 L 307.480469 30.660156 Z M 307.480469 13.820312 " clip-rule="nonzero"/></clipPath><clipPath id="c78f7c819f"><path d="M 326.050781 13.820312 L 342.660156 13.820312 L 342.660156 30.660156 L 326.050781 30.660156 Z M 326.050781 13.820312 " clip-rule="nonzero"/></clipPath><clipPath id="28e5f569a6"><path d="M 344.296875 13.820312 L 360.90625 13.820312 L 360.90625 30.660156 L 344.296875 30.660156 Z M 344.296875 13.820312 " clip-rule="nonzero"/></clipPath><clipPath id="bf14462ae3"><path d="M 124.042969 69 L 140.652344 69 L 140.652344 85.832031 L 124.042969 85.832031 Z M 124.042969 69 " clip-rule="nonzero"/></clipPath><clipPath id="24f152c843"><path d="M 142.074219 69 L 158.683594 69 L 158.683594 85.832031 L 142.074219 85.832031 Z M 142.074219 69 " clip-rule="nonzero"/></clipPath><clipPath id="eac4a0e997"><path d="M 160.691406 69 L 177.300781 69 L 177.300781 85.832031 L 160.691406 85.832031 Z M 160.691406 69 " clip-rule="nonzero"/></clipPath><clipPath id="accb6ac316"><path d="M 178.609375 69 L 195.21875 69 L 195.21875 85.832031 L 178.609375 85.832031 Z M 178.609375 69 " clip-rule="nonzero"/></clipPath><clipPath id="6abe682d00"><path d="M 197.183594 69 L 213.792969 69 L 213.792969 85.832031 L 197.183594 85.832031 Z M 197.183594 69 " clip-rule="nonzero"/></clipPath><clipPath id="f3577ff271"><path d="M 215.101562 69 L 231.710938 69 L 231.710938 85.832031 L 215.101562 85.832031 Z M 215.101562 69 " clip-rule="nonzero"/></clipPath><clipPath id="68f5cfb15b"><path d="M 233.347656 69 L 249.953125 69 L 249.953125 85.832031 L 233.347656 85.832031 Z M 233.347656 69 " clip-rule="nonzero"/></clipPath><clipPath id="94527bf8d7"><path d="M 252.089844 69 L 268.695312 69 L 268.695312 85.832031 L 252.089844 85.832031 Z M 252.089844 69 " clip-rule="nonzero"/></clipPath><clipPath id="bef8a688e4"><path d="M 270.660156 69 L 287.269531 69 L 287.269531 85.832031 L 270.660156 85.832031 Z M 270.660156 69 " clip-rule="nonzero"/></clipPath><clipPath id="d6004a3ff1"><path d="M 142.347656 50.519531 L 158.953125 50.519531 L 158.953125 67.359375 L 142.347656 67.359375 Z M 142.347656 50.519531 " clip-rule="nonzero"/></clipPath><clipPath id="5c5c1127c3"><path d="M 142.347656 105.527344 L 158.953125 105.527344 L 158.953125 122.367188 L 142.347656 122.367188 Z M 142.347656 105.527344 " clip-rule="nonzero"/></clipPath><clipPath id="301da54fff"><path d="M 142.347656 87.054688 L 158.953125 87.054688 L 158.953125 103.890625 L 142.347656 103.890625 Z M 142.347656 87.054688 " clip-rule="nonzero"/></clipPath><clipPath id="e9855b16ed"><path d="M 142.347656 142.0625 L 158.953125 142.0625 L 158.953125 158.898438 L 142.347656 158.898438 Z M 142.347656 142.0625 " clip-rule="nonzero"/></clipPath><clipPath id="5dc6f022ed"><path d="M 142.617188 123.585938 L 159.226562 123.585938 L 159.226562 140.425781 L 142.617188 140.425781 Z M 142.617188 123.585938 " clip-rule="nonzero"/></clipPath><clipPath id="aaee4aca98"><path d="M 142.617188 178.683594 L 159.226562 178.683594 L 159.226562 195.519531 L 142.617188 195.519531 Z M 142.617188 178.683594 " clip-rule="nonzero"/></clipPath><clipPath id="a7f43f5878"><path d="M 142.617188 160.535156 L 159.226562 160.535156 L 159.226562 177.375 L 142.617188 177.375 Z M 142.617188 160.535156 " clip-rule="nonzero"/></clipPath><clipPath id="a689aad608"><path d="M 142.074219 197.152344 L 158.683594 197.152344 L 158.683594 213.988281 L 142.074219 213.988281 Z M 142.074219 197.152344 " clip-rule="nonzero"/></clipPath><clipPath id="9134d1e98d"><path d="M 105.96875 234 L 122.578125 234 L 122.578125 250.796875 L 105.96875 250.796875 Z M 105.96875 234 " clip-rule="nonzero"/></clipPath><clipPath id="d9c941430c"><path d="M 124 234 L 140.609375 234 L 140.609375 250.796875 L 124 250.796875 Z M 124 234 " clip-rule="nonzero"/></clipPath><clipPath id="3f7dc2b162"><path d="M 142.617188 234 L 159.226562 234 L 159.226562 250.796875 L 142.617188 250.796875 Z M 142.617188 234 " clip-rule="nonzero"/></clipPath><clipPath id="357aea75fb"><path d="M 160.535156 234 L 177.144531 234 L 177.144531 250.796875 L 160.535156 250.796875 Z M 160.535156 234 " clip-rule="nonzero"/></clipPath><clipPath id="513277cc13"><path d="M 179.109375 234 L 195.714844 234 L 195.714844 250.796875 L 179.109375 250.796875 Z M 179.109375 234 " clip-rule="nonzero"/></clipPath><clipPath id="6f12476381"><path d="M 197.027344 234 L 213.632812 234 L 213.632812 250.796875 L 197.027344 250.796875 Z M 197.027344 234 " clip-rule="nonzero"/></clipPath><clipPath id="3952c8eef0"><path d="M 215.269531 233.773438 L 231.878906 233.773438 L 231.878906 250.613281 L 215.269531 250.613281 Z M 215.269531 233.773438 " clip-rule="nonzero"/></clipPath><clipPath id="61abd368cb"><path d="M 105.800781 252.433594 L 122.40625 252.433594 L 122.40625 269.269531 L 105.800781 269.269531 Z M 105.800781 252.433594 " clip-rule="nonzero"/></clipPath><clipPath id="558c8ff4a6"><path d="M 123.828125 252.433594 L 140.4375 252.433594 L 140.4375 269.269531 L 123.828125 269.269531 Z M 123.828125 252.433594 " clip-rule="nonzero"/></clipPath><clipPath id="62b0565352"><path d="M 142.449219 252.433594 L 159.054688 252.433594 L 159.054688 269.269531 L 142.449219 269.269531 Z M 142.449219 252.433594 " clip-rule="nonzero"/></clipPath><clipPath id="e24a03e30e"><path d="M 160.367188 252.433594 L 176.972656 252.433594 L 176.972656 269.269531 L 160.367188 269.269531 Z M 160.367188 252.433594 " clip-rule="nonzero"/></clipPath><clipPath id="cb0cbb2db9"><path d="M 178.9375 252.433594 L 195.546875 252.433594 L 195.546875 269.269531 L 178.9375 269.269531 Z M 178.9375 252.433594 " clip-rule="nonzero"/></clipPath><clipPath id="b87c89b466"><path d="M 196.855469 252.433594 L 213.464844 252.433594 L 213.464844 269.269531 L 196.855469 269.269531 Z M 196.855469 252.433594 " clip-rule="nonzero"/></clipPath><clipPath id="aee1206f3e"><path d="M 215.101562 252.25 L 231.710938 252.25 L 231.710938 269.085938 L 215.101562 269.085938 Z M 215.101562 252.25 " clip-rule="nonzero"/></clipPath><clipPath id="94389755ae"><path d="M 124 290.117188 L 140.609375 290.117188 L 140.609375 306.957031 L 124 306.957031 Z M 124 290.117188 " clip-rule="nonzero"/></clipPath><clipPath id="ba1fb9c55f"><path d="M 142.03125 290.117188 L 158.636719 290.117188 L 158.636719 306.957031 L 142.03125 306.957031 Z M 142.03125 290.117188 " clip-rule="nonzero"/></clipPath><clipPath id="f459036114"><path d="M 160.648438 290.117188 L 177.253906 290.117188 L 177.253906 306.957031 L 160.648438 306.957031 Z M 160.648438 290.117188 " clip-rule="nonzero"/></clipPath><clipPath id="4ce8c95ca5"><path d="M 178.566406 290.117188 L 195.171875 290.117188 L 195.171875 306.957031 L 178.566406 306.957031 Z M 178.566406 290.117188 " clip-rule="nonzero"/></clipPath><clipPath id="e04a182c92"><path d="M 197.136719 290.117188 L 213.746094 290.117188 L 213.746094 306.957031 L 197.136719 306.957031 Z M 197.136719 290.117188 " clip-rule="nonzero"/></clipPath><clipPath id="967eed2fd3"><path d="M 178.894531 271.277344 L 195.5 271.277344 L 195.5 288.113281 L 178.894531 288.113281 Z M 178.894531 271.277344 " clip-rule="nonzero"/></clipPath><clipPath id="3c579d8846"><path d="M 196.8125 271.277344 L 213.417969 271.277344 L 213.417969 288.113281 L 196.8125 288.113281 Z M 196.8125 271.277344 " clip-rule="nonzero"/></clipPath><clipPath id="bd3ac82c14"><path d="M 215.269531 271.277344 L 231.878906 271.277344 L 231.878906 288.113281 L 215.269531 288.113281 Z M 215.269531 271.277344 " clip-rule="nonzero"/></clipPath><clipPath id="e457dd846a"><path d="M 179.59375 215.484375 L 196.199219 215.484375 L 196.199219 232.320312 L 179.59375 232.320312 Z M 179.59375 215.484375 " clip-rule="nonzero"/></clipPath><clipPath id="e7e1e0e52d"><path d="M 197.511719 215.484375 L 214.117188 215.484375 L 214.117188 232.320312 L 197.511719 232.320312 Z M 197.511719 215.484375 " clip-rule="nonzero"/></clipPath><clipPath id="6a5ea21604"><path d="M 14.820312 123.585938 L 31.429688 123.585938 L 31.429688 140.425781 L 14.820312 140.425781 Z M 14.820312 123.585938 " clip-rule="nonzero"/></clipPath><clipPath id="7baf0714b3"><path d="M 32.851562 123.585938 L 49.460938 123.585938 L 49.460938 140.425781 L 32.851562 140.425781 Z M 32.851562 123.585938 " clip-rule="nonzero"/></clipPath><clipPath id="555ba5e3a9"><path d="M 51.46875 123.585938 L 68.078125 123.585938 L 68.078125 140.425781 L 51.46875 140.425781 Z M 51.46875 123.585938 " clip-rule="nonzero"/></clipPath><clipPath id="e4dd7d09c2"><path d="M 69.386719 123.585938 L 85.996094 123.585938 L 85.996094 140.425781 L 69.386719 140.425781 Z M 69.386719 123.585938 " clip-rule="nonzero"/></clipPath><clipPath id="ab9946b953"><path d="M 87.960938 123.585938 L 104.570312 123.585938 L 104.570312 140.425781 L 87.960938 140.425781 Z M 87.960938 123.585938 " clip-rule="nonzero"/></clipPath><clipPath id="b490dcfc17"><path d="M 105.878906 123.585938 L 122.488281 123.585938 L 122.488281 140.425781 L 105.878906 140.425781 Z M 105.878906 123.585938 " clip-rule="nonzero"/></clipPath><clipPath id="f7849a9e35"><path d="M 124.125 123.585938 L 140.730469 123.585938 L 140.730469 140.425781 L 124.125 140.425781 Z M 124.125 123.585938 " clip-rule="nonzero"/></clipPath><clipPath id="504bbb940b"><path d="M 160.613281 123.585938 L 177.222656 123.585938 L 177.222656 140.425781 L 160.613281 140.425781 Z M 160.613281 123.585938 " clip-rule="nonzero"/></clipPath><clipPath id="9e6c939451"><path d="M 179.1875 123.585938 L 195.792969 123.585938 L 195.792969 140.425781 L 179.1875 140.425781 Z M 179.1875 123.585938 " clip-rule="nonzero"/></clipPath><clipPath id="2557f44932"><path d="M 197.433594 123.585938 L 214.039062 123.585938 L 214.039062 140.425781 L 197.433594 140.425781 Z M 197.433594 123.585938 " clip-rule="nonzero"/></clipPath><clipPath id="13b63d50ac"><path d="M 14.089844 252.433594 L 30.695312 252.433594 L 30.695312 269.269531 L 14.089844 269.269531 Z M 14.089844 252.433594 " clip-rule="nonzero"/></clipPath><clipPath id="812d8c15e3"><path d="M 32.117188 252.433594 L 48.726562 252.433594 L 48.726562 269.269531 L 32.117188 269.269531 Z M 32.117188 252.433594 " clip-rule="nonzero"/></clipPath><clipPath id="4029cec3bb"><path d="M 50.734375 252.433594 L 67.34375 252.433594 L 67.34375 269.269531 L 50.734375 269.269531 Z M 50.734375 252.433594 " clip-rule="nonzero"/></clipPath><clipPath id="760455af03"><path d="M 68.652344 252.433594 L 85.261719 252.433594 L 85.261719 269.269531 L 68.652344 269.269531 Z M 68.652344 252.433594 " clip-rule="nonzero"/></clipPath><clipPath id="be130e7f6d"><path d="M 87.226562 252.433594 L 103.835938 252.433594 L 103.835938 269.269531 L 87.226562 269.269531 Z M 87.226562 252.433594 " clip-rule="nonzero"/></clipPath><clipPath id="120a0d8dfc"><path d="M 69.230469 160.535156 L 85.839844 160.535156 L 85.839844 177.375 L 69.230469 177.375 Z M 69.230469 160.535156 " clip-rule="nonzero"/></clipPath><clipPath id="ffbbb4d5ad"><path d="M 69.058594 179.011719 L 85.667969 179.011719 L 85.667969 195.847656 L 69.058594 195.847656 Z M 69.058594 179.011719 " clip-rule="nonzero"/></clipPath><clipPath id="dd19e2f883"><path d="M 69.230469 215.488281 L 85.839844 215.488281 L 85.839844 232.328125 L 69.230469 232.328125 Z M 69.230469 215.488281 " clip-rule="nonzero"/></clipPath><clipPath id="d0008848a7"><path d="M 69.558594 197.25 L 86.164062 197.25 L 86.164062 214.085938 L 69.558594 214.085938 Z M 69.558594 197.25 " clip-rule="nonzero"/></clipPath><clipPath id="b23a884fa6"><path d="M 69.714844 142.0625 L 86.324219 142.0625 L 86.324219 158.898438 L 69.714844 158.898438 Z M 69.714844 142.0625 " clip-rule="nonzero"/></clipPath><clipPath id="ea9b95eba8"><path d="M 179.671875 196.839844 L 196.28125 196.839844 L 196.28125 213.675781 L 179.671875 213.675781 Z M 179.671875 196.839844 " clip-rule="nonzero"/></clipPath><clipPath id="47471cdd04"><path d="M 179.59375 178 L 196.199219 178 L 196.199219 194.832031 L 179.59375 194.832031 Z M 179.59375 178 " clip-rule="nonzero"/></clipPath><clipPath id="d6c6ede958"><path d="M 68.652344 234 L 85.261719 234 L 85.261719 250.800781 L 68.652344 250.800781 Z M 68.652344 234 " clip-rule="nonzero"/></clipPath><clipPath id="8a19d7dd26"><path d="M 69.230469 344.328125 L 85.839844 344.328125 L 85.839844 361.167969 L 69.230469 361.167969 Z M 69.230469 344.328125 " clip-rule="nonzero"/></clipPath><clipPath id="afbbe047cf"><path d="M 69.636719 271 L 86.246094 271 L 86.246094 287.746094 L 69.636719 287.746094 Z M 69.636719 271 " clip-rule="nonzero"/></clipPath><clipPath id="d0273c0b02"><path d="M 69.804688 307.386719 L 86.414062 307.386719 L 86.414062 324.222656 L 69.804688 324.222656 Z M 69.804688 307.386719 " clip-rule="nonzero"/></clipPath><clipPath id="4e3af50a77"><path d="M 70.132812 289.148438 L 86.742188 289.148438 L 86.742188 305.984375 L 70.132812 305.984375 Z M 70.132812 289.148438 " clip-rule="nonzero"/></clipPath><clipPath id="1bde4a8e1b"><path d="M 69.230469 325.859375 L 85.839844 325.859375 L 85.839844 342.699219 L 69.230469 342.699219 Z M 69.230469 325.859375 " clip-rule="nonzero"/></clipPath><clipPath id="9a316fca02"><path d="M 233.84375 50.519531 L 250.453125 50.519531 L 250.453125 67.359375 L 233.84375 67.359375 Z M 233.84375 50.519531 " clip-rule="nonzero"/></clipPath><clipPath id="195b647d42"><path d="M 234.113281 32.046875 L 250.722656 32.046875 L 250.722656 48.882812 L 234.113281 48.882812 Z M 234.113281 32.046875 " clip-rule="nonzero"/></clipPath><clipPath id="dce16de145"><path d="M 233.84375 87.054688 L 250.453125 87.054688 L 250.453125 103.890625 L 233.84375 103.890625 Z M 233.84375 87.054688 " clip-rule="nonzero"/></clipPath><clipPath id="aa5d129f31"><path d="M 178.9375 87.054688 L 195.546875 87.054688 L 195.546875 103.890625 L 178.9375 103.890625 Z M 178.9375 87.054688 " clip-rule="nonzero"/></clipPath><clipPath id="fa45888107"><path d="M 178.9375 105.527344 L 195.546875 105.527344 L 195.546875 122.367188 L 178.9375 122.367188 Z M 178.9375 105.527344 " clip-rule="nonzero"/></clipPath><clipPath id="31282a5b37"><path d="M 87.226562 178.683594 L 103.835938 178.683594 L 103.835938 195.519531 L 87.226562 195.519531 Z M 87.226562 178.683594 " clip-rule="nonzero"/></clipPath></defs><g clip-path="url(#213b6170c3)"><path fill="#ffffff" d="M 69.476562 30.660156 L 69.476562 13.941406 L 86.195312 13.941406 L 86.195312 30.660156 Z M 69.476562 30.660156 " fill-opacity="1" fill-rule="nonzero"/></g><g clip-path="url(#bcd3e7c68a)"><path fill="#ffffff" d="M 87.507812 30.660156 L 87.507812 13.941406 L 104.222656 13.941406 L 104.222656 30.660156 Z M 87.507812 30.660156 " fill-opacity="1" fill-rule="nonzero"/></g><g clip-path="url(#815f05a129)"><path fill="#ffffff" d="M 106.125 30.660156 L 106.125 13.941406 L 122.84375 13.941406 L 122.84375 30.660156 Z M 106.125 30.660156 " fill-opacity="1" fill-rule="nonzero"/></g><g clip-path="url(#8069ab1014)"><path fill="#ffffff" d="M 124.042969 30.660156 L 124.042969 13.941406 L 140.761719 13.941406 L 140.761719 30.660156 Z M 124.042969 30.660156 " fill-opacity="1" fill-rule="nonzero"/></g><g clip-path="url(#59a7326957)"><path fill="#ffffff" d="M 142.617188 30.660156 L 142.617188 13.941406 L 159.332031 13.941406 L 159.332031 30.660156 Z M 142.617188 30.660156 " fill-opacity="1" fill-rule="nonzero"/></g><g clip-path="url(#cdd2828241)"><path fill="#ffffff" d="M 160.535156 30.660156 L 160.535156 13.941406 L 177.25 13.941406 L 177.25 30.660156 Z M 160.535156 30.660156 " fill-opacity="1" fill-rule="nonzero"/></g><g clip-path="url(#6aad7dee87)"><path fill="#ffffff" d="M 160.535156 49 L 160.535156 32.285156 L 177.25 32.285156 L 177.25 49 Z M 160.535156 49 " fill-opacity="1" fill-rule="nonzero"/></g><g clip-path="url(#99c817b08f)"><path fill="#ffffff" d="M 178.78125 30.660156 L 178.78125 13.941406 L 195.496094 13.941406 L 195.496094 30.660156 Z M 178.78125 30.660156 " fill-opacity="1" fill-rule="nonzero"/></g><g clip-path="url(#fd3316dff0)"><path fill="#ffffff" d="M 196.699219 30.660156 L 196.699219 13.941406 L 213.414062 13.941406 L 213.414062 30.660156 Z M 196.699219 30.660156 " fill-opacity="1" fill-rule="nonzero"/></g><g clip-path="url(#12bdd5a332)"><path fill="#ffffff" d="M 215.269531 30.660156 L 215.269531 13.941406 L 231.988281 13.941406 L 231.988281 30.660156 Z M 215.269531 30.660156 " fill-opacity="1" fill-rule="nonzero"/></g><g clip-path="url(#2cab5e558e)"><path fill="#ffffff" d="M 233.84375 30.660156 L 233.84375 13.941406 L 250.558594 13.941406 L 250.558594 30.660156 Z M 233.84375 30.660156 " fill-opacity="1" fill-rule="nonzero"/></g><g clip-path="url(#ac010a4880)"><path fill="#ffffff" d="M 252.089844 30.660156 L 252.089844 13.941406 L 268.804688 13.941406 L 268.804688 30.660156 Z M 252.089844 30.660156 " fill-opacity="1" fill-rule="nonzero"/></g><g clip-path="url(#89aef3f667)"><path fill="#ffffff" d="M 270.660156 30.660156 L 270.660156 13.941406 L 287.378906 13.941406 L 287.378906 30.660156 Z M 270.660156 30.660156 " fill-opacity="1" fill-rule="nonzero"/></g><g clip-path="url(#e69a200780)"><path fill="#ffffff" d="M 288.90625 30.660156 L 288.90625 13.941406 L 305.621094 13.941406 L 305.621094 30.660156 Z M 288.90625 30.660156 " fill-opacity="1" fill-rule="nonzero"/></g><g clip-path="url(#f4cb6c46cc)"><path fill="#ffffff" d="M 307.480469 30.660156 L 307.480469 13.941406 L 324.195312 13.941406 L 324.195312 30.660156 Z M 307.480469 30.660156 " fill-opacity="1" fill-rule="nonzero"/></g><g clip-path="url(#c78f7c819f)"><path fill="#ffffff" d="M 326.050781 30.660156 L 326.050781 13.941406 L 342.765625 13.941406 L 342.765625 30.660156 Z M 326.050781 30.660156 " fill-opacity="1" fill-rule="nonzero"/></g><g clip-path="url(#28e5f569a6)"><path fill="#ffffff" d="M 344.296875 30.660156 L 344.296875 13.941406 L 361.011719 13.941406 L 361.011719 30.660156 Z M 344.296875 30.660156 " fill-opacity="1" fill-rule="nonzero"/></g><g clip-path="url(#bf14462ae3)"><path fill="#ffffff" d="M 124.042969 85.832031 L 124.042969 69.117188 L 140.761719 69.117188 L 140.761719 85.832031 Z M 124.042969 85.832031 " fill-opacity="1" fill-rule="nonzero"/></g><g clip-path="url(#24f152c843)"><path fill="#ffffff" d="M 142.074219 85.832031 L 142.074219 69.117188 L 158.789062 69.117188 L 158.789062 85.832031 Z M 142.074219 85.832031 " fill-opacity="1" fill-rule="nonzero"/></g><g clip-path="url(#eac4a0e997)"><path fill="#ffffff" d="M 160.691406 85.832031 L 160.691406 69.117188 L 177.40625 69.117188 L 177.40625 85.832031 Z M 160.691406 85.832031 " fill-opacity="1" fill-rule="nonzero"/></g><g clip-path="url(#accb6ac316)"><path fill="#ffffff" d="M 178.609375 85.832031 L 178.609375 69.117188 L 195.324219 69.117188 L 195.324219 85.832031 Z M 178.609375 85.832031 " fill-opacity="1" fill-rule="nonzero"/></g><g clip-path="url(#6abe682d00)"><path fill="#ffffff" d="M 197.183594 85.832031 L 197.183594 69.117188 L 213.898438 69.117188 L 213.898438 85.832031 Z M 197.183594 85.832031 " fill-opacity="1" fill-rule="nonzero"/></g><g clip-path="url(#f3577ff271)"><path fill="#ffffff" d="M 215.101562 85.832031 L 215.101562 69.117188 L 231.816406 69.117188 L 231.816406 85.832031 Z M 215.101562 85.832031 " fill-opacity="1" fill-rule="nonzero"/></g><g clip-path="url(#68f5cfb15b)"><path fill="#ffffff" d="M 233.347656 85.832031 L 233.347656 69.117188 L 250.0625 69.117188 L 250.0625 85.832031 Z M 233.347656 85.832031 " fill-opacity="1" fill-rule="nonzero"/></g><g clip-path="url(#94527bf8d7)"><path fill="#ffffff" d="M 252.089844 85.832031 L 252.089844 69.117188 L 268.804688 69.117188 L 268.804688 85.832031 Z M 252.089844 85.832031 " fill-opacity="1" fill-rule="nonzero"/></g><g clip-path="url(#bef8a688e4)"><path fill="#ffffff" d="M 270.660156 85.832031 L 270.660156 69.117188 L 287.378906 69.117188 L 287.378906 85.832031 Z M 270.660156 85.832031 " fill-opacity="1" fill-rule="nonzero"/></g><g clip-path="url(#d6004a3ff1)"><path fill="#ffffff" d="M 142.347656 67.359375 L 142.347656 50.644531 L 159.0625 50.644531 L 159.0625 67.359375 Z M 142.347656 67.359375 " fill-opacity="1" fill-rule="nonzero"/></g><g clip-path="url(#5c5c1127c3)"><path fill="#ffffff" d="M 142.347656 122.367188 L 142.347656 105.652344 L 159.0625 105.652344 L 159.0625 122.367188 Z M 142.347656 122.367188 " fill-opacity="1" fill-rule="nonzero"/></g><g clip-path="url(#301da54fff)"><path fill="#ffffff" d="M 142.347656 103.890625 L 142.347656 87.175781 L 159.0625 87.175781 L 159.0625 103.890625 Z M 142.347656 103.890625 " fill-opacity="1" fill-rule="nonzero"/></g><g clip-path="url(#e9855b16ed)"><path fill="#ffffff" d="M 142.347656 158.898438 L 142.347656 142.183594 L 159.0625 142.183594 L 159.0625 158.898438 Z M 142.347656 158.898438 " fill-opacity="1" fill-rule="nonzero"/></g><g clip-path="url(#5dc6f022ed)"><path fill="#ffffff" d="M 142.617188 140.425781 L 142.617188 123.710938 L 159.332031 123.710938 L 159.332031 140.425781 Z M 142.617188 140.425781 " fill-opacity="1" fill-rule="nonzero"/></g><g clip-path="url(#aaee4aca98)"><path fill="#ffffff" d="M 142.617188 195.519531 L 142.617188 178.804688 L 159.332031 178.804688 L 159.332031 195.519531 Z M 142.617188 195.519531 " fill-opacity="1" fill-rule="nonzero"/></g><g clip-path="url(#a7f43f5878)"><path fill="#ffffff" d="M 142.617188 177.375 L 142.617188 160.65625 L 159.332031 160.65625 L 159.332031 177.375 Z M 142.617188 177.375 " fill-opacity="1" fill-rule="nonzero"/></g><g clip-path="url(#a689aad608)"><path fill="#ffffff" d="M 142.074219 213.988281 L 142.074219 197.273438 L 158.789062 197.273438 L 158.789062 213.988281 Z M 142.074219 213.988281 " fill-opacity="1" fill-rule="nonzero"/></g><g clip-path="url(#9134d1e98d)"><path fill="#ffffff" d="M 105.96875 250.796875 L 105.96875 234.082031 L 122.683594 234.082031 L 122.683594 250.796875 Z M 105.96875 250.796875 " fill-opacity="1" fill-rule="nonzero"/></g><g clip-path="url(#d9c941430c)"><path fill="#ffffff" d="M 124 250.796875 L 124 234.082031 L 140.714844 234.082031 L 140.714844 250.796875 Z M 124 250.796875 " fill-opacity="1" fill-rule="nonzero"/></g><g clip-path="url(#3f7dc2b162)"><path fill="#ffffff" d="M 142.617188 250.796875 L 142.617188 234.082031 L 159.332031 234.082031 L 159.332031 250.796875 Z M 142.617188 250.796875 " fill-opacity="1" fill-rule="nonzero"/></g><g clip-path="url(#357aea75fb)"><path fill="#ffffff" d="M 160.535156 250.796875 L 160.535156 234.082031 L 177.25 234.082031 L 177.25 250.796875 Z M 160.535156 250.796875 " fill-opacity="1" fill-rule="nonzero"/></g><g clip-path="url(#513277cc13)"><path fill="#ffffff" d="M 179.109375 250.796875 L 179.109375 234.082031 L 195.824219 234.082031 L 195.824219 250.796875 Z M 179.109375 250.796875 " fill-opacity="1" fill-rule="nonzero"/></g><g clip-path="url(#6f12476381)"><path fill="#ffffff" d="M 197.027344 250.796875 L 197.027344 234.082031 L 213.742188 234.082031 L 213.742188 250.796875 Z M 197.027344 250.796875 " fill-opacity="1" fill-rule="nonzero"/></g><g clip-path="url(#3952c8eef0)"><path fill="#ffffff" d="M 215.269531 250.613281 L 215.269531 233.894531 L 231.988281 233.894531 L 231.988281 250.613281 Z M 215.269531 250.613281 " fill-opacity="1" fill-rule="nonzero"/></g><g clip-path="url(#61abd368cb)"><path fill="#ffffff" d="M 105.800781 269.269531 L 105.800781 252.554688 L 122.515625 252.554688 L 122.515625 269.269531 Z M 105.800781 269.269531 " fill-opacity="1" fill-rule="nonzero"/></g><g clip-path="url(#558c8ff4a6)"><path fill="#ffffff" d="M 123.828125 269.269531 L 123.828125 252.554688 L 140.546875 252.554688 L 140.546875 269.269531 Z M 123.828125 269.269531 " fill-opacity="1" fill-rule="nonzero"/></g><g clip-path="url(#62b0565352)"><path fill="#ffffff" d="M 142.449219 269.269531 L 142.449219 252.554688 L 159.164062 252.554688 L 159.164062 269.269531 Z M 142.449219 269.269531 " fill-opacity="1" fill-rule="nonzero"/></g><g clip-path="url(#e24a03e30e)"><path fill="#ffffff" d="M 160.367188 269.269531 L 160.367188 252.554688 L 177.082031 252.554688 L 177.082031 269.269531 Z M 160.367188 269.269531 " fill-opacity="1" fill-rule="nonzero"/></g><g clip-path="url(#cb0cbb2db9)"><path fill="#ffffff" d="M 178.9375 269.269531 L 178.9375 252.554688 L 195.652344 252.554688 L 195.652344 269.269531 Z M 178.9375 269.269531 " fill-opacity="1" fill-rule="nonzero"/></g><g clip-path="url(#b87c89b466)"><path fill="#ffffff" d="M 196.855469 269.269531 L 196.855469 252.554688 L 213.570312 252.554688 L 213.570312 269.269531 Z M 196.855469 269.269531 " fill-opacity="1" fill-rule="nonzero"/></g><g clip-path="url(#aee1206f3e)"><path fill="#ffffff" d="M 215.101562 269.085938 L 215.101562 252.371094 L 231.816406 252.371094 L 231.816406 269.085938 Z M 215.101562 269.085938 " fill-opacity="1" fill-rule="nonzero"/></g><g clip-path="url(#94389755ae)"><path fill="#ffffff" d="M 124 306.957031 L 124 290.242188 L 140.714844 290.242188 L 140.714844 306.957031 Z M 124 306.957031 " fill-opacity="1" fill-rule="nonzero"/></g><g clip-path="url(#ba1fb9c55f)"><path fill="#ffffff" d="M 142.03125 306.957031 L 142.03125 290.242188 L 158.746094 290.242188 L 158.746094 306.957031 Z M 142.03125 306.957031 " fill-opacity="1" fill-rule="nonzero"/></g><g clip-path="url(#f459036114)"><path fill="#ffffff" d="M 160.648438 306.957031 L 160.648438 290.242188 L 177.363281 290.242188 L 177.363281 306.957031 Z M 160.648438 306.957031 " fill-opacity="1" fill-rule="nonzero"/></g><g clip-path="url(#4ce8c95ca5)"><path fill="#ffffff" d="M 178.566406 306.957031 L 178.566406 290.242188 L 195.28125 290.242188 L 195.28125 306.957031 Z M 178.566406 306.957031 " fill-opacity="1" fill-rule="nonzero"/></g><g clip-path="url(#e04a182c92)"><path fill="#ffffff" d="M 197.136719 306.957031 L 197.136719 290.242188 L 213.855469 290.242188 L 213.855469 306.957031 Z M 197.136719 306.957031 " fill-opacity="1" fill-rule="nonzero"/></g><g clip-path="url(#967eed2fd3)"><path fill="#ffffff" d="M 178.894531 288.113281 L 178.894531 271.398438 L 195.609375 271.398438 L 195.609375 288.113281 Z M 178.894531 288.113281 " fill-opacity="1" fill-rule="nonzero"/></g><g clip-path="url(#3c579d8846)"><path fill="#ffffff" d="M 196.8125 288.113281 L 196.8125 271.398438 L 213.527344 271.398438 L 213.527344 288.113281 Z M 196.8125 288.113281 " fill-opacity="1" fill-rule="nonzero"/></g><g clip-path="url(#bd3ac82c14)"><path fill="#ffffff" d="M 215.269531 288.113281 L 215.269531 271.398438 L 231.988281 271.398438 L 231.988281 288.113281 Z M 215.269531 288.113281 " fill-opacity="1" fill-rule="nonzero"/></g><g clip-path="url(#e457dd846a)"><path fill="#ffffff" d="M 179.59375 232.320312 L 179.59375 215.605469 L 196.308594 215.605469 L 196.308594 232.320312 Z M 179.59375 232.320312 " fill-opacity="1" fill-rule="nonzero"/></g><g clip-path="url(#e7e1e0e52d)"><path fill="#ffffff" d="M 197.511719 232.320312 L 197.511719 215.605469 L 214.226562 215.605469 L 214.226562 232.320312 Z M 197.511719 232.320312 " fill-opacity="1" fill-rule="nonzero"/></g><g clip-path="url(#6a5ea21604)"><path fill="#ffffff" d="M 14.820312 140.425781 L 14.820312 123.710938 L 31.535156 123.710938 L 31.535156 140.425781 Z M 14.820312 140.425781 " fill-opacity="1" fill-rule="nonzero"/></g><g clip-path="url(#7baf0714b3)"><path fill="#ffffff" d="M 32.851562 140.425781 L 32.851562 123.710938 L 49.566406 123.710938 L 49.566406 140.425781 Z M 32.851562 140.425781 " fill-opacity="1" fill-rule="nonzero"/></g><g clip-path="url(#555ba5e3a9)"><path fill="#ffffff" d="M 51.46875 140.425781 L 51.46875 123.710938 L 68.183594 123.710938 L 68.183594 140.425781 Z M 51.46875 140.425781 " fill-opacity="1" fill-rule="nonzero"/></g><g clip-path="url(#e4dd7d09c2)"><path fill="#ffffff" d="M 69.386719 140.425781 L 69.386719 123.710938 L 86.101562 123.710938 L 86.101562 140.425781 Z M 69.386719 140.425781 " fill-opacity="1" fill-rule="nonzero"/></g><g clip-path="url(#ab9946b953)"><path fill="#ffffff" d="M 87.960938 140.425781 L 87.960938 123.710938 L 104.675781 123.710938 L 104.675781 140.425781 Z M 87.960938 140.425781 " fill-opacity="1" fill-rule="nonzero"/></g><g clip-path="url(#b490dcfc17)"><path fill="#ffffff" d="M 105.878906 140.425781 L 105.878906 123.710938 L 122.59375 123.710938 L 122.59375 140.425781 Z M 105.878906 140.425781 " fill-opacity="1" fill-rule="nonzero"/></g><g clip-path="url(#f7849a9e35)"><path fill="#ffffff" d="M 124.125 140.425781 L 124.125 123.710938 L 140.839844 123.710938 L 140.839844 140.425781 Z M 124.125 140.425781 " fill-opacity="1" fill-rule="nonzero"/></g><g clip-path="url(#504bbb940b)"><path fill="#ffffff" d="M 160.613281 140.425781 L 160.613281 123.710938 L 177.328125 123.710938 L 177.328125 140.425781 Z M 160.613281 140.425781 " fill-opacity="1" fill-rule="nonzero"/></g><g clip-path="url(#9e6c939451)"><path fill="#ffffff" d="M 179.1875 140.425781 L 179.1875 123.710938 L 195.902344 123.710938 L 195.902344 140.425781 Z M 179.1875 140.425781 " fill-opacity="1" fill-rule="nonzero"/></g><g clip-path="url(#2557f44932)"><path fill="#ffffff" d="M 197.433594 140.425781 L 197.433594 123.710938 L 214.148438 123.710938 L 214.148438 140.425781 Z M 197.433594 140.425781 " fill-opacity="1" fill-rule="nonzero"/></g><g clip-path="url(#13b63d50ac)"><path fill="#ffffff" d="M 14.089844 269.269531 L 14.089844 252.554688 L 30.804688 252.554688 L 30.804688 269.269531 Z M 14.089844 269.269531 " fill-opacity="1" fill-rule="nonzero"/></g><g clip-path="url(#812d8c15e3)"><path fill="#ffffff" d="M 32.117188 269.269531 L 32.117188 252.554688 L 48.832031 252.554688 L 48.832031 269.269531 Z M 32.117188 269.269531 " fill-opacity="1" fill-rule="nonzero"/></g><g clip-path="url(#4029cec3bb)"><path fill="#ffffff" d="M 50.734375 269.269531 L 50.734375 252.554688 L 67.453125 252.554688 L 67.453125 269.269531 Z M 50.734375 269.269531 " fill-opacity="1" fill-rule="nonzero"/></g><g clip-path="url(#760455af03)"><path fill="#ffffff" d="M 68.652344 269.269531 L 68.652344 252.554688 L 85.371094 252.554688 L 85.371094 269.269531 Z M 68.652344 269.269531 " fill-opacity="1" fill-rule="nonzero"/></g><g clip-path="url(#be130e7f6d)"><path fill="#ffffff" d="M 87.226562 269.269531 L 87.226562 252.554688 L 103.941406 252.554688 L 103.941406 269.269531 Z M 87.226562 269.269531 " fill-opacity="1" fill-rule="nonzero"/></g><g clip-path="url(#120a0d8dfc)"><path fill="#ffffff" d="M 69.230469 177.375 L 69.230469 160.65625 L 85.945312 160.65625 L 85.945312 177.375 Z M 69.230469 177.375 " fill-opacity="1" fill-rule="nonzero"/></g><g clip-path="url(#ffbbb4d5ad)"><path fill="#ffffff" d="M 69.058594 195.847656 L 69.058594 179.132812 L 85.777344 179.132812 L 85.777344 195.847656 Z M 69.058594 195.847656 " fill-opacity="1" fill-rule="nonzero"/></g><g clip-path="url(#dd19e2f883)"><path fill="#ffffff" d="M 69.230469 232.328125 L 69.230469 215.613281 L 85.945312 215.613281 L 85.945312 232.328125 Z M 69.230469 232.328125 " fill-opacity="1" fill-rule="nonzero"/></g><g clip-path="url(#d0008848a7)"><path fill="#ffffff" d="M 69.558594 214.085938 L 69.558594 197.371094 L 86.273438 197.371094 L 86.273438 214.085938 Z M 69.558594 214.085938 " fill-opacity="1" fill-rule="nonzero"/></g><g clip-path="url(#b23a884fa6)"><path fill="#ffffff" d="M 69.714844 158.898438 L 69.714844 142.183594 L 86.429688 142.183594 L 86.429688 158.898438 Z M 69.714844 158.898438 " fill-opacity="1" fill-rule="nonzero"/></g><g clip-path="url(#ea9b95eba8)"><path fill="#ffffff" d="M 179.671875 213.675781 L 179.671875 196.960938 L 196.386719 196.960938 L 196.386719 213.675781 Z M 179.671875 213.675781 " fill-opacity="1" fill-rule="nonzero"/></g><g clip-path="url(#47471cdd04)"><path fill="#ffffff" d="M 179.59375 194.832031 L 179.59375 178.117188 L 196.308594 178.117188 L 196.308594 194.832031 Z M 179.59375 194.832031 " fill-opacity="1" fill-rule="nonzero"/></g><g clip-path="url(#d6c6ede958)"><path fill="#ffffff" d="M 68.652344 250.800781 L 68.652344 234.085938 L 85.371094 234.085938 L 85.371094 250.800781 Z M 68.652344 250.800781 " fill-opacity="1" fill-rule="nonzero"/></g><g clip-path="url(#8a19d7dd26)"><path fill="#ffffff" d="M 69.230469 361.167969 L 69.230469 344.453125 L 85.945312 344.453125 L 85.945312 361.167969 Z M 69.230469 361.167969 " fill-opacity="1" fill-rule="nonzero"/></g><g clip-path="url(#afbbe047cf)"><path fill="#ffffff" d="M 69.636719 287.746094 L 69.636719 271.027344 L 86.351562 271.027344 L 86.351562 287.746094 Z M 69.636719 287.746094 " fill-opacity="1" fill-rule="nonzero"/></g><g clip-path="url(#d0273c0b02)"><path fill="#ffffff" d="M 69.804688 324.222656 L 69.804688 307.507812 L 86.519531 307.507812 L 86.519531 324.222656 Z M 69.804688 324.222656 " fill-opacity="1" fill-rule="nonzero"/></g><g clip-path="url(#4e3af50a77)"><path fill="#ffffff" d="M 70.132812 305.984375 L 70.132812 289.269531 L 86.847656 289.269531 L 86.847656 305.984375 Z M 70.132812 305.984375 " fill-opacity="1" fill-rule="nonzero"/></g><g clip-path="url(#1bde4a8e1b)"><path fill="#ffffff" d="M 69.230469 342.699219 L 69.230469 325.984375 L 85.945312 325.984375 L 85.945312 342.699219 Z M 69.230469 342.699219 " fill-opacity="1" fill-rule="nonzero"/></g><g clip-path="url(#9a316fca02)"><path fill="#ffffff" d="M 233.84375 67.359375 L 233.84375 50.644531 L 250.558594 50.644531 L 250.558594 67.359375 Z M 233.84375 67.359375 " fill-opacity="1" fill-rule="nonzero"/></g><g clip-path="url(#195b647d42)"><path fill="#ffffff" d="M 234.113281 48.882812 L 234.113281 32.167969 L 250.832031 32.167969 L 250.832031 48.882812 Z M 234.113281 48.882812 " fill-opacity="1" fill-rule="nonzero"/></g><g clip-path="url(#dce16de145)"><path fill="#ffffff" d="M 233.84375 103.890625 L 233.84375 87.175781 L 250.558594 87.175781 L 250.558594 103.890625 Z M 233.84375 103.890625 " fill-opacity="1" fill-rule="nonzero"/></g><g clip-path="url(#aa5d129f31)"><path fill="#ffffff" d="M 178.9375 103.890625 L 178.9375 87.175781 L 195.652344 87.175781 L 195.652344 103.890625 Z M 178.9375 103.890625 " fill-opacity="1" fill-rule="nonzero"/></g><g clip-path="url(#fa45888107)"><path fill="#ffffff" d="M 178.9375 122.367188 L 178.9375 105.652344 L 195.652344 105.652344 L 195.652344 122.367188 Z M 178.9375 122.367188 " fill-opacity="1" fill-rule="nonzero"/></g><g clip-path="url(#31282a5b37)"><path fill="#ffffff" d="M 87.226562 195.519531 L 87.226562 178.804688 L 103.941406 178.804688 L 103.941406 195.519531 Z M 87.226562 195.519531 " fill-opacity="1" fill-rule="nonzero"/></g><g fill="#ffffff" fill-opacity="1"><g transform="translate(59.777, 25.676675)"><g><path d="M 2.5625 -6.65625 C 2.9375 -6.65625 3.269531 -6.578125 3.5625 -6.421875 C 3.851562 -6.265625 4.078125 -6.054688 4.234375 -5.796875 C 4.398438 -5.535156 4.484375 -5.242188 4.484375 -4.921875 C 4.484375 -4.273438 4.15625 -3.832031 3.5 -3.59375 C 3.9375 -3.445312 4.253906 -3.222656 4.453125 -2.921875 C 4.648438 -2.628906 4.75 -2.296875 4.75 -1.921875 C 4.75 -1.535156 4.65625 -1.1875 4.46875 -0.875 C 4.289062 -0.570312 4.035156 -0.332031 3.703125 -0.15625 C 3.367188 0.0195312 2.992188 0.109375 2.578125 0.109375 C 2.148438 0.109375 1.769531 0.0195312 1.4375 -0.15625 C 1.101562 -0.332031 0.84375 -0.570312 0.65625 -0.875 C 0.476562 -1.1875 0.390625 -1.535156 0.390625 -1.921875 C 0.390625 -2.359375 0.5 -2.71875 0.71875 -3 C 0.9375 -3.289062 1.242188 -3.488281 1.640625 -3.59375 C 0.984375 -3.832031 0.65625 -4.28125 0.65625 -4.9375 C 0.65625 -5.257812 0.734375 -5.550781 0.890625 -5.8125 C 1.054688 -6.070312 1.28125 -6.273438 1.5625 -6.421875 C 1.851562 -6.578125 2.1875 -6.65625 2.5625 -6.65625 Z M 1.484375 -4.96875 C 1.484375 -4.65625 1.582031 -4.398438 1.78125 -4.203125 C 1.988281 -4.003906 2.253906 -3.90625 2.578125 -3.90625 C 2.878906 -3.90625 3.128906 -4.003906 3.328125 -4.203125 C 3.535156 -4.398438 3.640625 -4.644531 3.640625 -4.9375 C 3.640625 -5.226562 3.535156 -5.472656 3.328125 -5.671875 C 3.128906 -5.878906 2.867188 -5.984375 2.546875 -5.984375 C 2.347656 -5.984375 2.164062 -5.9375 2 -5.84375 C 1.84375 -5.75 1.71875 -5.617188 1.625 -5.453125 C 1.53125 -5.296875 1.484375 -5.132812 1.484375 -4.96875 Z M 1.21875 -1.90625 C 1.21875 -1.519531 1.347656 -1.195312 1.609375 -0.9375 C 1.867188 -0.6875 2.207031 -0.5625 2.625 -0.5625 C 2.851562 -0.5625 3.066406 -0.613281 3.265625 -0.71875 C 3.472656 -0.832031 3.632812 -0.988281 3.75 -1.1875 C 3.863281 -1.394531 3.921875 -1.628906 3.921875 -1.890625 C 3.921875 -2.148438 3.859375 -2.378906 3.734375 -2.578125 C 3.617188 -2.785156 3.457031 -2.945312 3.25 -3.0625 C 3.039062 -3.175781 2.8125 -3.234375 2.5625 -3.234375 C 2.300781 -3.234375 2.066406 -3.171875 1.859375 -3.046875 C 1.648438 -2.929688 1.488281 -2.769531 1.375 -2.5625 C 1.269531 -2.351562 1.21875 -2.132812 1.21875 -1.90625 Z M 1.21875 -1.90625 "/></g></g></g><g fill="#ffffff" fill-opacity="1"><g transform="translate(64.917126, 25.676675)"><g><path d="M 1.75 0 L 0.828125 0 L 0.828125 -0.921875 L 1.75 -0.921875 Z M 1.75 0 "/></g></g></g><g fill="#ffffff" fill-opacity="1"><g transform="translate(161.668383, 10.590047)"><g><path d="M 2.9375 -6.65625 L 3.46875 -6.65625 L 3.46875 0 L 2.65625 0 L 2.65625 -5.1875 C 2.445312 -4.988281 2.191406 -4.796875 1.890625 -4.609375 C 1.585938 -4.429688 1.300781 -4.296875 1.03125 -4.203125 L 1.03125 -4.984375 C 1.457031 -5.191406 1.84375 -5.441406 2.1875 -5.734375 C 2.539062 -6.035156 2.789062 -6.34375 2.9375 -6.65625 Z M 2.9375 -6.65625 "/></g></g></g><g fill="#ffffff" fill-opacity="1"><g transform="translate(166.80851, 10.590047)"><g><path d="M 3.828125 -2.328125 L 4.71875 -2.328125 L 4.71875 -1.578125 L 3.828125 -1.578125 L 3.828125 0 L 3.015625 0 L 3.015625 -1.578125 L 0.140625 -1.578125 L 0.140625 -2.328125 L 3.15625 -6.625 L 3.828125 -6.625 Z M 0.9375 -2.328125 L 3.015625 -2.328125 L 3.015625 -5.3125 Z M 0.9375 -2.328125 "/></g></g></g><g fill="#ffffff" fill-opacity="1"><g transform="translate(171.948636, 10.590047)"><g><path d="M 1.75 0 L 0.828125 0 L 0.828125 -0.921875 L 1.75 -0.921875 Z M 1.75 0 "/></g></g></g><g fill="#ffffff" fill-opacity="1"><g transform="translate(237.767434, 10.590047)"><g><path d="M 2.75 -6.65625 C 3.269531 -6.65625 3.695312 -6.507812 4.03125 -6.21875 C 4.375 -5.9375 4.578125 -5.53125 4.640625 -5 L 3.84375 -4.9375 C 3.675781 -5.632812 3.300781 -5.984375 2.71875 -5.984375 C 2.257812 -5.984375 1.894531 -5.765625 1.625 -5.328125 C 1.351562 -4.898438 1.210938 -4.257812 1.203125 -3.40625 C 1.597656 -4 2.140625 -4.296875 2.828125 -4.296875 C 3.171875 -4.296875 3.488281 -4.203125 3.78125 -4.015625 C 4.082031 -3.835938 4.320312 -3.585938 4.5 -3.265625 C 4.675781 -2.941406 4.765625 -2.570312 4.765625 -2.15625 C 4.765625 -1.726562 4.675781 -1.34375 4.5 -1 C 4.320312 -0.65625 4.078125 -0.382812 3.765625 -0.1875 C 3.453125 0.0078125 3.097656 0.109375 2.703125 0.109375 C 2.003906 0.109375 1.441406 -0.148438 1.015625 -0.671875 C 0.785156 -0.921875 0.625 -1.242188 0.53125 -1.640625 C 0.4375 -2.035156 0.390625 -2.519531 0.390625 -3.09375 C 0.390625 -4.269531 0.59375 -5.15625 1 -5.75 C 1.40625 -6.351562 1.988281 -6.65625 2.75 -6.65625 Z M 1.328125 -2.140625 C 1.328125 -1.859375 1.382812 -1.59375 1.5 -1.34375 C 1.613281 -1.101562 1.773438 -0.910156 1.984375 -0.765625 C 2.191406 -0.628906 2.421875 -0.5625 2.671875 -0.5625 C 2.910156 -0.5625 3.125 -0.625 3.3125 -0.75 C 3.507812 -0.882812 3.660156 -1.070312 3.765625 -1.3125 C 3.878906 -1.550781 3.9375 -1.8125 3.9375 -2.09375 C 3.9375 -2.53125 3.816406 -2.890625 3.578125 -3.171875 C 3.335938 -3.453125 3.023438 -3.59375 2.640625 -3.59375 C 2.398438 -3.59375 2.175781 -3.53125 1.96875 -3.40625 C 1.769531 -3.28125 1.613281 -3.109375 1.5 -2.890625 C 1.382812 -2.671875 1.328125 -2.421875 1.328125 -2.140625 Z M 1.328125 -2.140625 "/></g></g></g><g fill="#ffffff" fill-opacity="1"><g transform="translate(242.907561, 10.590047)"><g><path d="M 1.75 0 L 0.828125 0 L 0.828125 -0.921875 L 1.75 -0.921875 Z M 1.75 0 "/></g></g></g><g fill="#ffffff" fill-opacity="1"><g transform="translate(143.920279, 45.790157)"><g><path d="M 2.9375 -6.65625 L 3.46875 -6.65625 L 3.46875 0 L 2.65625 0 L 2.65625 -5.1875 C 2.445312 -4.988281 2.191406 -4.796875 1.890625 -4.609375 C 1.585938 -4.429688 1.300781 -4.296875 1.03125 -4.203125 L 1.03125 -4.984375 C 1.457031 -5.191406 1.84375 -5.441406 2.1875 -5.734375 C 2.539062 -6.035156 2.789062 -6.34375 2.9375 -6.65625 Z M 2.9375 -6.65625 "/></g></g></g><g fill="#ffffff" fill-opacity="1"><g transform="translate(149.060405, 45.790157)"><g><path d="M 2.75 -6.65625 C 3.269531 -6.65625 3.695312 -6.507812 4.03125 -6.21875 C 4.375 -5.9375 4.578125 -5.53125 4.640625 -5 L 3.84375 -4.9375 C 3.675781 -5.632812 3.300781 -5.984375 2.71875 -5.984375 C 2.257812 -5.984375 1.894531 -5.765625 1.625 -5.328125 C 1.351562 -4.898438 1.210938 -4.257812 1.203125 -3.40625 C 1.597656 -4 2.140625 -4.296875 2.828125 -4.296875 C 3.171875 -4.296875 3.488281 -4.203125 3.78125 -4.015625 C 4.082031 -3.835938 4.320312 -3.585938 4.5 -3.265625 C 4.675781 -2.941406 4.765625 -2.570312 4.765625 -2.15625 C 4.765625 -1.726562 4.675781 -1.34375 4.5 -1 C 4.320312 -0.65625 4.078125 -0.382812 3.765625 -0.1875 C 3.453125 0.0078125 3.097656 0.109375 2.703125 0.109375 C 2.003906 0.109375 1.441406 -0.148438 1.015625 -0.671875 C 0.785156 -0.921875 0.625 -1.242188 0.53125 -1.640625 C 0.4375 -2.035156 0.390625 -2.519531 0.390625 -3.09375 C 0.390625 -4.269531 0.59375 -5.15625 1 -5.75 C 1.40625 -6.351562 1.988281 -6.65625 2.75 -6.65625 Z M 1.328125 -2.140625 C 1.328125 -1.859375 1.382812 -1.59375 1.5 -1.34375 C 1.613281 -1.101562 1.773438 -0.910156 1.984375 -0.765625 C 2.191406 -0.628906 2.421875 -0.5625 2.671875 -0.5625 C 2.910156 -0.5625 3.125 -0.625 3.3125 -0.75 C 3.507812 -0.882812 3.660156 -1.070312 3.765625 -1.3125 C 3.878906 -1.550781 3.9375 -1.8125 3.9375 -2.09375 C 3.9375 -2.53125 3.816406 -2.890625 3.578125 -3.171875 C 3.335938 -3.453125 3.023438 -3.59375 2.640625 -3.59375 C 2.398438 -3.59375 2.175781 -3.53125 1.96875 -3.40625 C 1.769531 -3.28125 1.613281 -3.109375 1.5 -2.890625 C 1.382812 -2.671875 1.328125 -2.421875 1.328125 -2.140625 Z M 1.328125 -2.140625 "/></g></g></g><g fill="#ffffff" fill-opacity="1"><g transform="translate(154.200531, 45.790157)"><g><path d="M 1.75 0 L 0.828125 0 L 0.828125 -0.921875 L 1.75 -0.921875 Z M 1.75 0 "/></g></g></g><g fill="#ffffff" fill-opacity="1"><g transform="translate(108.402295, 79.501125)"><g><path d="M 2.9375 -6.65625 L 3.46875 -6.65625 L 3.46875 0 L 2.65625 0 L 2.65625 -5.1875 C 2.445312 -4.988281 2.191406 -4.796875 1.890625 -4.609375 C 1.585938 -4.429688 1.300781 -4.296875 1.03125 -4.203125 L 1.03125 -4.984375 C 1.457031 -5.191406 1.84375 -5.441406 2.1875 -5.734375 C 2.539062 -6.035156 2.789062 -6.34375 2.9375 -6.65625 Z M 2.9375 -6.65625 "/></g></g></g><g fill="#ffffff" fill-opacity="1"><g transform="translate(113.542421, 79.501125)"><g><path d="M 4.46875 -5.75 L 1.828125 -5.75 L 1.46875 -3.984375 C 1.863281 -4.253906 2.28125 -4.390625 2.71875 -4.390625 C 3.09375 -4.390625 3.4375 -4.300781 3.75 -4.125 C 4.0625 -3.945312 4.3125 -3.691406 4.5 -3.359375 C 4.6875 -3.035156 4.78125 -2.664062 4.78125 -2.25 C 4.78125 -1.800781 4.679688 -1.398438 4.484375 -1.046875 C 4.296875 -0.691406 4.03125 -0.410156 3.6875 -0.203125 C 3.351562 0.00390625 2.972656 0.109375 2.546875 0.109375 C 1.941406 0.109375 1.441406 -0.0507812 1.046875 -0.375 C 0.660156 -0.707031 0.441406 -1.160156 0.390625 -1.734375 L 1.234375 -1.796875 C 1.296875 -1.390625 1.4375 -1.082031 1.65625 -0.875 C 1.882812 -0.664062 2.171875 -0.5625 2.515625 -0.5625 C 2.929688 -0.5625 3.265625 -0.710938 3.515625 -1.015625 C 3.773438 -1.316406 3.90625 -1.722656 3.90625 -2.234375 C 3.90625 -2.648438 3.773438 -2.992188 3.515625 -3.265625 C 3.253906 -3.546875 2.914062 -3.6875 2.5 -3.6875 C 2.175781 -3.6875 1.910156 -3.609375 1.703125 -3.453125 C 1.503906 -3.304688 1.367188 -3.164062 1.296875 -3.03125 L 0.53125 -3.140625 L 1.171875 -6.53125 L 4.46875 -6.53125 Z M 4.46875 -5.75 "/></g></g></g><g fill="#ffffff" fill-opacity="1"><g transform="translate(118.682547, 79.501125)"><g><path d="M 1.75 0 L 0.828125 0 L 0.828125 -0.921875 L 1.75 -0.921875 Z M 1.75 0 "/></g></g></g><g fill="#ffffff" fill-opacity="1"><g transform="translate(198.198975, 96.060046)"><g><path d="M 2.9375 -6.65625 L 3.46875 -6.65625 L 3.46875 0 L 2.65625 0 L 2.65625 -5.1875 C 2.445312 -4.988281 2.191406 -4.796875 1.890625 -4.609375 C 1.585938 -4.429688 1.300781 -4.296875 1.03125 -4.203125 L 1.03125 -4.984375 C 1.457031 -5.191406 1.84375 -5.441406 2.1875 -5.734375 C 2.539062 -6.035156 2.789062 -6.34375 2.9375 -6.65625 Z M 2.9375 -6.65625 "/></g></g></g><g fill="#ffffff" fill-opacity="1"><g transform="translate(203.339102, 96.060046)"><g><path d="M 1.75 0 L 0.828125 0 L 0.828125 -0.921875 L 1.75 -0.921875 Z M 1.75 0 "/></g></g></g><path stroke-linecap="butt" transform="matrix(-0.735842, 0.0032635, -0.00332626, -0.749993, 208.139712, 100.047013)" fill="none" stroke-linejoin="miter" d="M 0.00180731 0.500196 L 12.752943 0.498389 " stroke="#ffffff" stroke-width="1" stroke-opacity="1" stroke-miterlimit="4"/><path stroke-linecap="round" transform="matrix(-0.735842, 0.0032635, -0.00332626, -0.749993, 198.384541, 99.71527)" fill="none" stroke-linejoin="round" d="M -2.501813 -1.499916 L -0.501955 -0.00161553 L -2.499449 1.500124 " stroke="#ffffff" stroke-width="1" stroke-opacity="1" stroke-miterlimit="4"/><g fill="#ffffff" fill-opacity="1"><g transform="translate(0.816104, 134.093297)"><g><path d="M 2.9375 -6.65625 L 3.46875 -6.65625 L 3.46875 0 L 2.65625 0 L 2.65625 -5.1875 C 2.445312 -4.988281 2.191406 -4.796875 1.890625 -4.609375 C 1.585938 -4.429688 1.300781 -4.296875 1.03125 -4.203125 L 1.03125 -4.984375 C 1.457031 -5.191406 1.84375 -5.441406 2.1875 -5.734375 C 2.539062 -6.035156 2.789062 -6.34375 2.9375 -6.65625 Z M 2.9375 -6.65625 "/></g></g></g><g fill="#ffffff" fill-opacity="1"><g transform="translate(5.95623, 134.093297)"><g><path d="M 2.9375 -6.65625 L 3.46875 -6.65625 L 3.46875 0 L 2.65625 0 L 2.65625 -5.1875 C 2.445312 -4.988281 2.191406 -4.796875 1.890625 -4.609375 C 1.585938 -4.429688 1.300781 -4.296875 1.03125 -4.203125 L 1.03125 -4.984375 C 1.457031 -5.191406 1.84375 -5.441406 2.1875 -5.734375 C 2.539062 -6.035156 2.789062 -6.34375 2.9375 -6.65625 Z M 2.9375 -6.65625 "/></g></g></g><g fill="#ffffff" fill-opacity="1"><g transform="translate(11.096356, 134.093297)"><g><path d="M 1.75 0 L 0.828125 0 L 0.828125 -0.921875 L 1.75 -0.921875 Z M 1.75 0 "/></g></g></g><g fill="#ffffff" fill-opacity="1"><g transform="translate(73.503405, 119.135267)"><g><path d="M 2.484375 -6.65625 C 2.847656 -6.65625 3.175781 -6.578125 3.46875 -6.421875 C 3.757812 -6.265625 3.988281 -6.054688 4.15625 -5.796875 C 4.320312 -5.546875 4.40625 -5.269531 4.40625 -4.96875 C 4.40625 -4.332031 4.101562 -3.875 3.5 -3.59375 C 3.90625 -3.5 4.210938 -3.304688 4.421875 -3.015625 C 4.640625 -2.722656 4.75 -2.394531 4.75 -2.03125 C 4.75 -1.59375 4.644531 -1.210938 4.4375 -0.890625 C 4.226562 -0.566406 3.957031 -0.316406 3.625 -0.140625 C 3.289062 0.0234375 2.941406 0.109375 2.578125 0.109375 C 1.960938 0.109375 1.457031 -0.0546875 1.0625 -0.390625 C 0.675781 -0.734375 0.457031 -1.1875 0.40625 -1.75 L 1.21875 -1.859375 C 1.300781 -1.429688 1.453125 -1.109375 1.671875 -0.890625 C 1.890625 -0.671875 2.171875 -0.5625 2.515625 -0.5625 C 2.765625 -0.5625 2.992188 -0.617188 3.203125 -0.734375 C 3.410156 -0.859375 3.570312 -1.03125 3.6875 -1.25 C 3.8125 -1.46875 3.875 -1.722656 3.875 -2.015625 C 3.875 -2.210938 3.820312 -2.40625 3.71875 -2.59375 C 3.625 -2.78125 3.476562 -2.929688 3.28125 -3.046875 C 3.082031 -3.160156 2.851562 -3.21875 2.59375 -3.21875 C 2.476562 -3.21875 2.382812 -3.210938 2.3125 -3.203125 C 2.238281 -3.191406 2.140625 -3.171875 2.015625 -3.140625 L 2.09375 -3.84375 L 2.25 -3.84375 C 2.613281 -3.84375 2.925781 -3.941406 3.1875 -4.140625 C 3.445312 -4.335938 3.578125 -4.613281 3.578125 -4.96875 C 3.578125 -5.257812 3.472656 -5.5 3.265625 -5.6875 C 3.054688 -5.882812 2.800781 -5.984375 2.5 -5.984375 C 2.164062 -5.984375 1.894531 -5.878906 1.6875 -5.671875 C 1.488281 -5.460938 1.359375 -5.171875 1.296875 -4.796875 L 0.484375 -4.9375 C 0.585938 -5.476562 0.8125 -5.898438 1.15625 -6.203125 C 1.507812 -6.503906 1.953125 -6.65625 2.484375 -6.65625 Z M 2.484375 -6.65625 "/></g></g></g><g fill="#ffffff" fill-opacity="1"><g transform="translate(78.643531, 119.135267)"><g><path d="M 1.75 0 L 0.828125 0 L 0.828125 -0.921875 L 1.75 -0.921875 Z M 1.75 0 "/></g></g></g><g fill="#ffffff" fill-opacity="1"><g transform="translate(54.072649, 189.580888)"><g><path d="M 2.9375 -6.65625 L 3.46875 -6.65625 L 3.46875 0 L 2.65625 0 L 2.65625 -5.1875 C 2.445312 -4.988281 2.191406 -4.796875 1.890625 -4.609375 C 1.585938 -4.429688 1.300781 -4.296875 1.03125 -4.203125 L 1.03125 -4.984375 C 1.457031 -5.191406 1.84375 -5.441406 2.1875 -5.734375 C 2.539062 -6.035156 2.789062 -6.34375 2.9375 -6.65625 Z M 2.9375 -6.65625 "/></g></g></g><g fill="#ffffff" fill-opacity="1"><g transform="translate(59.212775, 189.580888)"><g><path d="M 2.484375 -6.65625 C 2.847656 -6.65625 3.175781 -6.578125 3.46875 -6.421875 C 3.757812 -6.265625 3.988281 -6.054688 4.15625 -5.796875 C 4.320312 -5.546875 4.40625 -5.269531 4.40625 -4.96875 C 4.40625 -4.332031 4.101562 -3.875 3.5 -3.59375 C 3.90625 -3.5 4.210938 -3.304688 4.421875 -3.015625 C 4.640625 -2.722656 4.75 -2.394531 4.75 -2.03125 C 4.75 -1.59375 4.644531 -1.210938 4.4375 -0.890625 C 4.226562 -0.566406 3.957031 -0.316406 3.625 -0.140625 C 3.289062 0.0234375 2.941406 0.109375 2.578125 0.109375 C 1.960938 0.109375 1.457031 -0.0546875 1.0625 -0.390625 C 0.675781 -0.734375 0.457031 -1.1875 0.40625 -1.75 L 1.21875 -1.859375 C 1.300781 -1.429688 1.453125 -1.109375 1.671875 -0.890625 C 1.890625 -0.671875 2.171875 -0.5625 2.515625 -0.5625 C 2.765625 -0.5625 2.992188 -0.617188 3.203125 -0.734375 C 3.410156 -0.859375 3.570312 -1.03125 3.6875 -1.25 C 3.8125 -1.46875 3.875 -1.722656 3.875 -2.015625 C 3.875 -2.210938 3.820312 -2.40625 3.71875 -2.59375 C 3.625 -2.78125 3.476562 -2.929688 3.28125 -3.046875 C 3.082031 -3.160156 2.851562 -3.21875 2.59375 -3.21875 C 2.476562 -3.21875 2.382812 -3.210938 2.3125 -3.203125 C 2.238281 -3.191406 2.140625 -3.171875 2.015625 -3.140625 L 2.09375 -3.84375 L 2.25 -3.84375 C 2.613281 -3.84375 2.925781 -3.941406 3.1875 -4.140625 C 3.445312 -4.335938 3.578125 -4.613281 3.578125 -4.96875 C 3.578125 -5.257812 3.472656 -5.5 3.265625 -5.6875 C 3.054688 -5.882812 2.800781 -5.984375 2.5 -5.984375 C 2.164062 -5.984375 1.894531 -5.878906 1.6875 -5.671875 C 1.488281 -5.460938 1.359375 -5.171875 1.296875 -4.796875 L 0.484375 -4.9375 C 0.585938 -5.476562 0.8125 -5.898438 1.15625 -6.203125 C 1.507812 -6.503906 1.953125 -6.65625 2.484375 -6.65625 Z M 2.484375 -6.65625 "/></g></g></g><g fill="#ffffff" fill-opacity="1"><g transform="translate(64.352901, 189.580888)"><g><path d="M 1.75 0 L 0.828125 0 L 0.828125 -0.921875 L 1.75 -0.921875 Z M 1.75 0 "/></g></g></g><g fill="#ffffff" fill-opacity="1"><g transform="translate(0.0825802, 262.938558)"><g><path d="M 2.9375 -6.65625 L 3.46875 -6.65625 L 3.46875 0 L 2.65625 0 L 2.65625 -5.1875 C 2.445312 -4.988281 2.191406 -4.796875 1.890625 -4.609375 C 1.585938 -4.429688 1.300781 -4.296875 1.03125 -4.203125 L 1.03125 -4.984375 C 1.457031 -5.191406 1.84375 -5.441406 2.1875 -5.734375 C 2.539062 -6.035156 2.789062 -6.34375 2.9375 -6.65625 Z M 2.9375 -6.65625 "/></g></g></g><g fill="#ffffff" fill-opacity="1"><g transform="translate(5.222706, 262.938558)"><g><path d="M 2.5625 -6.65625 C 2.976562 -6.65625 3.34375 -6.570312 3.65625 -6.40625 C 3.96875 -6.25 4.207031 -6.03125 4.375 -5.75 C 4.539062 -5.476562 4.625 -5.175781 4.625 -4.84375 C 4.625 -4.488281 4.535156 -4.15625 4.359375 -3.84375 C 4.179688 -3.53125 3.96875 -3.25 3.71875 -3 C 3.46875 -2.75 3.144531 -2.457031 2.75 -2.125 C 2.351562 -1.800781 2.054688 -1.546875 1.859375 -1.359375 C 1.660156 -1.171875 1.503906 -0.976562 1.390625 -0.78125 L 4.640625 -0.78125 L 4.640625 0 L 0.265625 0 C 0.265625 -0.375 0.398438 -0.753906 0.671875 -1.140625 C 0.953125 -1.535156 1.328125 -1.929688 1.796875 -2.328125 C 2.273438 -2.722656 2.648438 -3.046875 2.921875 -3.296875 C 3.191406 -3.554688 3.40625 -3.8125 3.5625 -4.0625 C 3.71875 -4.3125 3.796875 -4.566406 3.796875 -4.828125 C 3.796875 -5.160156 3.675781 -5.4375 3.4375 -5.65625 C 3.207031 -5.875 2.910156 -5.984375 2.546875 -5.984375 C 2.179688 -5.984375 1.875 -5.867188 1.625 -5.640625 C 1.382812 -5.421875 1.257812 -5.085938 1.25 -4.640625 L 0.421875 -4.734375 C 0.472656 -5.359375 0.6875 -5.832031 1.0625 -6.15625 C 1.4375 -6.488281 1.9375 -6.65625 2.5625 -6.65625 Z M 2.5625 -6.65625 "/></g></g></g><g fill="#ffffff" fill-opacity="1"><g transform="translate(10.362832, 262.938558)"><g><path d="M 1.75 0 L 0.828125 0 L 0.828125 -0.921875 L 1.75 -0.921875 Z M 1.75 0 "/></g></g></g><g fill="#ffffff" fill-opacity="1"><g transform="translate(90.111831, 243.89395)"><g><path d="M 2.9375 -6.65625 L 3.46875 -6.65625 L 3.46875 0 L 2.65625 0 L 2.65625 -5.1875 C 2.445312 -4.988281 2.191406 -4.796875 1.890625 -4.609375 C 1.585938 -4.429688 1.300781 -4.296875 1.03125 -4.203125 L 1.03125 -4.984375 C 1.457031 -5.191406 1.84375 -5.441406 2.1875 -5.734375 C 2.539062 -6.035156 2.789062 -6.34375 2.9375 -6.65625 Z M 2.9375 -6.65625 "/></g></g></g><g fill="#ffffff" fill-opacity="1"><g transform="translate(95.251957, 243.89395)"><g><path d="M 2.5625 -6.65625 C 2.9375 -6.65625 3.269531 -6.578125 3.5625 -6.421875 C 3.851562 -6.265625 4.078125 -6.054688 4.234375 -5.796875 C 4.398438 -5.535156 4.484375 -5.242188 4.484375 -4.921875 C 4.484375 -4.273438 4.15625 -3.832031 3.5 -3.59375 C 3.9375 -3.445312 4.253906 -3.222656 4.453125 -2.921875 C 4.648438 -2.628906 4.75 -2.296875 4.75 -1.921875 C 4.75 -1.535156 4.65625 -1.1875 4.46875 -0.875 C 4.289062 -0.570312 4.035156 -0.332031 3.703125 -0.15625 C 3.367188 0.0195312 2.992188 0.109375 2.578125 0.109375 C 2.148438 0.109375 1.769531 0.0195312 1.4375 -0.15625 C 1.101562 -0.332031 0.84375 -0.570312 0.65625 -0.875 C 0.476562 -1.1875 0.390625 -1.535156 0.390625 -1.921875 C 0.390625 -2.359375 0.5 -2.71875 0.71875 -3 C 0.9375 -3.289062 1.242188 -3.488281 1.640625 -3.59375 C 0.984375 -3.832031 0.65625 -4.28125 0.65625 -4.9375 C 0.65625 -5.257812 0.734375 -5.550781 0.890625 -5.8125 C 1.054688 -6.070312 1.28125 -6.273438 1.5625 -6.421875 C 1.851562 -6.578125 2.1875 -6.65625 2.5625 -6.65625 Z M 1.484375 -4.96875 C 1.484375 -4.65625 1.582031 -4.398438 1.78125 -4.203125 C 1.988281 -4.003906 2.253906 -3.90625 2.578125 -3.90625 C 2.878906 -3.90625 3.128906 -4.003906 3.328125 -4.203125 C 3.535156 -4.398438 3.640625 -4.644531 3.640625 -4.9375 C 3.640625 -5.226562 3.535156 -5.472656 3.328125 -5.671875 C 3.128906 -5.878906 2.867188 -5.984375 2.546875 -5.984375 C 2.347656 -5.984375 2.164062 -5.9375 2 -5.84375 C 1.84375 -5.75 1.71875 -5.617188 1.625 -5.453125 C 1.53125 -5.296875 1.484375 -5.132812 1.484375 -4.96875 Z M 1.21875 -1.90625 C 1.21875 -1.519531 1.347656 -1.195312 1.609375 -0.9375 C 1.867188 -0.6875 2.207031 -0.5625 2.625 -0.5625 C 2.851562 -0.5625 3.066406 -0.613281 3.265625 -0.71875 C 3.472656 -0.832031 3.632812 -0.988281 3.75 -1.1875 C 3.863281 -1.394531 3.921875 -1.628906 3.921875 -1.890625 C 3.921875 -2.148438 3.859375 -2.378906 3.734375 -2.578125 C 3.617188 -2.785156 3.457031 -2.945312 3.25 -3.0625 C 3.039062 -3.175781 2.8125 -3.234375 2.5625 -3.234375 C 2.300781 -3.234375 2.066406 -3.171875 1.859375 -3.046875 C 1.648438 -2.929688 1.488281 -2.769531 1.375 -2.5625 C 1.269531 -2.351562 1.21875 -2.132812 1.21875 -1.90625 Z M 1.21875 -1.90625 "/></g></g></g><g fill="#ffffff" fill-opacity="1"><g transform="translate(100.392084, 243.89395)"><g><path d="M 1.75 0 L 0.828125 0 L 0.828125 -0.921875 L 1.75 -0.921875 Z M 1.75 0 "/></g></g></g><path stroke-linecap="butt" transform="matrix(0.785594, 0.00241866, -0.00230907, 0.749996, 92.237247, 246.744915)" fill="none" stroke-linejoin="miter" d="M -0.00218187 0.501581 L 9.047495 0.498439 " stroke="#ffffff" stroke-width="1" stroke-opacity="1" stroke-miterlimit="4"/><path stroke-linecap="round" transform="matrix(0.785594, 0.00241866, -0.00230907, 0.749996, 99.736126, 247.142972)" fill="none" stroke-linejoin="round" d="M -2.497788 -1.500289 L -0.499469 -0.00151831 L -2.498915 1.499729 " stroke="#ffffff" stroke-width="1" stroke-opacity="1" stroke-miterlimit="4"/><g fill="#ffffff" fill-opacity="1"><g transform="translate(143.750474, 230.543337)"><g><path d="M 2.9375 -6.65625 L 3.46875 -6.65625 L 3.46875 0 L 2.65625 0 L 2.65625 -5.1875 C 2.445312 -4.988281 2.191406 -4.796875 1.890625 -4.609375 C 1.585938 -4.429688 1.300781 -4.296875 1.03125 -4.203125 L 1.03125 -4.984375 C 1.457031 -5.191406 1.84375 -5.441406 2.1875 -5.734375 C 2.539062 -6.035156 2.789062 -6.34375 2.9375 -6.65625 Z M 2.9375 -6.65625 "/></g></g></g><g fill="#ffffff" fill-opacity="1"><g transform="translate(148.8906, 230.543337)"><g><path d="M 2.578125 -6.65625 C 3.273438 -6.65625 3.804688 -6.375 4.171875 -5.8125 C 4.546875 -5.25 4.734375 -4.398438 4.734375 -3.265625 C 4.734375 -2.128906 4.550781 -1.28125 4.1875 -0.71875 C 3.820312 -0.164062 3.285156 0.109375 2.578125 0.109375 C 1.140625 0.109375 0.421875 -1.015625 0.421875 -3.265625 C 0.421875 -4.367188 0.597656 -5.207031 0.953125 -5.78125 C 1.304688 -6.363281 1.847656 -6.65625 2.578125 -6.65625 Z M 1.25 -3.265625 C 1.25 -2.359375 1.351562 -1.679688 1.5625 -1.234375 C 1.769531 -0.785156 2.109375 -0.5625 2.578125 -0.5625 C 3.046875 -0.5625 3.382812 -0.785156 3.59375 -1.234375 C 3.800781 -1.679688 3.90625 -2.359375 3.90625 -3.265625 C 3.90625 -4.210938 3.796875 -4.898438 3.578125 -5.328125 C 3.359375 -5.765625 3.019531 -5.984375 2.5625 -5.984375 C 2.101562 -5.984375 1.769531 -5.757812 1.5625 -5.3125 C 1.351562 -4.863281 1.25 -4.179688 1.25 -3.265625 Z M 1.25 -3.265625 "/></g></g></g><g fill="#ffffff" fill-opacity="1"><g transform="translate(154.030726, 230.543337)"><g><path d="M 1.75 0 L 0.828125 0 L 0.828125 -0.921875 L 1.75 -0.921875 Z M 1.75 0 "/></g></g></g><g fill="#ffffff" fill-opacity="1"><g transform="translate(181.710739, 173.264434)"><g><path d="M 2.9375 -6.65625 L 3.46875 -6.65625 L 3.46875 0 L 2.65625 0 L 2.65625 -5.1875 C 2.445312 -4.988281 2.191406 -4.796875 1.890625 -4.609375 C 1.585938 -4.429688 1.300781 -4.296875 1.03125 -4.203125 L 1.03125 -4.984375 C 1.457031 -5.191406 1.84375 -5.441406 2.1875 -5.734375 C 2.539062 -6.035156 2.789062 -6.34375 2.9375 -6.65625 Z M 2.9375 -6.65625 "/></g></g></g><g fill="#ffffff" fill-opacity="1"><g transform="translate(186.850865, 173.264434)"><g><path d="M 4.734375 -5.90625 C 4.316406 -5.46875 3.925781 -4.929688 3.5625 -4.296875 C 3.195312 -3.660156 2.890625 -2.96875 2.640625 -2.21875 C 2.398438 -1.476562 2.253906 -0.738281 2.203125 0 L 1.375 0 C 1.382812 -0.582031 1.484375 -1.21875 1.671875 -1.90625 C 1.867188 -2.601562 2.140625 -3.289062 2.484375 -3.96875 C 2.835938 -4.65625 3.238281 -5.25 3.6875 -5.75 L 0.4375 -5.75 L 0.4375 -6.53125 L 4.734375 -6.53125 Z M 4.734375 -5.90625 "/></g></g></g><g fill="#ffffff" fill-opacity="1"><g transform="translate(191.990991, 173.264434)"><g><path d="M 1.75 0 L 0.828125 0 L 0.828125 -0.921875 L 1.75 -0.921875 Z M 1.75 0 "/></g></g></g><g fill="#ffffff" fill-opacity="1"><g transform="translate(202.107282, 210.003255)"><g><path d="M 4.46875 -5.75 L 1.828125 -5.75 L 1.46875 -3.984375 C 1.863281 -4.253906 2.28125 -4.390625 2.71875 -4.390625 C 3.09375 -4.390625 3.4375 -4.300781 3.75 -4.125 C 4.0625 -3.945312 4.3125 -3.691406 4.5 -3.359375 C 4.6875 -3.035156 4.78125 -2.664062 4.78125 -2.25 C 4.78125 -1.800781 4.679688 -1.398438 4.484375 -1.046875 C 4.296875 -0.691406 4.03125 -0.410156 3.6875 -0.203125 C 3.351562 0.00390625 2.972656 0.109375 2.546875 0.109375 C 1.941406 0.109375 1.441406 -0.0507812 1.046875 -0.375 C 0.660156 -0.707031 0.441406 -1.160156 0.390625 -1.734375 L 1.234375 -1.796875 C 1.296875 -1.390625 1.4375 -1.082031 1.65625 -0.875 C 1.882812 -0.664062 2.171875 -0.5625 2.515625 -0.5625 C 2.929688 -0.5625 3.265625 -0.710938 3.515625 -1.015625 C 3.773438 -1.316406 3.90625 -1.722656 3.90625 -2.234375 C 3.90625 -2.648438 3.773438 -2.992188 3.515625 -3.265625 C 3.253906 -3.546875 2.914062 -3.6875 2.5 -3.6875 C 2.175781 -3.6875 1.910156 -3.609375 1.703125 -3.453125 C 1.503906 -3.304688 1.367188 -3.164062 1.296875 -3.03125 L 0.53125 -3.140625 L 1.171875 -6.53125 L 4.46875 -6.53125 Z M 4.46875 -5.75 "/></g></g></g><g fill="#ffffff" fill-opacity="1"><g transform="translate(207.247408, 210.003255)"><g><path d="M 1.75 0 L 0.828125 0 L 0.828125 -0.921875 L 1.75 -0.921875 Z M 1.75 0 "/></g></g></g><g fill="#ffffff" fill-opacity="1"><g transform="translate(219.340963, 228.293337)"><g><path d="M 2.5625 -6.65625 C 2.976562 -6.65625 3.34375 -6.570312 3.65625 -6.40625 C 3.96875 -6.25 4.207031 -6.03125 4.375 -5.75 C 4.539062 -5.476562 4.625 -5.175781 4.625 -4.84375 C 4.625 -4.488281 4.535156 -4.15625 4.359375 -3.84375 C 4.179688 -3.53125 3.96875 -3.25 3.71875 -3 C 3.46875 -2.75 3.144531 -2.457031 2.75 -2.125 C 2.351562 -1.800781 2.054688 -1.546875 1.859375 -1.359375 C 1.660156 -1.171875 1.503906 -0.976562 1.390625 -0.78125 L 4.640625 -0.78125 L 4.640625 0 L 0.265625 0 C 0.265625 -0.375 0.398438 -0.753906 0.671875 -1.140625 C 0.953125 -1.535156 1.328125 -1.929688 1.796875 -2.328125 C 2.273438 -2.722656 2.648438 -3.046875 2.921875 -3.296875 C 3.191406 -3.554688 3.40625 -3.8125 3.5625 -4.0625 C 3.71875 -4.3125 3.796875 -4.566406 3.796875 -4.828125 C 3.796875 -5.160156 3.675781 -5.4375 3.4375 -5.65625 C 3.207031 -5.875 2.910156 -5.984375 2.546875 -5.984375 C 2.179688 -5.984375 1.875 -5.867188 1.625 -5.640625 C 1.382812 -5.421875 1.257812 -5.085938 1.25 -4.640625 L 0.421875 -4.734375 C 0.472656 -5.359375 0.6875 -5.832031 1.0625 -6.15625 C 1.4375 -6.488281 1.9375 -6.65625 2.5625 -6.65625 Z M 2.5625 -6.65625 "/></g></g></g><g fill="#ffffff" fill-opacity="1"><g transform="translate(224.481089, 228.293337)"><g><path d="M 1.75 0 L 0.828125 0 L 0.828125 -0.921875 L 1.75 -0.921875 Z M 1.75 0 "/></g></g></g><g fill="#ffffff" fill-opacity="1"><g transform="translate(114.106653, 302.753596)"><g><path d="M 4.734375 -5.90625 C 4.316406 -5.46875 3.925781 -4.929688 3.5625 -4.296875 C 3.195312 -3.660156 2.890625 -2.96875 2.640625 -2.21875 C 2.398438 -1.476562 2.253906 -0.738281 2.203125 0 L 1.375 0 C 1.382812 -0.582031 1.484375 -1.21875 1.671875 -1.90625 C 1.867188 -2.601562 2.140625 -3.289062 2.484375 -3.96875 C 2.835938 -4.65625 3.238281 -5.25 3.6875 -5.75 L 0.4375 -5.75 L 0.4375 -6.53125 L 4.734375 -6.53125 Z M 4.734375 -5.90625 "/></g></g></g><g fill="#ffffff" fill-opacity="1"><g transform="translate(119.246779, 302.753596)"><g><path d="M 1.75 0 L 0.828125 0 L 0.828125 -0.921875 L 1.75 -0.921875 Z M 1.75 0 "/></g></g></g><g fill="#ffffff" fill-opacity="1"><g transform="translate(167.702175, 283.139631)"><g><path d="M 2.484375 -6.65625 C 3.054688 -6.65625 3.546875 -6.457031 3.953125 -6.0625 C 4.210938 -5.800781 4.410156 -5.476562 4.546875 -5.09375 C 4.679688 -4.707031 4.75 -4.15625 4.75 -3.4375 C 4.75 -2.4375 4.628906 -1.6875 4.390625 -1.1875 C 4.148438 -0.707031 3.851562 -0.367188 3.5 -0.171875 C 3.15625 0.015625 2.796875 0.109375 2.421875 0.109375 C 1.890625 0.109375 1.453125 -0.03125 1.109375 -0.3125 C 0.773438 -0.601562 0.578125 -1.007812 0.515625 -1.53125 L 1.296875 -1.609375 C 1.367188 -1.242188 1.5 -0.976562 1.6875 -0.8125 C 1.875 -0.644531 2.128906 -0.5625 2.453125 -0.5625 C 2.753906 -0.5625 3.019531 -0.664062 3.25 -0.875 C 3.476562 -1.082031 3.648438 -1.378906 3.765625 -1.765625 C 3.890625 -2.148438 3.945312 -2.601562 3.9375 -3.125 C 3.769531 -2.851562 3.546875 -2.640625 3.265625 -2.484375 C 2.984375 -2.328125 2.6875 -2.25 2.375 -2.25 C 2.007812 -2.25 1.675781 -2.335938 1.375 -2.515625 C 1.070312 -2.703125 0.832031 -2.957031 0.65625 -3.28125 C 0.476562 -3.613281 0.390625 -3.988281 0.390625 -4.40625 C 0.390625 -4.84375 0.476562 -5.226562 0.65625 -5.5625 C 0.84375 -5.90625 1.09375 -6.171875 1.40625 -6.359375 C 1.71875 -6.554688 2.078125 -6.65625 2.484375 -6.65625 Z M 1.234375 -4.390625 C 1.234375 -3.972656 1.359375 -3.628906 1.609375 -3.359375 C 1.859375 -3.085938 2.171875 -2.953125 2.546875 -2.953125 C 2.941406 -2.953125 3.253906 -3.085938 3.484375 -3.359375 C 3.722656 -3.640625 3.84375 -4.003906 3.84375 -4.453125 C 3.84375 -4.890625 3.722656 -5.253906 3.484375 -5.546875 C 3.253906 -5.835938 2.953125 -5.984375 2.578125 -5.984375 C 2.328125 -5.984375 2.097656 -5.910156 1.890625 -5.765625 C 1.691406 -5.617188 1.53125 -5.421875 1.40625 -5.171875 C 1.289062 -4.929688 1.234375 -4.671875 1.234375 -4.390625 Z M 1.234375 -4.390625 "/></g></g></g><g fill="#ffffff" fill-opacity="1"><g transform="translate(172.842301, 283.139631)"><g><path d="M 1.75 0 L 0.828125 0 L 0.828125 -0.921875 L 1.75 -0.921875 Z M 1.75 0 "/></g></g></g><g fill="#ffffff" fill-opacity="1"><g transform="translate(151.655385, 283.779797)"><g><path d="M 3.828125 -2.328125 L 4.71875 -2.328125 L 4.71875 -1.578125 L 3.828125 -1.578125 L 3.828125 0 L 3.015625 0 L 3.015625 -1.578125 L 0.140625 -1.578125 L 0.140625 -2.328125 L 3.15625 -6.625 L 3.828125 -6.625 Z M 0.9375 -2.328125 L 3.015625 -2.328125 L 3.015625 -5.3125 Z M 0.9375 -2.328125 "/></g></g></g><g fill="#ffffff" fill-opacity="1"><g transform="translate(156.795511, 283.779797)"><g><path d="M 1.75 0 L 0.828125 0 L 0.828125 -0.921875 L 1.75 -0.921875 Z M 1.75 0 "/></g></g></g><path stroke-linecap="butt" transform="matrix(0.674446, -0.348845, 0.344562, 0.666166, 158.487196, 276.047149)" fill="none" stroke-linejoin="miter" d="M 0.00159694 0.498846 L 13.332725 0.501935 " stroke="#ffffff" stroke-width="1" stroke-opacity="1" stroke-miterlimit="4"/><path stroke-linecap="round" transform="matrix(0.674446, -0.348845, 0.344562, 0.666166, 167.988788, 271.554827)" fill="none" stroke-linejoin="round" d="M -2.499633 -1.502674 L -0.499827 0.00192112 L -2.498823 1.500006 " stroke="#ffffff" stroke-width="1" stroke-opacity="1" stroke-miterlimit="4"/><path stroke-linecap="butt" transform="matrix(0.785594, 0.00241866, -0.00230907, 0.749996, 167.546245, 285.91164)" fill="none" stroke-linejoin="miter" d="M 0.00226613 0.498016 L 9.046986 0.500098 " stroke="#ffffff" stroke-width="1" stroke-opacity="1" stroke-miterlimit="4"/><path stroke-linecap="round" transform="matrix(0.785594, 0.00241866, -0.00230907, 0.749996, 175.045131, 286.309697)" fill="none" stroke-linejoin="round" d="M -2.498306 -1.49863 L -0.499987 0.000141134 L -2.499433 1.501388 " stroke="#ffffff" stroke-width="1" stroke-opacity="1" stroke-miterlimit="4"/></svg>