<svg xmlns="http://www.w3.org/2000/svg" xmlns:xlink="http://www.w3.org/1999/xlink" width="500" zoomAndPan="magnify" viewBox="0 0 375 374.999991" height="500" preserveAspectRatio="xMidYMid meet" version="1.0"><defs><clipPath id="94ac882732"><path d="M 59.890625 0 L 77.847656 0 L 77.847656 18.199219 L 59.890625 18.199219 Z M 59.890625 0 " clip-rule="nonzero"/></clipPath><clipPath id="c0f8460384"><path d="M 79.386719 0 L 97.34375 0 L 97.34375 18.199219 L 79.386719 18.199219 Z M 79.386719 0 " clip-rule="nonzero"/></clipPath><clipPath id="4f704e2f21"><path d="M 99.515625 0 L 117.476562 0 L 117.476562 18.199219 L 99.515625 18.199219 Z M 99.515625 0 " clip-rule="nonzero"/></clipPath><clipPath id="141c4015f1"><path d="M 118.890625 0 L 136.847656 0 L 136.847656 18.199219 L 118.890625 18.199219 Z M 118.890625 0 " clip-rule="nonzero"/></clipPath><clipPath id="5e4869b1c8"><path d="M 138.972656 0 L 156.929688 0 L 156.929688 18.199219 L 138.972656 18.199219 Z M 138.972656 0 " clip-rule="nonzero"/></clipPath><clipPath id="6515b8083b"><path d="M 158.347656 0 L 176.304688 0 L 176.304688 18.199219 L 158.347656 18.199219 Z M 158.347656 0 " clip-rule="nonzero"/></clipPath><clipPath id="69b345c121"><path d="M 158.347656 19.828125 L 176.304688 19.828125 L 176.304688 38.035156 L 158.347656 38.035156 Z M 158.347656 19.828125 " clip-rule="nonzero"/></clipPath><clipPath id="e262f6b0af"><path d="M 178.074219 0 L 196.03125 0 L 196.03125 18.199219 L 178.074219 18.199219 Z M 178.074219 0 " clip-rule="nonzero"/></clipPath><clipPath id="95589db4e3"><path d="M 197.449219 0 L 215.40625 0 L 215.40625 18.199219 L 197.449219 18.199219 Z M 197.449219 0 " clip-rule="nonzero"/></clipPath><clipPath id="d3f99f16ea"><path d="M 217.53125 0 L 235.488281 0 L 235.488281 18.199219 L 217.53125 18.199219 Z M 217.53125 0 " clip-rule="nonzero"/></clipPath><clipPath id="ef922b546e"><path d="M 237.613281 0 L 255.570312 0 L 255.570312 18.199219 L 237.613281 18.199219 Z M 237.613281 0 " clip-rule="nonzero"/></clipPath><clipPath id="f66eeed2ef"><path d="M 257.339844 0 L 275.296875 0 L 275.296875 18.199219 L 257.339844 18.199219 Z M 257.339844 0 " clip-rule="nonzero"/></clipPath><clipPath id="d2277e7b67"><path d="M 277.421875 0 L 295.378906 0 L 295.378906 18.199219 L 277.421875 18.199219 Z M 277.421875 0 " clip-rule="nonzero"/></clipPath><clipPath id="089b480acf"><path d="M 297.148438 0 L 315.109375 0 L 315.109375 18.199219 L 297.148438 18.199219 Z M 297.148438 0 " clip-rule="nonzero"/></clipPath><clipPath id="665de2cf3f"><path d="M 317.230469 0 L 335.191406 0 L 335.191406 18.199219 L 317.230469 18.199219 Z M 317.230469 0 " clip-rule="nonzero"/></clipPath><clipPath id="3144ce39d6"><path d="M 337.3125 0 L 355.269531 0 L 355.269531 18.199219 L 337.3125 18.199219 Z M 337.3125 0 " clip-rule="nonzero"/></clipPath><clipPath id="a4d528f9d7"><path d="M 357.042969 0 L 375 0 L 375 18.199219 L 357.042969 18.199219 Z M 357.042969 0 " clip-rule="nonzero"/></clipPath><clipPath id="9f9c5a2dc7"><path d="M 118.890625 59.652344 L 136.847656 59.652344 L 136.847656 77.859375 L 118.890625 77.859375 Z M 118.890625 59.652344 " clip-rule="nonzero"/></clipPath><clipPath id="e24ce70852"><path d="M 138.386719 59.652344 L 156.34375 59.652344 L 156.34375 77.859375 L 138.386719 77.859375 Z M 138.386719 59.652344 " clip-rule="nonzero"/></clipPath><clipPath id="2698a1c1b1"><path d="M 158.515625 59.652344 L 176.476562 59.652344 L 176.476562 77.859375 L 158.515625 77.859375 Z M 158.515625 59.652344 " clip-rule="nonzero"/></clipPath><clipPath id="365c092ed6"><path d="M 177.890625 59.652344 L 195.847656 59.652344 L 195.847656 77.859375 L 177.890625 77.859375 Z M 177.890625 59.652344 " clip-rule="nonzero"/></clipPath><clipPath id="f6ce730b04"><path d="M 197.972656 59.652344 L 215.929688 59.652344 L 215.929688 77.859375 L 197.972656 77.859375 Z M 197.972656 59.652344 " clip-rule="nonzero"/></clipPath><clipPath id="215ed509fb"><path d="M 217.347656 59.652344 L 235.304688 59.652344 L 235.304688 77.859375 L 217.347656 77.859375 Z M 217.347656 59.652344 " clip-rule="nonzero"/></clipPath><clipPath id="0504b57995"><path d="M 237.074219 59.652344 L 255.03125 59.652344 L 255.03125 77.859375 L 237.074219 77.859375 Z M 237.074219 59.652344 " clip-rule="nonzero"/></clipPath><clipPath id="ae3c1e0193"><path d="M 257.339844 59.652344 L 275.296875 59.652344 L 275.296875 77.859375 L 257.339844 77.859375 Z M 257.339844 59.652344 " clip-rule="nonzero"/></clipPath><clipPath id="6d57a178bc"><path d="M 277.421875 59.652344 L 295.378906 59.652344 L 295.378906 77.859375 L 277.421875 77.859375 Z M 277.421875 59.652344 " clip-rule="nonzero"/></clipPath><clipPath id="399ab2f05b"><path d="M 138.679688 39.675781 L 156.636719 39.675781 L 156.636719 57.882812 L 138.679688 57.882812 Z M 138.679688 39.675781 " clip-rule="nonzero"/></clipPath><clipPath id="cd4da48d11"><path d="M 138.679688 99.152344 L 156.636719 99.152344 L 156.636719 117.359375 L 138.679688 117.359375 Z M 138.679688 99.152344 " clip-rule="nonzero"/></clipPath><clipPath id="93f07388c9"><path d="M 138.679688 79.179688 L 156.636719 79.179688 L 156.636719 97.382812 L 138.679688 97.382812 Z M 138.679688 79.179688 " clip-rule="nonzero"/></clipPath><clipPath id="2015db2ae3"><path d="M 138.679688 138.65625 L 156.636719 138.65625 L 156.636719 156.863281 L 138.679688 156.863281 Z M 138.679688 138.65625 " clip-rule="nonzero"/></clipPath><clipPath id="b9a3cf2af4"><path d="M 138.972656 118.679688 L 156.929688 118.679688 L 156.929688 136.886719 L 138.972656 136.886719 Z M 138.972656 118.679688 " clip-rule="nonzero"/></clipPath><clipPath id="aeec101909"><path d="M 138.972656 178.253906 L 156.929688 178.253906 L 156.929688 196.457031 L 138.972656 196.457031 Z M 138.972656 178.253906 " clip-rule="nonzero"/></clipPath><clipPath id="bbdcf7b760"><path d="M 138.972656 158.632812 L 156.929688 158.632812 L 156.929688 176.835938 L 138.972656 176.835938 Z M 138.972656 158.632812 " clip-rule="nonzero"/></clipPath><clipPath id="65003d93a3"><path d="M 138.386719 198.222656 L 156.34375 198.222656 L 156.34375 216.429688 L 138.386719 216.429688 Z M 138.386719 198.222656 " clip-rule="nonzero"/></clipPath><clipPath id="69eac55e5a"><path d="M 99.347656 238.019531 L 117.304688 238.019531 L 117.304688 256.226562 L 99.347656 256.226562 Z M 99.347656 238.019531 " clip-rule="nonzero"/></clipPath><clipPath id="47953dee75"><path d="M 118.84375 238.019531 L 136.800781 238.019531 L 136.800781 256.226562 L 118.84375 256.226562 Z M 118.84375 238.019531 " clip-rule="nonzero"/></clipPath><clipPath id="ae59b71fe2"><path d="M 138.972656 238.019531 L 156.929688 238.019531 L 156.929688 256.226562 L 138.972656 256.226562 Z M 138.972656 238.019531 " clip-rule="nonzero"/></clipPath><clipPath id="f32fa133a7"><path d="M 158.347656 238.019531 L 176.304688 238.019531 L 176.304688 256.226562 L 158.347656 256.226562 Z M 158.347656 238.019531 " clip-rule="nonzero"/></clipPath><clipPath id="ce840333a4"><path d="M 178.429688 238.019531 L 196.386719 238.019531 L 196.386719 256.226562 L 178.429688 256.226562 Z M 178.429688 238.019531 " clip-rule="nonzero"/></clipPath><clipPath id="08aef4245a"><path d="M 197.800781 238.019531 L 215.761719 238.019531 L 215.761719 256.226562 L 197.800781 256.226562 Z M 197.800781 238.019531 " clip-rule="nonzero"/></clipPath><clipPath id="4597e3f893"><path d="M 217.53125 237.820312 L 235.488281 237.820312 L 235.488281 256.027344 L 217.53125 256.027344 Z M 217.53125 237.820312 " clip-rule="nonzero"/></clipPath><clipPath id="498b2d2107"><path d="M 99.164062 258 L 117.121094 258 L 117.121094 276.203125 L 99.164062 276.203125 Z M 99.164062 258 " clip-rule="nonzero"/></clipPath><clipPath id="8038d24bba"><path d="M 118.660156 258 L 136.617188 258 L 136.617188 276.203125 L 118.660156 276.203125 Z M 118.660156 258 " clip-rule="nonzero"/></clipPath><clipPath id="c4c4473161"><path d="M 138.789062 258 L 156.746094 258 L 156.746094 276.203125 L 138.789062 276.203125 Z M 138.789062 258 " clip-rule="nonzero"/></clipPath><clipPath id="cefa152cff"><path d="M 158.164062 258 L 176.121094 258 L 176.121094 276.203125 L 158.164062 276.203125 Z M 158.164062 258 " clip-rule="nonzero"/></clipPath><clipPath id="81dab6742a"><path d="M 178.246094 258 L 196.203125 258 L 196.203125 276.203125 L 178.246094 276.203125 Z M 178.246094 258 " clip-rule="nonzero"/></clipPath><clipPath id="ce06be61fa"><path d="M 197.617188 258 L 215.578125 258 L 215.578125 276.203125 L 197.617188 276.203125 Z M 197.617188 258 " clip-rule="nonzero"/></clipPath><clipPath id="75cca3b29c"><path d="M 217.347656 257.796875 L 235.304688 257.796875 L 235.304688 276.003906 L 217.347656 276.003906 Z M 217.347656 257.796875 " clip-rule="nonzero"/></clipPath><clipPath id="41e3c637a9"><path d="M 118.84375 298.742188 L 136.800781 298.742188 L 136.800781 316.949219 L 118.84375 316.949219 Z M 118.84375 298.742188 " clip-rule="nonzero"/></clipPath><clipPath id="01490c05f9"><path d="M 138.335938 298.742188 L 156.296875 298.742188 L 156.296875 316.949219 L 138.335938 316.949219 Z M 138.335938 298.742188 " clip-rule="nonzero"/></clipPath><clipPath id="5256536a7e"><path d="M 158.46875 298.742188 L 176.425781 298.742188 L 176.425781 316.949219 L 158.46875 316.949219 Z M 158.46875 298.742188 " clip-rule="nonzero"/></clipPath><clipPath id="eb28dd8a42"><path d="M 177.84375 298.742188 L 195.800781 298.742188 L 195.800781 316.949219 L 177.84375 316.949219 Z M 177.84375 298.742188 " clip-rule="nonzero"/></clipPath><clipPath id="fb587a7a69"><path d="M 197.921875 298.742188 L 215.882812 298.742188 L 215.882812 316.949219 L 197.921875 316.949219 Z M 197.921875 298.742188 " clip-rule="nonzero"/></clipPath><clipPath id="a2c548c486"><path d="M 178.195312 278.371094 L 196.152344 278.371094 L 196.152344 296.574219 L 178.195312 296.574219 Z M 178.195312 278.371094 " clip-rule="nonzero"/></clipPath><clipPath id="306d78dc8e"><path d="M 197.570312 278.371094 L 215.527344 278.371094 L 215.527344 296.574219 L 197.570312 296.574219 Z M 197.570312 278.371094 " clip-rule="nonzero"/></clipPath><clipPath id="c9e03c2c88"><path d="M 217.53125 278.371094 L 235.488281 278.371094 L 235.488281 296.574219 L 217.53125 296.574219 Z M 217.53125 278.371094 " clip-rule="nonzero"/></clipPath><clipPath id="0c32334429"><path d="M 178.953125 218.042969 L 196.910156 218.042969 L 196.910156 236.25 L 178.953125 236.25 Z M 178.953125 218.042969 " clip-rule="nonzero"/></clipPath><clipPath id="8f08e90109"><path d="M 198.328125 218.042969 L 216.285156 218.042969 L 216.285156 236.25 L 198.328125 236.25 Z M 198.328125 218.042969 " clip-rule="nonzero"/></clipPath><clipPath id="9c202c6a5d"><path d="M 0.792969 118.679688 L 18.75 118.679688 L 18.75 136.886719 L 0.792969 136.886719 Z M 0.792969 118.679688 " clip-rule="nonzero"/></clipPath><clipPath id="c94f6f9db9"><path d="M 20.289062 118.679688 L 38.246094 118.679688 L 38.246094 136.886719 L 20.289062 136.886719 Z M 20.289062 118.679688 " clip-rule="nonzero"/></clipPath><clipPath id="5e4ed71702"><path d="M 40.417969 118.679688 L 58.375 118.679688 L 58.375 136.886719 L 40.417969 136.886719 Z M 40.417969 118.679688 " clip-rule="nonzero"/></clipPath><clipPath id="44eafa9e16"><path d="M 59.792969 118.679688 L 77.75 118.679688 L 77.75 136.886719 L 59.792969 136.886719 Z M 59.792969 118.679688 " clip-rule="nonzero"/></clipPath><clipPath id="493bcd82ed"><path d="M 79.875 118.679688 L 97.832031 118.679688 L 97.832031 136.886719 L 79.875 136.886719 Z M 79.875 118.679688 " clip-rule="nonzero"/></clipPath><clipPath id="1b91d82999"><path d="M 99.25 118.679688 L 117.207031 118.679688 L 117.207031 136.886719 L 99.25 136.886719 Z M 99.25 118.679688 " clip-rule="nonzero"/></clipPath><clipPath id="a4088ede64"><path d="M 118.976562 118.679688 L 136.933594 118.679688 L 136.933594 136.886719 L 118.976562 136.886719 Z M 118.976562 118.679688 " clip-rule="nonzero"/></clipPath><clipPath id="858f2aa355"><path d="M 158.433594 118.679688 L 176.390625 118.679688 L 176.390625 136.886719 L 158.433594 136.886719 Z M 158.433594 118.679688 " clip-rule="nonzero"/></clipPath><clipPath id="a4491b8eab"><path d="M 178.511719 118.679688 L 196.472656 118.679688 L 196.472656 136.886719 L 178.511719 136.886719 Z M 178.511719 118.679688 " clip-rule="nonzero"/></clipPath><clipPath id="8ae2e3781b"><path d="M 198.242188 118.679688 L 216.199219 118.679688 L 216.199219 136.886719 L 198.242188 136.886719 Z M 198.242188 118.679688 " clip-rule="nonzero"/></clipPath><clipPath id="10a55d9c80"><path d="M 0 258 L 17.957031 258 L 17.957031 276.203125 L 0 276.203125 Z M 0 258 " clip-rule="nonzero"/></clipPath><clipPath id="3e0aa5b2c9"><path d="M 19.496094 258 L 37.453125 258 L 37.453125 276.203125 L 19.496094 276.203125 Z M 19.496094 258 " clip-rule="nonzero"/></clipPath><clipPath id="fc8335d94d"><path d="M 39.625 258 L 57.582031 258 L 57.582031 276.203125 L 39.625 276.203125 Z M 39.625 258 " clip-rule="nonzero"/></clipPath><clipPath id="883b1c8f30"><path d="M 59 258 L 76.957031 258 L 76.957031 276.203125 L 59 276.203125 Z M 59 258 " clip-rule="nonzero"/></clipPath><clipPath id="059f5d0062"><path d="M 79.082031 258 L 97.039062 258 L 97.039062 276.203125 L 79.082031 276.203125 Z M 79.082031 258 " clip-rule="nonzero"/></clipPath><clipPath id="89967b05d1"><path d="M 59.621094 158.632812 L 77.578125 158.632812 L 77.578125 176.835938 L 59.621094 176.835938 Z M 59.621094 158.632812 " clip-rule="nonzero"/></clipPath><clipPath id="383d277471"><path d="M 59.4375 178.605469 L 77.394531 178.605469 L 77.394531 196.8125 L 59.4375 196.8125 Z M 59.4375 178.605469 " clip-rule="nonzero"/></clipPath><clipPath id="7a5d7b7f44"><path d="M 59.621094 218.050781 L 77.578125 218.050781 L 77.578125 236.257812 L 59.621094 236.257812 Z M 59.621094 218.050781 " clip-rule="nonzero"/></clipPath><clipPath id="6052d1eeef"><path d="M 59.976562 198.328125 L 77.933594 198.328125 L 77.933594 216.535156 L 59.976562 216.535156 Z M 59.976562 198.328125 " clip-rule="nonzero"/></clipPath><clipPath id="149a7b3357"><path d="M 60.144531 138.65625 L 78.105469 138.65625 L 78.105469 156.863281 L 60.144531 156.863281 Z M 60.144531 138.65625 " clip-rule="nonzero"/></clipPath><clipPath id="77d8a230a0"><path d="M 179.039062 198 L 196.996094 198 L 196.996094 216.089844 L 179.039062 216.089844 Z M 179.039062 198 " clip-rule="nonzero"/></clipPath><clipPath id="ad79ad5131"><path d="M 178.953125 177.507812 L 196.910156 177.507812 L 196.910156 195.714844 L 178.953125 195.714844 Z M 178.953125 177.507812 " clip-rule="nonzero"/></clipPath><clipPath id="6c88bda85a"><path d="M 59 238.027344 L 76.957031 238.027344 L 76.957031 256.230469 L 59 256.230469 Z M 59 238.027344 " clip-rule="nonzero"/></clipPath><clipPath id="4e96586ce9"><path d="M 59.621094 357.359375 L 77.578125 357.359375 L 77.578125 375 L 59.621094 375 Z M 59.621094 357.359375 " clip-rule="nonzero"/></clipPath><clipPath id="f44ef8479c"><path d="M 60.0625 278 L 78.019531 278 L 78.019531 296.175781 L 60.0625 296.175781 Z M 60.0625 278 " clip-rule="nonzero"/></clipPath><clipPath id="62cbcebd93"><path d="M 60.246094 317.414062 L 78.203125 317.414062 L 78.203125 335.621094 L 60.246094 335.621094 Z M 60.246094 317.414062 " clip-rule="nonzero"/></clipPath><clipPath id="064338aeab"><path d="M 60.597656 297.691406 L 78.558594 297.691406 L 78.558594 315.898438 L 60.597656 315.898438 Z M 60.597656 297.691406 " clip-rule="nonzero"/></clipPath><clipPath id="01e82eee97"><path d="M 59.621094 337.390625 L 77.578125 337.390625 L 77.578125 355.597656 L 59.621094 355.597656 Z M 59.621094 337.390625 " clip-rule="nonzero"/></clipPath><clipPath id="ffc0ef810f"><path d="M 237.613281 39.675781 L 255.570312 39.675781 L 255.570312 57.882812 L 237.613281 57.882812 Z M 237.613281 39.675781 " clip-rule="nonzero"/></clipPath><clipPath id="3ed3735eed"><path d="M 237.90625 19.699219 L 255.863281 19.699219 L 255.863281 37.90625 L 237.90625 37.90625 Z M 237.90625 19.699219 " clip-rule="nonzero"/></clipPath><clipPath id="2691b23eb1"><path d="M 237.613281 79.179688 L 255.570312 79.179688 L 255.570312 97.382812 L 237.613281 97.382812 Z M 237.613281 79.179688 " clip-rule="nonzero"/></clipPath><clipPath id="af04ccaed0"><path d="M 178.246094 79.179688 L 196.203125 79.179688 L 196.203125 97.382812 L 178.246094 97.382812 Z M 178.246094 79.179688 " clip-rule="nonzero"/></clipPath><clipPath id="ad6a0309bb"><path d="M 178.246094 99.152344 L 196.203125 99.152344 L 196.203125 117.359375 L 178.246094 117.359375 Z M 178.246094 99.152344 " clip-rule="nonzero"/></clipPath><clipPath id="c80f1e8391"><path d="M 79.082031 178.253906 L 97.039062 178.253906 L 97.039062 196.457031 L 79.082031 196.457031 Z M 79.082031 178.253906 " clip-rule="nonzero"/></clipPath></defs><g clip-path="url(#94ac882732)"><path fill="#ffffff" d="M 59.890625 18.199219 L 59.890625 0.125 L 77.964844 0.125 L 77.964844 18.199219 Z M 59.890625 18.199219 " fill-opacity="1" fill-rule="nonzero"/></g><g clip-path="url(#c0f8460384)"><path fill="#ffffff" d="M 79.386719 18.199219 L 79.386719 0.125 L 97.460938 0.125 L 97.460938 18.199219 Z M 79.386719 18.199219 " fill-opacity="1" fill-rule="nonzero"/></g><g clip-path="url(#4f704e2f21)"><path fill="#ffffff" d="M 99.515625 18.199219 L 99.515625 0.125 L 117.589844 0.125 L 117.589844 18.199219 Z M 99.515625 18.199219 " fill-opacity="1" fill-rule="nonzero"/></g><g clip-path="url(#141c4015f1)"><path fill="#ffffff" d="M 118.890625 18.199219 L 118.890625 0.125 L 136.964844 0.125 L 136.964844 18.199219 Z M 118.890625 18.199219 " fill-opacity="1" fill-rule="nonzero"/></g><g clip-path="url(#5e4869b1c8)"><path fill="#ffffff" d="M 138.972656 18.199219 L 138.972656 0.125 L 157.046875 0.125 L 157.046875 18.199219 Z M 138.972656 18.199219 " fill-opacity="1" fill-rule="nonzero"/></g><g clip-path="url(#6515b8083b)"><path fill="#ffffff" d="M 158.347656 18.199219 L 158.347656 0.125 L 176.421875 0.125 L 176.421875 18.199219 Z M 158.347656 18.199219 " fill-opacity="1" fill-rule="nonzero"/></g><g clip-path="url(#69b345c121)"><path fill="#ffffff" d="M 158.347656 38.035156 L 158.347656 19.960938 L 176.421875 19.960938 L 176.421875 38.035156 Z M 158.347656 38.035156 " fill-opacity="1" fill-rule="nonzero"/></g><g clip-path="url(#e262f6b0af)"><path fill="#ffffff" d="M 178.074219 18.199219 L 178.074219 0.125 L 196.148438 0.125 L 196.148438 18.199219 Z M 178.074219 18.199219 " fill-opacity="1" fill-rule="nonzero"/></g><g clip-path="url(#95589db4e3)"><path fill="#ffffff" d="M 197.449219 18.199219 L 197.449219 0.125 L 215.523438 0.125 L 215.523438 18.199219 Z M 197.449219 18.199219 " fill-opacity="1" fill-rule="nonzero"/></g><g clip-path="url(#d3f99f16ea)"><path fill="#ffffff" d="M 217.53125 18.199219 L 217.53125 0.125 L 235.605469 0.125 L 235.605469 18.199219 Z M 217.53125 18.199219 " fill-opacity="1" fill-rule="nonzero"/></g><g clip-path="url(#ef922b546e)"><path fill="#ffffff" d="M 237.613281 18.199219 L 237.613281 0.125 L 255.6875 0.125 L 255.6875 18.199219 Z M 237.613281 18.199219 " fill-opacity="1" fill-rule="nonzero"/></g><g clip-path="url(#f66eeed2ef)"><path fill="#ffffff" d="M 257.339844 18.199219 L 257.339844 0.125 L 275.414062 0.125 L 275.414062 18.199219 Z M 257.339844 18.199219 " fill-opacity="1" fill-rule="nonzero"/></g><g clip-path="url(#d2277e7b67)"><path fill="#ffffff" d="M 277.421875 18.199219 L 277.421875 0.125 L 295.496094 0.125 L 295.496094 18.199219 Z M 277.421875 18.199219 " fill-opacity="1" fill-rule="nonzero"/></g><g clip-path="url(#089b480acf)"><path fill="#ffffff" d="M 297.148438 18.199219 L 297.148438 0.125 L 315.222656 0.125 L 315.222656 18.199219 Z M 297.148438 18.199219 " fill-opacity="1" fill-rule="nonzero"/></g><g clip-path="url(#665de2cf3f)"><path fill="#ffffff" d="M 317.230469 18.199219 L 317.230469 0.125 L 335.304688 0.125 L 335.304688 18.199219 Z M 317.230469 18.199219 " fill-opacity="1" fill-rule="nonzero"/></g><g clip-path="url(#3144ce39d6)"><path fill="#ffffff" d="M 337.3125 18.199219 L 337.3125 0.125 L 355.386719 0.125 L 355.386719 18.199219 Z M 337.3125 18.199219 " fill-opacity="1" fill-rule="nonzero"/></g><g clip-path="url(#a4d528f9d7)"><path fill="#ffffff" d="M 357.042969 18.199219 L 357.042969 0.125 L 375.113281 0.125 L 375.113281 18.199219 Z M 357.042969 18.199219 " fill-opacity="1" fill-rule="nonzero"/></g><g clip-path="url(#9f9c5a2dc7)"><path fill="#ffffff" d="M 118.890625 77.859375 L 118.890625 59.785156 L 136.964844 59.785156 L 136.964844 77.859375 Z M 118.890625 77.859375 " fill-opacity="1" fill-rule="nonzero"/></g><g clip-path="url(#e24ce70852)"><path fill="#ffffff" d="M 138.386719 77.859375 L 138.386719 59.785156 L 156.460938 59.785156 L 156.460938 77.859375 Z M 138.386719 77.859375 " fill-opacity="1" fill-rule="nonzero"/></g><g clip-path="url(#2698a1c1b1)"><path fill="#ffffff" d="M 158.515625 77.859375 L 158.515625 59.785156 L 176.589844 59.785156 L 176.589844 77.859375 Z M 158.515625 77.859375 " fill-opacity="1" fill-rule="nonzero"/></g><g clip-path="url(#365c092ed6)"><path fill="#ffffff" d="M 177.890625 77.859375 L 177.890625 59.785156 L 195.964844 59.785156 L 195.964844 77.859375 Z M 177.890625 77.859375 " fill-opacity="1" fill-rule="nonzero"/></g><g clip-path="url(#f6ce730b04)"><path fill="#ffffff" d="M 197.972656 77.859375 L 197.972656 59.785156 L 216.046875 59.785156 L 216.046875 77.859375 Z M 197.972656 77.859375 " fill-opacity="1" fill-rule="nonzero"/></g><g clip-path="url(#215ed509fb)"><path fill="#ffffff" d="M 217.347656 77.859375 L 217.347656 59.785156 L 235.421875 59.785156 L 235.421875 77.859375 Z M 217.347656 77.859375 " fill-opacity="1" fill-rule="nonzero"/></g><g clip-path="url(#0504b57995)"><path fill="#ffffff" d="M 237.074219 77.859375 L 237.074219 59.785156 L 255.148438 59.785156 L 255.148438 77.859375 Z M 237.074219 77.859375 " fill-opacity="1" fill-rule="nonzero"/></g><g clip-path="url(#ae3c1e0193)"><path fill="#ffffff" d="M 257.339844 77.859375 L 257.339844 59.785156 L 275.414062 59.785156 L 275.414062 77.859375 Z M 257.339844 77.859375 " fill-opacity="1" fill-rule="nonzero"/></g><g clip-path="url(#6d57a178bc)"><path fill="#ffffff" d="M 277.421875 77.859375 L 277.421875 59.785156 L 295.496094 59.785156 L 295.496094 77.859375 Z M 277.421875 77.859375 " fill-opacity="1" fill-rule="nonzero"/></g><g clip-path="url(#399ab2f05b)"><path fill="#ffffff" d="M 138.679688 57.882812 L 138.679688 39.808594 L 156.753906 39.808594 L 156.753906 57.882812 Z M 138.679688 57.882812 " fill-opacity="1" fill-rule="nonzero"/></g><g clip-path="url(#cd4da48d11)"><path fill="#ffffff" d="M 138.679688 117.359375 L 138.679688 99.285156 L 156.753906 99.285156 L 156.753906 117.359375 Z M 138.679688 117.359375 " fill-opacity="1" fill-rule="nonzero"/></g><g clip-path="url(#93f07388c9)"><path fill="#ffffff" d="M 138.679688 97.382812 L 138.679688 79.308594 L 156.753906 79.308594 L 156.753906 97.382812 Z M 138.679688 97.382812 " fill-opacity="1" fill-rule="nonzero"/></g><g clip-path="url(#2015db2ae3)"><path fill="#ffffff" d="M 138.679688 156.863281 L 138.679688 138.789062 L 156.753906 138.789062 L 156.753906 156.863281 Z M 138.679688 156.863281 " fill-opacity="1" fill-rule="nonzero"/></g><g clip-path="url(#b9a3cf2af4)"><path fill="#ffffff" d="M 138.972656 136.886719 L 138.972656 118.8125 L 157.046875 118.8125 L 157.046875 136.886719 Z M 138.972656 136.886719 " fill-opacity="1" fill-rule="nonzero"/></g><g clip-path="url(#aeec101909)"><path fill="#ffffff" d="M 138.972656 196.457031 L 138.972656 178.386719 L 157.046875 178.386719 L 157.046875 196.457031 Z M 138.972656 196.457031 " fill-opacity="1" fill-rule="nonzero"/></g><g clip-path="url(#bbdcf7b760)"><path fill="#ffffff" d="M 138.972656 176.835938 L 138.972656 158.761719 L 157.046875 158.761719 L 157.046875 176.835938 Z M 138.972656 176.835938 " fill-opacity="1" fill-rule="nonzero"/></g><g clip-path="url(#65003d93a3)"><path fill="#ffffff" d="M 138.386719 216.429688 L 138.386719 198.355469 L 156.460938 198.355469 L 156.460938 216.429688 Z M 138.386719 216.429688 " fill-opacity="1" fill-rule="nonzero"/></g><g clip-path="url(#69eac55e5a)"><path fill="#ffffff" d="M 99.347656 256.226562 L 99.347656 238.152344 L 117.421875 238.152344 L 117.421875 256.226562 Z M 99.347656 256.226562 " fill-opacity="1" fill-rule="nonzero"/></g><g clip-path="url(#47953dee75)"><path fill="#ffffff" d="M 118.84375 256.226562 L 118.84375 238.152344 L 136.914062 238.152344 L 136.914062 256.226562 Z M 118.84375 256.226562 " fill-opacity="1" fill-rule="nonzero"/></g><g clip-path="url(#ae59b71fe2)"><path fill="#ffffff" d="M 138.972656 256.226562 L 138.972656 238.152344 L 157.046875 238.152344 L 157.046875 256.226562 Z M 138.972656 256.226562 " fill-opacity="1" fill-rule="nonzero"/></g><g clip-path="url(#f32fa133a7)"><path fill="#ffffff" d="M 158.347656 256.226562 L 158.347656 238.152344 L 176.421875 238.152344 L 176.421875 256.226562 Z M 158.347656 256.226562 " fill-opacity="1" fill-rule="nonzero"/></g><g clip-path="url(#ce840333a4)"><path fill="#ffffff" d="M 178.429688 256.226562 L 178.429688 238.152344 L 196.503906 238.152344 L 196.503906 256.226562 Z M 178.429688 256.226562 " fill-opacity="1" fill-rule="nonzero"/></g><g clip-path="url(#08aef4245a)"><path fill="#ffffff" d="M 197.800781 256.226562 L 197.800781 238.152344 L 215.875 238.152344 L 215.875 256.226562 Z M 197.800781 256.226562 " fill-opacity="1" fill-rule="nonzero"/></g><g clip-path="url(#4597e3f893)"><path fill="#ffffff" d="M 217.53125 256.027344 L 217.53125 237.953125 L 235.605469 237.953125 L 235.605469 256.027344 Z M 217.53125 256.027344 " fill-opacity="1" fill-rule="nonzero"/></g><g clip-path="url(#498b2d2107)"><path fill="#ffffff" d="M 99.164062 276.203125 L 99.164062 258.128906 L 117.238281 258.128906 L 117.238281 276.203125 Z M 99.164062 276.203125 " fill-opacity="1" fill-rule="nonzero"/></g><g clip-path="url(#8038d24bba)"><path fill="#ffffff" d="M 118.660156 276.203125 L 118.660156 258.128906 L 136.730469 258.128906 L 136.730469 276.203125 Z M 118.660156 276.203125 " fill-opacity="1" fill-rule="nonzero"/></g><g clip-path="url(#c4c4473161)"><path fill="#ffffff" d="M 138.789062 276.203125 L 138.789062 258.128906 L 156.863281 258.128906 L 156.863281 276.203125 Z M 138.789062 276.203125 " fill-opacity="1" fill-rule="nonzero"/></g><g clip-path="url(#cefa152cff)"><path fill="#ffffff" d="M 158.164062 276.203125 L 158.164062 258.128906 L 176.238281 258.128906 L 176.238281 276.203125 Z M 158.164062 276.203125 " fill-opacity="1" fill-rule="nonzero"/></g><g clip-path="url(#81dab6742a)"><path fill="#ffffff" d="M 178.246094 276.203125 L 178.246094 258.128906 L 196.320312 258.128906 L 196.320312 276.203125 Z M 178.246094 276.203125 " fill-opacity="1" fill-rule="nonzero"/></g><g clip-path="url(#ce06be61fa)"><path fill="#ffffff" d="M 197.617188 276.203125 L 197.617188 258.128906 L 215.691406 258.128906 L 215.691406 276.203125 Z M 197.617188 276.203125 " fill-opacity="1" fill-rule="nonzero"/></g><g clip-path="url(#75cca3b29c)"><path fill="#ffffff" d="M 217.347656 276.003906 L 217.347656 257.929688 L 235.421875 257.929688 L 235.421875 276.003906 Z M 217.347656 276.003906 " fill-opacity="1" fill-rule="nonzero"/></g><g clip-path="url(#41e3c637a9)"><path fill="#ffffff" d="M 118.84375 316.949219 L 118.84375 298.875 L 136.914062 298.875 L 136.914062 316.949219 Z M 118.84375 316.949219 " fill-opacity="1" fill-rule="nonzero"/></g><g clip-path="url(#01490c05f9)"><path fill="#ffffff" d="M 138.335938 316.949219 L 138.335938 298.875 L 156.410156 298.875 L 156.410156 316.949219 Z M 138.335938 316.949219 " fill-opacity="1" fill-rule="nonzero"/></g><g clip-path="url(#5256536a7e)"><path fill="#ffffff" d="M 158.46875 316.949219 L 158.46875 298.875 L 176.542969 298.875 L 176.542969 316.949219 Z M 158.46875 316.949219 " fill-opacity="1" fill-rule="nonzero"/></g><g clip-path="url(#eb28dd8a42)"><path fill="#ffffff" d="M 177.84375 316.949219 L 177.84375 298.875 L 195.914062 298.875 L 195.914062 316.949219 Z M 177.84375 316.949219 " fill-opacity="1" fill-rule="nonzero"/></g><g clip-path="url(#fb587a7a69)"><path fill="#ffffff" d="M 197.921875 316.949219 L 197.921875 298.875 L 215.996094 298.875 L 215.996094 316.949219 Z M 197.921875 316.949219 " fill-opacity="1" fill-rule="nonzero"/></g><g clip-path="url(#a2c548c486)"><path fill="#ffffff" d="M 178.195312 296.574219 L 178.195312 278.5 L 196.269531 278.5 L 196.269531 296.574219 Z M 178.195312 296.574219 " fill-opacity="1" fill-rule="nonzero"/></g><g clip-path="url(#306d78dc8e)"><path fill="#ffffff" d="M 197.570312 296.574219 L 197.570312 278.5 L 215.644531 278.5 L 215.644531 296.574219 Z M 197.570312 296.574219 " fill-opacity="1" fill-rule="nonzero"/></g><g clip-path="url(#c9e03c2c88)"><path fill="#ffffff" d="M 217.53125 296.574219 L 217.53125 278.5 L 235.605469 278.5 L 235.605469 296.574219 Z M 217.53125 296.574219 " fill-opacity="1" fill-rule="nonzero"/></g><g clip-path="url(#0c32334429)"><path fill="#ffffff" d="M 178.953125 236.25 L 178.953125 218.175781 L 197.027344 218.175781 L 197.027344 236.25 Z M 178.953125 236.25 " fill-opacity="1" fill-rule="nonzero"/></g><g clip-path="url(#8f08e90109)"><path fill="#ffffff" d="M 198.328125 236.25 L 198.328125 218.175781 L 216.402344 218.175781 L 216.402344 236.25 Z M 198.328125 236.25 " fill-opacity="1" fill-rule="nonzero"/></g><g clip-path="url(#9c202c6a5d)"><path fill="#ffffff" d="M 0.792969 136.886719 L 0.792969 118.8125 L 18.867188 118.8125 L 18.867188 136.886719 Z M 0.792969 136.886719 " fill-opacity="1" fill-rule="nonzero"/></g><g clip-path="url(#c94f6f9db9)"><path fill="#ffffff" d="M 20.289062 136.886719 L 20.289062 118.8125 L 38.363281 118.8125 L 38.363281 136.886719 Z M 20.289062 136.886719 " fill-opacity="1" fill-rule="nonzero"/></g><g clip-path="url(#5e4ed71702)"><path fill="#ffffff" d="M 40.417969 136.886719 L 40.417969 118.8125 L 58.492188 118.8125 L 58.492188 136.886719 Z M 40.417969 136.886719 " fill-opacity="1" fill-rule="nonzero"/></g><g clip-path="url(#44eafa9e16)"><path fill="#ffffff" d="M 59.792969 136.886719 L 59.792969 118.8125 L 77.867188 118.8125 L 77.867188 136.886719 Z M 59.792969 136.886719 " fill-opacity="1" fill-rule="nonzero"/></g><g clip-path="url(#493bcd82ed)"><path fill="#ffffff" d="M 79.875 136.886719 L 79.875 118.8125 L 97.949219 118.8125 L 97.949219 136.886719 Z M 79.875 136.886719 " fill-opacity="1" fill-rule="nonzero"/></g><g clip-path="url(#1b91d82999)"><path fill="#ffffff" d="M 99.25 136.886719 L 99.25 118.8125 L 117.320312 118.8125 L 117.320312 136.886719 Z M 99.25 136.886719 " fill-opacity="1" fill-rule="nonzero"/></g><g clip-path="url(#a4088ede64)"><path fill="#ffffff" d="M 118.976562 136.886719 L 118.976562 118.8125 L 137.050781 118.8125 L 137.050781 136.886719 Z M 118.976562 136.886719 " fill-opacity="1" fill-rule="nonzero"/></g><g clip-path="url(#858f2aa355)"><path fill="#ffffff" d="M 158.433594 136.886719 L 158.433594 118.8125 L 176.503906 118.8125 L 176.503906 136.886719 Z M 158.433594 136.886719 " fill-opacity="1" fill-rule="nonzero"/></g><g clip-path="url(#a4491b8eab)"><path fill="#ffffff" d="M 178.511719 136.886719 L 178.511719 118.8125 L 196.585938 118.8125 L 196.585938 136.886719 Z M 178.511719 136.886719 " fill-opacity="1" fill-rule="nonzero"/></g><g clip-path="url(#8ae2e3781b)"><path fill="#ffffff" d="M 198.242188 136.886719 L 198.242188 118.8125 L 216.316406 118.8125 L 216.316406 136.886719 Z M 198.242188 136.886719 " fill-opacity="1" fill-rule="nonzero"/></g><g clip-path="url(#10a55d9c80)"><path fill="#ffffff" d="M 0 276.203125 L 0 258.128906 L 18.074219 258.128906 L 18.074219 276.203125 Z M 0 276.203125 " fill-opacity="1" fill-rule="nonzero"/></g><g clip-path="url(#3e0aa5b2c9)"><path fill="#ffffff" d="M 19.496094 276.203125 L 19.496094 258.128906 L 37.570312 258.128906 L 37.570312 276.203125 Z M 19.496094 276.203125 " fill-opacity="1" fill-rule="nonzero"/></g><g clip-path="url(#fc8335d94d)"><path fill="#ffffff" d="M 39.625 276.203125 L 39.625 258.128906 L 57.699219 258.128906 L 57.699219 276.203125 Z M 39.625 276.203125 " fill-opacity="1" fill-rule="nonzero"/></g><g clip-path="url(#883b1c8f30)"><path fill="#ffffff" d="M 59 276.203125 L 59 258.128906 L 77.074219 258.128906 L 77.074219 276.203125 Z M 59 276.203125 " fill-opacity="1" fill-rule="nonzero"/></g><g clip-path="url(#059f5d0062)"><path fill="#ffffff" d="M 79.082031 276.203125 L 79.082031 258.128906 L 97.15625 258.128906 L 97.15625 276.203125 Z M 79.082031 276.203125 " fill-opacity="1" fill-rule="nonzero"/></g><g clip-path="url(#89967b05d1)"><path fill="#ffffff" d="M 59.621094 176.835938 L 59.621094 158.761719 L 77.695312 158.761719 L 77.695312 176.835938 Z M 59.621094 176.835938 " fill-opacity="1" fill-rule="nonzero"/></g><g clip-path="url(#383d277471)"><path fill="#ffffff" d="M 59.4375 196.8125 L 59.4375 178.738281 L 77.511719 178.738281 L 77.511719 196.8125 Z M 59.4375 196.8125 " fill-opacity="1" fill-rule="nonzero"/></g><g clip-path="url(#7a5d7b7f44)"><path fill="#ffffff" d="M 59.621094 236.257812 L 59.621094 218.183594 L 77.695312 218.183594 L 77.695312 236.257812 Z M 59.621094 236.257812 " fill-opacity="1" fill-rule="nonzero"/></g><g clip-path="url(#6052d1eeef)"><path fill="#ffffff" d="M 59.976562 216.535156 L 59.976562 198.460938 L 78.050781 198.460938 L 78.050781 216.535156 Z M 59.976562 216.535156 " fill-opacity="1" fill-rule="nonzero"/></g><g clip-path="url(#149a7b3357)"><path fill="#ffffff" d="M 60.144531 156.863281 L 60.144531 138.789062 L 78.21875 138.789062 L 78.21875 156.863281 Z M 60.144531 156.863281 " fill-opacity="1" fill-rule="nonzero"/></g><g clip-path="url(#77d8a230a0)"><path fill="#ffffff" d="M 179.039062 216.089844 L 179.039062 198.015625 L 197.113281 198.015625 L 197.113281 216.089844 Z M 179.039062 216.089844 " fill-opacity="1" fill-rule="nonzero"/></g><g clip-path="url(#ad79ad5131)"><path fill="#ffffff" d="M 178.953125 195.714844 L 178.953125 177.640625 L 197.027344 177.640625 L 197.027344 195.714844 Z M 178.953125 195.714844 " fill-opacity="1" fill-rule="nonzero"/></g><g clip-path="url(#6c88bda85a)"><path fill="#ffffff" d="M 59 256.230469 L 59 238.160156 L 77.074219 238.160156 L 77.074219 256.230469 Z M 59 256.230469 " fill-opacity="1" fill-rule="nonzero"/></g><g clip-path="url(#4e96586ce9)"><path fill="#ffffff" d="M 59.621094 375.566406 L 59.621094 357.492188 L 77.695312 357.492188 L 77.695312 375.566406 Z M 59.621094 375.566406 " fill-opacity="1" fill-rule="nonzero"/></g><g clip-path="url(#f44ef8479c)"><path fill="#ffffff" d="M 60.0625 296.175781 L 60.0625 278.101562 L 78.136719 278.101562 L 78.136719 296.175781 Z M 60.0625 296.175781 " fill-opacity="1" fill-rule="nonzero"/></g><g clip-path="url(#62cbcebd93)"><path fill="#ffffff" d="M 60.246094 335.621094 L 60.246094 317.546875 L 78.320312 317.546875 L 78.320312 335.621094 Z M 60.246094 335.621094 " fill-opacity="1" fill-rule="nonzero"/></g><g clip-path="url(#064338aeab)"><path fill="#ffffff" d="M 60.597656 315.898438 L 60.597656 297.824219 L 78.671875 297.824219 L 78.671875 315.898438 Z M 60.597656 315.898438 " fill-opacity="1" fill-rule="nonzero"/></g><g clip-path="url(#01e82eee97)"><path fill="#ffffff" d="M 59.621094 355.597656 L 59.621094 337.523438 L 77.695312 337.523438 L 77.695312 355.597656 Z M 59.621094 355.597656 " fill-opacity="1" fill-rule="nonzero"/></g><g clip-path="url(#ffc0ef810f)"><path fill="#ffffff" d="M 237.613281 57.882812 L 237.613281 39.808594 L 255.6875 39.808594 L 255.6875 57.882812 Z M 237.613281 57.882812 " fill-opacity="1" fill-rule="nonzero"/></g><g clip-path="url(#3ed3735eed)"><path fill="#ffffff" d="M 237.90625 37.90625 L 237.90625 19.832031 L 255.980469 19.832031 L 255.980469 37.90625 Z M 237.90625 37.90625 " fill-opacity="1" fill-rule="nonzero"/></g><g clip-path="url(#2691b23eb1)"><path fill="#ffffff" d="M 237.613281 97.382812 L 237.613281 79.308594 L 255.6875 79.308594 L 255.6875 97.382812 Z M 237.613281 97.382812 " fill-opacity="1" fill-rule="nonzero"/></g><g clip-path="url(#af04ccaed0)"><path fill="#ffffff" d="M 178.246094 97.382812 L 178.246094 79.308594 L 196.320312 79.308594 L 196.320312 97.382812 Z M 178.246094 97.382812 " fill-opacity="1" fill-rule="nonzero"/></g><g clip-path="url(#ad6a0309bb)"><path fill="#ffffff" d="M 178.246094 117.359375 L 178.246094 99.285156 L 196.320312 99.285156 L 196.320312 117.359375 Z M 178.246094 117.359375 " fill-opacity="1" fill-rule="nonzero"/></g><g clip-path="url(#c80f1e8391)"><path fill="#ffffff" d="M 79.082031 196.457031 L 79.082031 178.386719 L 97.15625 178.386719 L 97.15625 196.457031 Z M 79.082031 196.457031 " fill-opacity="1" fill-rule="nonzero"/></g></svg>