<svg xmlns="http://www.w3.org/2000/svg" xmlns:xlink="http://www.w3.org/1999/xlink" width="500" zoomAndPan="magnify" viewBox="0 0 375 210.749996" height="281" preserveAspectRatio="xMidYMid meet" version="1.0"><defs><g/><clipPath id="8bdafd03f3"><path d="M 0.222656 0 L 374.777344 0 L 374.777344 43.429688 L 0.222656 43.429688 Z M 0.222656 0 " clip-rule="nonzero"/></clipPath><clipPath id="87230a8be2"><path d="M 0.222656 43.429688 L 374.777344 43.429688 L 374.777344 155.039062 L 0.222656 155.039062 Z M 0.222656 43.429688 " clip-rule="nonzero"/></clipPath><clipPath id="a6bd36fc71"><path d="M 0.222656 155.039062 L 374.777344 155.039062 L 374.777344 210.5 L 0.222656 210.5 Z M 0.222656 155.039062 " clip-rule="nonzero"/></clipPath><clipPath id="d26ecdcb39"><path d="M 254.136719 167.144531 L 351.507812 167.144531 L 351.507812 198.605469 L 254.136719 198.605469 Z M 254.136719 167.144531 " clip-rule="nonzero"/></clipPath><clipPath id="bc334a8f65"><path d="M 35.425781 78.335938 L 77.226562 78.335938 L 77.226562 120.136719 L 35.425781 120.136719 Z M 35.425781 78.335938 " clip-rule="nonzero"/></clipPath><clipPath id="76d2a56a67"><path d="M 56.328125 78.335938 C 44.785156 78.335938 35.425781 87.691406 35.425781 99.234375 C 35.425781 110.777344 44.785156 120.136719 56.328125 120.136719 C 67.871094 120.136719 77.226562 110.777344 77.226562 99.234375 C 77.226562 87.691406 67.871094 78.335938 56.328125 78.335938 " clip-rule="nonzero"/></clipPath><clipPath id="1254ce69fe"><path d="M 41.289062 85.601562 L 71.253906 85.601562 L 71.253906 112.570312 L 41.289062 112.570312 Z M 41.289062 85.601562 " clip-rule="nonzero"/></clipPath><clipPath id="6542a368f8"><path d="M 324.121094 10.105469 L 345.097656 10.105469 L 345.097656 31.082031 L 324.121094 31.082031 Z M 324.121094 10.105469 " clip-rule="nonzero"/></clipPath></defs><g clip-path="url(#8bdafd03f3)"><path fill="#d9d9d9" d="M 0.222656 0 L 374.535156 0 L 374.535156 43.441406 L 0.222656 43.441406 Z M 0.222656 0 " fill-opacity="1" fill-rule="nonzero"/></g><g clip-path="url(#87230a8be2)"><path fill="#ffffff" d="M 0.222656 43.429688 L 374.535156 43.429688 L 374.535156 155.308594 L 0.222656 155.308594 Z M 0.222656 43.429688 " fill-opacity="1" fill-rule="nonzero"/></g><g clip-path="url(#a6bd36fc71)"><path fill="#d9d9d9" d="M 0.222656 155.039062 L 374.535156 155.039062 L 374.535156 210.980469 L 0.222656 210.980469 Z M 0.222656 155.039062 " fill-opacity="1" fill-rule="nonzero"/></g><g clip-path="url(#d26ecdcb39)"><path stroke-linecap="butt" transform="matrix(0.75155, 0, 0, 0.748554, 254.135346, 167.142832)" fill="none" stroke-linejoin="miter" d="M 0.00182692 0.00227046 L 129.56216 0.00227046 L 129.56216 42.031198 L 0.00182692 42.031198 L 0.00182692 0.00227046 " stroke="#a6a6a6" stroke-width="4" stroke-opacity="1" stroke-miterlimit="4"/></g><g clip-path="url(#bc334a8f65)"><g clip-path="url(#76d2a56a67)"><path fill="#db3f2a" d="M 35.425781 78.335938 L 77.226562 78.335938 L 77.226562 120.136719 L 35.425781 120.136719 Z M 35.425781 78.335938 " fill-opacity="1" fill-rule="nonzero"/></g></g><path stroke-linecap="round" transform="matrix(0.0103609, 0, 0, 0.0103609, 8.518102, 52.339311)" fill="none" stroke-linejoin="round" d="M 3630.064842 3629.978359 L 5514.022539 5513.936056 " stroke="#ffffff" stroke-width="176.38" stroke-opacity="1" stroke-miterlimit="4"/><path stroke-linecap="round" transform="matrix(0.0103609, 0, 0, 0.0103609, 8.518102, 52.339311)" fill="none" stroke-linejoin="round" d="M 5514.022539 3629.978359 L 3630.064842 5513.936056 " stroke="#ffffff" stroke-width="176.38" stroke-opacity="1" stroke-miterlimit="4"/><g clip-path="url(#1254ce69fe)"><path stroke-linecap="round" transform="matrix(0.0103609, 0, 0, 0.0103609, 8.518102, 52.339311)" fill="none" stroke-linejoin="round" d="M 6689.186866 4572.145716 C 6689.186866 4641.516982 6685.416688 4710.511231 6678.630369 4779.505479 C 6671.844049 4848.499727 6661.66457 4917.116958 6648.468949 4984.980153 C 6634.89631 5052.843348 6617.930511 5120.329525 6597.94857 5186.684649 C 6577.589612 5253.039773 6554.214511 5318.263844 6527.823269 5381.979843 C 6501.432026 5446.072861 6471.647624 5508.657807 6438.84708 5570.111701 C 6406.423553 5631.188576 6370.606867 5690.380363 6332.151057 5748.064079 C 6293.695246 5805.747794 6252.600311 5861.546421 6208.489235 5915.082942 C 6164.378158 5968.619462 6118.004975 6019.893876 6068.992667 6068.906184 C 6019.98036 6117.918491 5968.705946 6164.291675 5915.169425 6208.402751 C 5861.255887 6252.513828 5805.834278 6293.608763 5748.150562 6332.064573 C 5690.466846 6370.897402 5631.275059 6406.33707 5569.821166 6439.137614 C 5508.744291 6471.561141 5446.159344 6501.345543 5382.066327 6527.736786 C 5317.973309 6554.505046 5252.749238 6577.880146 5186.394114 6597.862087 C 5120.03899 6617.844028 5052.929831 6634.809827 4985.066636 6648.382466 C 4916.826423 6661.955105 4848.58621 6672.134584 4779.591962 6678.920903 C 4710.597714 6685.707223 4641.226448 6689.100383 4571.855182 6689.100383 C 4502.483916 6689.100383 4433.489667 6685.707223 4364.495419 6678.920903 C 4295.501171 6672.134584 4226.88394 6661.955105 4159.020745 6648.382466 C 4091.15755 6634.809827 4023.671373 6617.844028 3957.316249 6597.862087 C 3890.961125 6577.880146 3825.737054 6554.505046 3762.021055 6527.736786 C 3697.928037 6501.345543 3635.343091 6471.561141 3573.889197 6439.137614 C 3512.812322 6406.33707 3453.620535 6370.897402 3395.936819 6332.064573 C 3338.253104 6293.608763 3282.454477 6252.513828 3228.917956 6208.402751 C 3175.381436 6164.291675 3124.107022 6117.918491 3075.094714 6068.906184 C 3026.082407 6019.893876 2979.709223 5968.619462 2935.598147 5915.082942 C 2891.48707 5861.546421 2850.392135 5805.747794 2811.936325 5748.064079 C 2773.103496 5690.380363 2737.663828 5631.188576 2704.863284 5570.111701 C 2672.439757 5508.657807 2642.655355 5446.072861 2616.264112 5381.979843 C 2589.495852 5318.263844 2566.120752 5253.039773 2546.138811 5186.684649 C 2526.15687 5120.329525 2509.191071 5052.843348 2495.618432 4984.980153 C 2482.045793 4917.116958 2471.866314 4848.499727 2465.079995 4779.505479 C 2458.293675 4710.511231 2454.900515 4641.516982 2454.900515 4572.145716 C 2454.900515 4502.77445 2458.293675 4433.403184 2465.079995 4364.408936 C 2471.866314 4295.414688 2482.045793 4227.174475 2495.618432 4158.934262 C 2509.191071 4091.071067 2526.15687 4023.961908 2546.138811 3957.606784 C 2566.120752 3891.25166 2589.495852 3826.027589 2616.264112 3761.934572 C 2642.655355 3697.841554 2672.439757 3635.256608 2704.863284 3574.179732 C 2737.663828 3512.725839 2773.103496 3453.534052 2811.936325 3395.850336 C 2850.392135 3338.166621 2891.48707 3282.745011 2935.598147 3228.831473 C 2979.709223 3175.294952 3026.082407 3124.020538 3075.094714 3075.008231 C 3124.107022 3025.995923 3175.381436 2979.62274 3228.917956 2935.511663 C 3282.454477 2891.400587 3338.253104 2850.305652 3395.936819 2811.849841 C 3453.620535 2773.394031 3512.812322 2737.577345 3573.889197 2705.153818 C 3635.343091 2672.353274 3697.928037 2642.568872 3762.021055 2616.177629 C 3825.737054 2589.786387 3890.961125 2566.411286 3957.316249 2546.052328 C 4023.671373 2526.070387 4091.15755 2509.104588 4159.020745 2495.531949 C 4226.88394 2482.336328 4295.501171 2472.156849 4364.495419 2465.370529 C 4433.489667 2458.58421 4502.483916 2454.814032 4571.855182 2454.814032 C 4641.226448 2454.814032 4710.597714 2458.58421 4779.591962 2465.370529 C 4848.58621 2472.156849 4916.826423 2482.336328 4985.066636 2495.531949 C 5052.929831 2509.104588 5120.03899 2526.070387 5186.394114 2546.052328 C 5252.749238 2566.411286 5317.973309 2589.786387 5382.066327 2616.177629 C 5446.159344 2642.568872 5508.744291 2672.353274 5569.821166 2705.153818 C 5631.275059 2737.577345 5690.466846 2773.394031 5748.150562 2811.849841 C 5805.834278 2850.305652 5861.255887 2891.400587 5915.169425 2935.511663 C 5968.705946 2979.62274 6019.98036 3025.995923 6068.992667 3075.008231 C 6118.004975 3124.020538 6164.378158 3175.294952 6208.489235 3228.831473 C 6252.600311 3282.745011 6293.695246 3338.166621 6332.151057 3395.850336 C 6370.606867 3453.534052 6406.423553 3512.725839 6438.84708 3574.179732 C 6471.647624 3635.256608 6501.432026 3697.841554 6527.823269 3761.934572 C 6554.214511 3826.027589 6577.589612 3891.25166 6597.94857 3957.606784 C 6617.930511 4023.961908 6634.89631 4091.071067 6648.468949 4158.934262 C 6661.66457 4227.174475 6671.844049 4295.414688 6678.630369 4364.408936 C 6685.416688 4433.403184 6689.186866 4502.77445 6689.186866 4572.145716 Z M 6689.186866 4572.145716 " stroke="#ffffff" stroke-width="176.38" stroke-opacity="1" stroke-miterlimit="4"/></g><g clip-path="url(#6542a368f8)"><path fill="#737373" d="M 344.957031 30.484375 C 345.09375 30.617188 345.09375 30.839844 344.957031 30.976562 C 344.890625 31.042969 344.800781 31.078125 344.710938 31.078125 C 344.621094 31.078125 344.535156 31.042969 344.464844 30.976562 L 334.609375 21.101562 L 324.75 30.976562 C 324.683594 31.042969 324.59375 31.078125 324.503906 31.078125 C 324.414062 31.078125 324.324219 31.042969 324.257812 30.976562 C 324.121094 30.839844 324.121094 30.617188 324.257812 30.484375 L 334.113281 20.609375 L 324.257812 10.734375 C 324.121094 10.597656 324.121094 10.378906 324.257812 10.242188 C 324.394531 10.105469 324.613281 10.105469 324.75 10.242188 L 334.609375 20.113281 L 344.464844 10.242188 C 344.601562 10.105469 344.820312 10.105469 344.957031 10.242188 C 345.09375 10.378906 345.09375 10.597656 344.957031 10.734375 L 335.101562 20.609375 Z M 344.957031 30.484375 " fill-opacity="1" fill-rule="nonzero"/></g><g fill="#000000" fill-opacity="1"><g transform="translate(35.647096, 25.23582)"><g><path d="M 6.09375 -11.390625 C 7.226562 -11.390625 8.175781 -11.097656 8.9375 -10.515625 C 9.695312 -9.929688 10.222656 -9.132812 10.515625 -8.125 L 9.046875 -7.78125 C 8.804688 -8.53125 8.445312 -9.109375 7.96875 -9.515625 C 7.488281 -9.921875 6.851562 -10.125 6.0625 -10.125 C 4.894531 -10.125 3.976562 -9.738281 3.3125 -8.96875 C 2.65625 -8.195312 2.328125 -7.101562 2.328125 -5.6875 C 2.328125 -4.195312 2.648438 -3.054688 3.296875 -2.265625 C 3.941406 -1.472656 4.835938 -1.078125 5.984375 -1.078125 C 6.796875 -1.078125 7.488281 -1.316406 8.0625 -1.796875 C 8.632812 -2.285156 9.019531 -3 9.21875 -3.9375 L 10.703125 -3.546875 C 10.390625 -2.367188 9.832031 -1.453125 9.03125 -0.796875 C 8.226562 -0.140625 7.226562 0.1875 6.03125 0.1875 C 5.207031 0.1875 4.5 0.078125 3.90625 -0.140625 C 3.320312 -0.359375 2.828125 -0.679688 2.421875 -1.109375 C 1.859375 -1.703125 1.445312 -2.394531 1.1875 -3.1875 C 0.925781 -3.988281 0.796875 -4.820312 0.796875 -5.6875 C 0.796875 -6.84375 1.015625 -7.847656 1.453125 -8.703125 C 1.898438 -9.566406 2.523438 -10.226562 3.328125 -10.6875 C 4.128906 -11.15625 5.050781 -11.390625 6.09375 -11.390625 Z M 6.09375 -11.390625 "/></g></g></g><g fill="#000000" fill-opacity="1"><g transform="translate(46.945343, 25.23582)"><g><path d="M 2.96875 -6.546875 L 1.40625 -6.546875 L 1.40625 -8.109375 L 2.96875 -8.109375 Z M 2.96875 0 L 1.40625 0 L 1.40625 -1.5625 L 2.96875 -1.5625 Z M 2.96875 0 "/></g></g></g><g fill="#000000" fill-opacity="1"><g transform="translate(51.295638, 25.23582)"><g><path d="M 4.359375 0.1875 L 3.234375 0.1875 L 0 -11.390625 L 1.109375 -11.390625 Z M 4.359375 0.1875 "/></g></g></g><g fill="#000000" fill-opacity="1"><g transform="translate(55.645933, 25.23582)"><g><path d="M 2.71875 -4.59375 C 2.71875 -3.625 2.820312 -2.925781 3.03125 -2.5 C 3.226562 -2.09375 3.535156 -1.765625 3.953125 -1.515625 C 4.378906 -1.265625 4.921875 -1.140625 5.578125 -1.140625 C 6.484375 -1.140625 7.15625 -1.316406 7.59375 -1.671875 C 8.03125 -2.035156 8.300781 -2.445312 8.40625 -2.90625 C 8.507812 -3.375 8.5625 -3.929688 8.5625 -4.578125 L 8.5625 -11.203125 L 10.046875 -11.203125 L 10.046875 -4.609375 C 10.046875 -4.035156 10.007812 -3.484375 9.9375 -2.953125 C 9.875 -2.429688 9.679688 -1.9375 9.359375 -1.46875 C 9.003906 -0.957031 8.535156 -0.550781 7.953125 -0.25 C 7.367188 0.0390625 6.601562 0.1875 5.65625 0.1875 C 4.738281 0.1875 3.992188 0.0507812 3.421875 -0.21875 C 2.847656 -0.488281 2.375 -0.863281 2 -1.34375 C 1.664062 -1.757812 1.453125 -2.25 1.359375 -2.8125 C 1.273438 -3.375 1.234375 -3.96875 1.234375 -4.59375 L 1.234375 -11.203125 L 2.71875 -11.203125 Z M 2.71875 -4.59375 "/></g></g></g><g fill="#000000" fill-opacity="1"><g transform="translate(66.94418, 25.23582)"><g><path d="M 3.71875 -8.296875 C 4.644531 -8.296875 5.390625 -8.101562 5.953125 -7.71875 C 6.515625 -7.34375 6.835938 -6.78125 6.921875 -6.03125 L 5.578125 -5.84375 C 5.515625 -6.25 5.34375 -6.570312 5.0625 -6.8125 C 4.78125 -7.050781 4.359375 -7.171875 3.796875 -7.171875 C 3.242188 -7.171875 2.8125 -7.078125 2.5 -6.890625 C 2.195312 -6.703125 2.046875 -6.441406 2.046875 -6.109375 C 2.046875 -5.878906 2.132812 -5.6875 2.3125 -5.53125 C 2.5 -5.382812 2.71875 -5.269531 2.96875 -5.1875 C 3.21875 -5.113281 3.601562 -5.015625 4.125 -4.890625 C 4.78125 -4.734375 5.3125 -4.578125 5.71875 -4.421875 C 6.132812 -4.265625 6.488281 -4.019531 6.78125 -3.6875 C 7.082031 -3.363281 7.234375 -2.929688 7.234375 -2.390625 C 7.234375 -1.921875 7.101562 -1.488281 6.84375 -1.09375 C 6.582031 -0.707031 6.207031 -0.398438 5.71875 -0.171875 C 5.238281 0.0546875 4.6875 0.171875 4.0625 0.171875 C 2.96875 0.171875 2.132812 -0.0390625 1.5625 -0.46875 C 0.988281 -0.894531 0.628906 -1.546875 0.484375 -2.421875 L 1.84375 -2.625 C 1.914062 -2.070312 2.132812 -1.65625 2.5 -1.375 C 2.875 -1.09375 3.359375 -0.953125 3.953125 -0.953125 C 4.546875 -0.953125 5.003906 -1.070312 5.328125 -1.3125 C 5.660156 -1.5625 5.828125 -1.867188 5.828125 -2.234375 C 5.828125 -2.578125 5.660156 -2.832031 5.328125 -3 C 5.003906 -3.164062 4.5 -3.328125 3.8125 -3.484375 C 3.144531 -3.640625 2.609375 -3.796875 2.203125 -3.953125 C 1.804688 -4.109375 1.457031 -4.347656 1.15625 -4.671875 C 0.863281 -4.992188 0.71875 -5.425781 0.71875 -5.96875 C 0.71875 -6.40625 0.832031 -6.800781 1.0625 -7.15625 C 1.300781 -7.507812 1.644531 -7.785156 2.09375 -7.984375 C 2.550781 -8.191406 3.09375 -8.296875 3.71875 -8.296875 Z M 3.71875 -8.296875 "/></g></g></g><g fill="#000000" fill-opacity="1"><g transform="translate(74.768451, 25.23582)"><g><path d="M 4.40625 -8.296875 C 5.1875 -8.296875 5.851562 -8.109375 6.40625 -7.734375 C 6.96875 -7.367188 7.390625 -6.875 7.671875 -6.25 C 7.953125 -5.625 8.09375 -4.925781 8.09375 -4.15625 L 8.09375 -3.703125 L 2.03125 -3.703125 C 2.070312 -2.835938 2.316406 -2.160156 2.765625 -1.671875 C 3.210938 -1.191406 3.789062 -0.953125 4.5 -0.953125 C 5.03125 -0.953125 5.46875 -1.09375 5.8125 -1.375 C 6.164062 -1.65625 6.4375 -2.066406 6.625 -2.609375 L 8.046875 -2.4375 C 7.828125 -1.625 7.410156 -0.984375 6.796875 -0.515625 C 6.191406 -0.0546875 5.445312 0.171875 4.5625 0.171875 C 3.3125 0.171875 2.335938 -0.191406 1.640625 -0.921875 C 0.953125 -1.648438 0.609375 -2.675781 0.609375 -4 C 0.609375 -4.875 0.765625 -5.632812 1.078125 -6.28125 C 1.390625 -6.925781 1.828125 -7.421875 2.390625 -7.765625 C 2.960938 -8.117188 3.632812 -8.296875 4.40625 -8.296875 Z M 2.109375 -4.859375 L 6.640625 -4.859375 C 6.609375 -5.628906 6.367188 -6.207031 5.921875 -6.59375 C 5.484375 -6.976562 4.976562 -7.171875 4.40625 -7.171875 C 3.75 -7.171875 3.210938 -6.953125 2.796875 -6.515625 C 2.390625 -6.078125 2.160156 -5.523438 2.109375 -4.859375 Z M 2.109375 -4.859375 "/></g></g></g><g fill="#000000" fill-opacity="1"><g transform="translate(83.469042, 25.23582)"><g><path d="M 4.03125 -8.296875 C 4.5 -8.296875 4.960938 -8.148438 5.421875 -7.859375 L 4.953125 -6.59375 C 4.617188 -6.789062 4.265625 -6.890625 3.890625 -6.890625 C 3.367188 -6.890625 2.984375 -6.648438 2.734375 -6.171875 C 2.492188 -5.703125 2.375 -5.09375 2.375 -4.34375 L 2.375 0 L 1 0 L 1 -8.109375 L 2.234375 -8.109375 L 2.234375 -6.890625 C 2.492188 -7.359375 2.75 -7.707031 3 -7.9375 C 3.257812 -8.175781 3.601562 -8.296875 4.03125 -8.296875 Z M 4.03125 -8.296875 "/></g></g></g><g fill="#000000" fill-opacity="1"><g transform="translate(88.680008, 25.23582)"><g><path d="M 3.71875 -8.296875 C 4.644531 -8.296875 5.390625 -8.101562 5.953125 -7.71875 C 6.515625 -7.34375 6.835938 -6.78125 6.921875 -6.03125 L 5.578125 -5.84375 C 5.515625 -6.25 5.34375 -6.570312 5.0625 -6.8125 C 4.78125 -7.050781 4.359375 -7.171875 3.796875 -7.171875 C 3.242188 -7.171875 2.8125 -7.078125 2.5 -6.890625 C 2.195312 -6.703125 2.046875 -6.441406 2.046875 -6.109375 C 2.046875 -5.878906 2.132812 -5.6875 2.3125 -5.53125 C 2.5 -5.382812 2.71875 -5.269531 2.96875 -5.1875 C 3.21875 -5.113281 3.601562 -5.015625 4.125 -4.890625 C 4.78125 -4.734375 5.3125 -4.578125 5.71875 -4.421875 C 6.132812 -4.265625 6.488281 -4.019531 6.78125 -3.6875 C 7.082031 -3.363281 7.234375 -2.929688 7.234375 -2.390625 C 7.234375 -1.921875 7.101562 -1.488281 6.84375 -1.09375 C 6.582031 -0.707031 6.207031 -0.398438 5.71875 -0.171875 C 5.238281 0.0546875 4.6875 0.171875 4.0625 0.171875 C 2.96875 0.171875 2.132812 -0.0390625 1.5625 -0.46875 C 0.988281 -0.894531 0.628906 -1.546875 0.484375 -2.421875 L 1.84375 -2.625 C 1.914062 -2.070312 2.132812 -1.65625 2.5 -1.375 C 2.875 -1.09375 3.359375 -0.953125 3.953125 -0.953125 C 4.546875 -0.953125 5.003906 -1.070312 5.328125 -1.3125 C 5.660156 -1.5625 5.828125 -1.867188 5.828125 -2.234375 C 5.828125 -2.578125 5.660156 -2.832031 5.328125 -3 C 5.003906 -3.164062 4.5 -3.328125 3.8125 -3.484375 C 3.144531 -3.640625 2.609375 -3.796875 2.203125 -3.953125 C 1.804688 -4.109375 1.457031 -4.347656 1.15625 -4.671875 C 0.863281 -4.992188 0.71875 -5.425781 0.71875 -5.96875 C 0.71875 -6.40625 0.832031 -6.800781 1.0625 -7.15625 C 1.300781 -7.507812 1.644531 -7.785156 2.09375 -7.984375 C 2.550781 -8.191406 3.09375 -8.296875 3.71875 -8.296875 Z M 3.71875 -8.296875 "/></g></g></g><g fill="#000000" fill-opacity="1"><g transform="translate(96.504279, 25.23582)"><g><path d="M 4.359375 0.1875 L 3.234375 0.1875 L 0 -11.390625 L 1.109375 -11.390625 Z M 4.359375 0.1875 "/></g></g></g><g fill="#000000" fill-opacity="1"><g transform="translate(100.854574, 25.23582)"><g><path d="M 6.578125 -11.203125 L 6.578125 -3.453125 C 6.578125 -2.796875 6.515625 -2.253906 6.390625 -1.828125 C 6.265625 -1.410156 6.078125 -1.0625 5.828125 -0.78125 C 5.535156 -0.457031 5.179688 -0.210938 4.765625 -0.046875 C 4.347656 0.109375 3.894531 0.1875 3.40625 0.1875 C 2.4375 0.1875 1.691406 -0.0859375 1.171875 -0.640625 C 0.660156 -1.203125 0.40625 -2.003906 0.40625 -3.046875 L 0.40625 -3.171875 L 1.734375 -3.359375 L 1.734375 -3.296875 C 1.773438 -2.578125 1.914062 -2.035156 2.15625 -1.671875 C 2.40625 -1.316406 2.835938 -1.140625 3.453125 -1.140625 C 3.960938 -1.140625 4.367188 -1.300781 4.671875 -1.625 C 4.835938 -1.800781 4.945312 -2.019531 5 -2.28125 C 5.0625 -2.550781 5.09375 -2.867188 5.09375 -3.234375 L 5.09375 -11.203125 Z M 6.578125 -11.203125 "/></g></g></g><g fill="#000000" fill-opacity="1"><g transform="translate(108.678845, 25.23582)"><g><path d="M 4.359375 -8.296875 C 4.972656 -8.296875 5.566406 -8.160156 6.140625 -7.890625 C 6.722656 -7.617188 7.203125 -7.164062 7.578125 -6.53125 C 7.960938 -5.90625 8.15625 -5.082031 8.15625 -4.0625 C 8.15625 -3.144531 7.992188 -2.367188 7.671875 -1.734375 C 7.347656 -1.109375 6.898438 -0.632812 6.328125 -0.3125 C 5.753906 0.0078125 5.097656 0.171875 4.359375 0.171875 C 3.265625 0.171875 2.375 -0.164062 1.6875 -0.84375 C 0.925781 -1.582031 0.546875 -2.65625 0.546875 -4.0625 C 0.546875 -4.96875 0.707031 -5.738281 1.03125 -6.375 C 1.351562 -7.007812 1.800781 -7.488281 2.375 -7.8125 C 2.945312 -8.132812 3.609375 -8.296875 4.359375 -8.296875 Z M 1.953125 -4.0625 C 1.953125 -3.070312 2.164062 -2.304688 2.59375 -1.765625 C 3.03125 -1.222656 3.617188 -0.953125 4.359375 -0.953125 C 5.078125 -0.953125 5.65625 -1.21875 6.09375 -1.75 C 6.53125 -2.289062 6.75 -3.0625 6.75 -4.0625 C 6.75 -5.019531 6.535156 -5.773438 6.109375 -6.328125 C 5.679688 -6.890625 5.09375 -7.171875 4.34375 -7.171875 C 3.625 -7.171875 3.046875 -6.894531 2.609375 -6.34375 C 2.171875 -5.800781 1.953125 -5.039062 1.953125 -4.0625 Z M 1.953125 -4.0625 "/></g></g></g><g fill="#000000" fill-opacity="1"><g transform="translate(117.379441, 25.23582)"><g><path d="M 4.078125 -8.296875 C 5.015625 -8.296875 5.796875 -7.910156 6.421875 -7.140625 L 6.421875 -8.109375 L 7.6875 -8.109375 L 7.6875 -0.96875 C 7.6875 0.21875 7.535156 1.097656 7.234375 1.671875 C 6.972656 2.160156 6.578125 2.550781 6.046875 2.84375 C 5.523438 3.132812 4.851562 3.28125 4.03125 3.28125 C 3.332031 3.28125 2.738281 3.171875 2.25 2.953125 C 1.769531 2.734375 1.40625 2.441406 1.15625 2.078125 C 0.914062 1.722656 0.796875 1.332031 0.796875 0.90625 L 0.8125 0.671875 L 2.140625 0.875 L 2.140625 0.90625 C 2.210938 1.332031 2.398438 1.644531 2.703125 1.84375 C 3.015625 2.050781 3.476562 2.15625 4.09375 2.15625 C 4.5 2.15625 4.851562 2.085938 5.15625 1.953125 C 5.46875 1.816406 5.710938 1.628906 5.890625 1.390625 C 6.046875 1.171875 6.148438 0.910156 6.203125 0.609375 C 6.265625 0.316406 6.296875 -0.0390625 6.296875 -0.46875 L 6.296875 -1.0625 C 5.679688 -0.351562 4.941406 0 4.078125 0 C 3.367188 0 2.75 -0.171875 2.21875 -0.515625 C 1.6875 -0.867188 1.269531 -1.359375 0.96875 -1.984375 C 0.675781 -2.609375 0.53125 -3.320312 0.53125 -4.125 C 0.53125 -4.957031 0.675781 -5.6875 0.96875 -6.3125 C 1.257812 -6.945312 1.671875 -7.4375 2.203125 -7.78125 C 2.742188 -8.125 3.367188 -8.296875 4.078125 -8.296875 Z M 1.9375 -4.21875 C 1.9375 -3.207031 2.140625 -2.4375 2.546875 -1.90625 C 2.953125 -1.382812 3.507812 -1.125 4.21875 -1.125 C 4.507812 -1.125 4.84375 -1.21875 5.21875 -1.40625 C 5.601562 -1.601562 5.910156 -1.960938 6.140625 -2.484375 C 6.316406 -2.898438 6.40625 -3.445312 6.40625 -4.125 C 6.40625 -5.09375 6.195312 -5.84375 5.78125 -6.375 C 5.363281 -6.90625 4.816406 -7.171875 4.140625 -7.171875 C 3.492188 -7.171875 2.960938 -6.90625 2.546875 -6.375 C 2.140625 -5.851562 1.9375 -5.132812 1.9375 -4.21875 Z M 1.9375 -4.21875 "/></g></g></g><g fill="#000000" fill-opacity="1"><g transform="translate(126.080031, 25.23582)"><g><path d="M 4.453125 -8.296875 C 5.117188 -8.296875 5.65625 -8.226562 6.0625 -8.09375 C 6.476562 -7.96875 6.804688 -7.78125 7.046875 -7.53125 C 7.273438 -7.289062 7.429688 -7.023438 7.515625 -6.734375 C 7.597656 -6.441406 7.640625 -6.054688 7.640625 -5.578125 L 7.640625 -2.296875 C 7.640625 -1.242188 7.785156 -0.476562 8.078125 0 L 6.640625 0 C 6.503906 -0.28125 6.410156 -0.613281 6.359375 -1 C 5.859375 -0.582031 5.367188 -0.28125 4.890625 -0.09375 C 4.421875 0.09375 3.925781 0.1875 3.40625 0.1875 C 2.53125 0.1875 1.84375 -0.0234375 1.34375 -0.453125 C 0.84375 -0.878906 0.59375 -1.441406 0.59375 -2.140625 C 0.59375 -2.503906 0.675781 -2.851562 0.84375 -3.1875 C 1.007812 -3.53125 1.238281 -3.800781 1.53125 -4 C 1.84375 -4.207031 2.160156 -4.359375 2.484375 -4.453125 C 2.804688 -4.546875 3.203125 -4.617188 3.671875 -4.671875 C 4.179688 -4.722656 4.679688 -4.789062 5.171875 -4.875 C 5.671875 -4.96875 6.035156 -5.0625 6.265625 -5.15625 L 6.265625 -5.5 C 6.265625 -6.050781 6.113281 -6.46875 5.8125 -6.75 C 5.519531 -7.03125 5.015625 -7.171875 4.296875 -7.171875 C 3.609375 -7.171875 3.113281 -7.050781 2.8125 -6.8125 C 2.519531 -6.570312 2.304688 -6.175781 2.171875 -5.625 L 0.828125 -5.796875 C 1.015625 -6.671875 1.40625 -7.304688 2 -7.703125 C 2.601562 -8.097656 3.421875 -8.296875 4.453125 -8.296875 Z M 4.296875 -3.59375 C 3.753906 -3.507812 3.335938 -3.425781 3.046875 -3.34375 C 2.765625 -3.269531 2.53125 -3.140625 2.34375 -2.953125 C 2.15625 -2.773438 2.0625 -2.515625 2.0625 -2.171875 C 2.0625 -1.765625 2.207031 -1.445312 2.5 -1.21875 C 2.800781 -1 3.222656 -0.890625 3.765625 -0.890625 C 4.085938 -0.890625 4.429688 -0.953125 4.796875 -1.078125 C 5.160156 -1.210938 5.476562 -1.441406 5.75 -1.765625 C 5.925781 -1.972656 6.054688 -2.207031 6.140625 -2.46875 C 6.222656 -2.726562 6.265625 -3.0625 6.265625 -3.46875 L 6.265625 -4.078125 C 5.847656 -3.898438 5.191406 -3.738281 4.296875 -3.59375 Z M 4.296875 -3.59375 "/></g></g></g><g fill="#000000" fill-opacity="1"><g transform="translate(134.780622, 25.23582)"><g><path d="M 7.609375 -11.203125 L 7.609375 0 L 6.328125 0 L 6.328125 -1.03125 C 6.171875 -0.757812 5.90625 -0.488281 5.53125 -0.21875 C 5.164062 0.0390625 4.679688 0.171875 4.078125 0.171875 C 3.410156 0.171875 2.8125 0 2.28125 -0.34375 C 1.75 -0.695312 1.328125 -1.195312 1.015625 -1.84375 C 0.710938 -2.488281 0.5625 -3.242188 0.5625 -4.109375 C 0.5625 -4.960938 0.703125 -5.703125 0.984375 -6.328125 C 1.273438 -6.960938 1.679688 -7.445312 2.203125 -7.78125 C 2.734375 -8.125 3.351562 -8.296875 4.0625 -8.296875 C 4.570312 -8.296875 5.015625 -8.175781 5.390625 -7.9375 C 5.773438 -7.695312 6.054688 -7.445312 6.234375 -7.1875 L 6.234375 -11.203125 Z M 1.96875 -4.0625 C 1.96875 -3.382812 2.066406 -2.8125 2.265625 -2.34375 C 2.460938 -1.882812 2.726562 -1.535156 3.0625 -1.296875 C 3.40625 -1.066406 3.785156 -0.953125 4.203125 -0.953125 C 4.835938 -0.953125 5.351562 -1.207031 5.75 -1.71875 C 6.15625 -2.226562 6.359375 -2.96875 6.359375 -3.9375 C 6.359375 -4.914062 6.164062 -5.695312 5.78125 -6.28125 C 5.394531 -6.875 4.847656 -7.171875 4.140625 -7.171875 C 3.453125 -7.171875 2.914062 -6.894531 2.53125 -6.34375 C 2.15625 -5.789062 1.96875 -5.03125 1.96875 -4.0625 Z M 1.96875 -4.0625 "/></g></g></g><g fill="#000000" fill-opacity="1"><g transform="translate(143.481213, 25.23582)"><g><path d="M 4.359375 -8.296875 C 4.972656 -8.296875 5.566406 -8.160156 6.140625 -7.890625 C 6.722656 -7.617188 7.203125 -7.164062 7.578125 -6.53125 C 7.960938 -5.90625 8.15625 -5.082031 8.15625 -4.0625 C 8.15625 -3.144531 7.992188 -2.367188 7.671875 -1.734375 C 7.347656 -1.109375 6.898438 -0.632812 6.328125 -0.3125 C 5.753906 0.0078125 5.097656 0.171875 4.359375 0.171875 C 3.265625 0.171875 2.375 -0.164062 1.6875 -0.84375 C 0.925781 -1.582031 0.546875 -2.65625 0.546875 -4.0625 C 0.546875 -4.96875 0.707031 -5.738281 1.03125 -6.375 C 1.351562 -7.007812 1.800781 -7.488281 2.375 -7.8125 C 2.945312 -8.132812 3.609375 -8.296875 4.359375 -8.296875 Z M 1.953125 -4.0625 C 1.953125 -3.070312 2.164062 -2.304688 2.59375 -1.765625 C 3.03125 -1.222656 3.617188 -0.953125 4.359375 -0.953125 C 5.078125 -0.953125 5.65625 -1.21875 6.09375 -1.75 C 6.53125 -2.289062 6.75 -3.0625 6.75 -4.0625 C 6.75 -5.019531 6.535156 -5.773438 6.109375 -6.328125 C 5.679688 -6.890625 5.09375 -7.171875 4.34375 -7.171875 C 3.625 -7.171875 3.046875 -6.894531 2.609375 -6.34375 C 2.171875 -5.800781 1.953125 -5.039062 1.953125 -4.0625 Z M 1.953125 -4.0625 "/></g></g></g><g fill="#000000" fill-opacity="1"><g transform="translate(152.181803, 25.23582)"><g><path d="M 4.03125 -8.296875 C 4.5 -8.296875 4.960938 -8.148438 5.421875 -7.859375 L 4.953125 -6.59375 C 4.617188 -6.789062 4.265625 -6.890625 3.890625 -6.890625 C 3.367188 -6.890625 2.984375 -6.648438 2.734375 -6.171875 C 2.492188 -5.703125 2.375 -5.09375 2.375 -4.34375 L 2.375 0 L 1 0 L 1 -8.109375 L 2.234375 -8.109375 L 2.234375 -6.890625 C 2.492188 -7.359375 2.75 -7.707031 3 -7.9375 C 3.257812 -8.175781 3.601562 -8.296875 4.03125 -8.296875 Z M 4.03125 -8.296875 "/></g></g></g><g fill="#000000" fill-opacity="1"><g transform="translate(157.392769, 25.23582)"><g><path d="M 8.265625 -4.90625 L 0.875 -1.71875 L 0.875 -3.09375 L 6.734375 -5.53125 L 0.875 -7.953125 L 0.875 -9.3125 L 8.265625 -6.1875 Z M 8.265625 -4.90625 "/></g></g></g><g fill="#000000" fill-opacity="1"><g transform="translate(166.531513, 25.23582)"><g/></g></g><g fill="#000000" fill-opacity="1"><g transform="translate(170.881808, 25.23582)"><g><path d="M 6.578125 -11.203125 L 6.578125 -3.453125 C 6.578125 -2.796875 6.515625 -2.253906 6.390625 -1.828125 C 6.265625 -1.410156 6.078125 -1.0625 5.828125 -0.78125 C 5.535156 -0.457031 5.179688 -0.210938 4.765625 -0.046875 C 4.347656 0.109375 3.894531 0.1875 3.40625 0.1875 C 2.4375 0.1875 1.691406 -0.0859375 1.171875 -0.640625 C 0.660156 -1.203125 0.40625 -2.003906 0.40625 -3.046875 L 0.40625 -3.171875 L 1.734375 -3.359375 L 1.734375 -3.296875 C 1.773438 -2.578125 1.914062 -2.035156 2.15625 -1.671875 C 2.40625 -1.316406 2.835938 -1.140625 3.453125 -1.140625 C 3.960938 -1.140625 4.367188 -1.300781 4.671875 -1.625 C 4.835938 -1.800781 4.945312 -2.019531 5 -2.28125 C 5.0625 -2.550781 5.09375 -2.867188 5.09375 -3.234375 L 5.09375 -11.203125 Z M 6.578125 -11.203125 "/></g></g></g><g fill="#000000" fill-opacity="1"><g transform="translate(178.706075, 25.23582)"><g><path d="M 4.359375 -8.296875 C 4.972656 -8.296875 5.566406 -8.160156 6.140625 -7.890625 C 6.722656 -7.617188 7.203125 -7.164062 7.578125 -6.53125 C 7.960938 -5.90625 8.15625 -5.082031 8.15625 -4.0625 C 8.15625 -3.144531 7.992188 -2.367188 7.671875 -1.734375 C 7.347656 -1.109375 6.898438 -0.632812 6.328125 -0.3125 C 5.753906 0.0078125 5.097656 0.171875 4.359375 0.171875 C 3.265625 0.171875 2.375 -0.164062 1.6875 -0.84375 C 0.925781 -1.582031 0.546875 -2.65625 0.546875 -4.0625 C 0.546875 -4.96875 0.707031 -5.738281 1.03125 -6.375 C 1.351562 -7.007812 1.800781 -7.488281 2.375 -7.8125 C 2.945312 -8.132812 3.609375 -8.296875 4.359375 -8.296875 Z M 1.953125 -4.0625 C 1.953125 -3.070312 2.164062 -2.304688 2.59375 -1.765625 C 3.03125 -1.222656 3.617188 -0.953125 4.359375 -0.953125 C 5.078125 -0.953125 5.65625 -1.21875 6.09375 -1.75 C 6.53125 -2.289062 6.75 -3.0625 6.75 -4.0625 C 6.75 -5.019531 6.535156 -5.773438 6.109375 -6.328125 C 5.679688 -6.890625 5.09375 -7.171875 4.34375 -7.171875 C 3.625 -7.171875 3.046875 -6.894531 2.609375 -6.34375 C 2.171875 -5.800781 1.953125 -5.039062 1.953125 -4.0625 Z M 1.953125 -4.0625 "/></g></g></g><g fill="#000000" fill-opacity="1"><g transform="translate(187.406665, 25.23582)"><g><path d="M 4.078125 -8.296875 C 5.015625 -8.296875 5.796875 -7.910156 6.421875 -7.140625 L 6.421875 -8.109375 L 7.6875 -8.109375 L 7.6875 -0.96875 C 7.6875 0.21875 7.535156 1.097656 7.234375 1.671875 C 6.972656 2.160156 6.578125 2.550781 6.046875 2.84375 C 5.523438 3.132812 4.851562 3.28125 4.03125 3.28125 C 3.332031 3.28125 2.738281 3.171875 2.25 2.953125 C 1.769531 2.734375 1.40625 2.441406 1.15625 2.078125 C 0.914062 1.722656 0.796875 1.332031 0.796875 0.90625 L 0.8125 0.671875 L 2.140625 0.875 L 2.140625 0.90625 C 2.210938 1.332031 2.398438 1.644531 2.703125 1.84375 C 3.015625 2.050781 3.476562 2.15625 4.09375 2.15625 C 4.5 2.15625 4.851562 2.085938 5.15625 1.953125 C 5.46875 1.816406 5.710938 1.628906 5.890625 1.390625 C 6.046875 1.171875 6.148438 0.910156 6.203125 0.609375 C 6.265625 0.316406 6.296875 -0.0390625 6.296875 -0.46875 L 6.296875 -1.0625 C 5.679688 -0.351562 4.941406 0 4.078125 0 C 3.367188 0 2.75 -0.171875 2.21875 -0.515625 C 1.6875 -0.867188 1.269531 -1.359375 0.96875 -1.984375 C 0.675781 -2.609375 0.53125 -3.320312 0.53125 -4.125 C 0.53125 -4.957031 0.675781 -5.6875 0.96875 -6.3125 C 1.257812 -6.945312 1.671875 -7.4375 2.203125 -7.78125 C 2.742188 -8.125 3.367188 -8.296875 4.078125 -8.296875 Z M 1.9375 -4.21875 C 1.9375 -3.207031 2.140625 -2.4375 2.546875 -1.90625 C 2.953125 -1.382812 3.507812 -1.125 4.21875 -1.125 C 4.507812 -1.125 4.84375 -1.21875 5.21875 -1.40625 C 5.601562 -1.601562 5.910156 -1.960938 6.140625 -2.484375 C 6.316406 -2.898438 6.40625 -3.445312 6.40625 -4.125 C 6.40625 -5.09375 6.195312 -5.84375 5.78125 -6.375 C 5.363281 -6.90625 4.816406 -7.171875 4.140625 -7.171875 C 3.492188 -7.171875 2.960938 -6.90625 2.546875 -6.375 C 2.140625 -5.851562 1.9375 -5.132812 1.9375 -4.21875 Z M 1.9375 -4.21875 "/></g></g></g><g fill="#000000" fill-opacity="1"><g transform="translate(196.107256, 25.23582)"><g><path d="M 4.453125 -8.296875 C 5.117188 -8.296875 5.65625 -8.226562 6.0625 -8.09375 C 6.476562 -7.96875 6.804688 -7.78125 7.046875 -7.53125 C 7.273438 -7.289062 7.429688 -7.023438 7.515625 -6.734375 C 7.597656 -6.441406 7.640625 -6.054688 7.640625 -5.578125 L 7.640625 -2.296875 C 7.640625 -1.242188 7.785156 -0.476562 8.078125 0 L 6.640625 0 C 6.503906 -0.28125 6.410156 -0.613281 6.359375 -1 C 5.859375 -0.582031 5.367188 -0.28125 4.890625 -0.09375 C 4.421875 0.09375 3.925781 0.1875 3.40625 0.1875 C 2.53125 0.1875 1.84375 -0.0234375 1.34375 -0.453125 C 0.84375 -0.878906 0.59375 -1.441406 0.59375 -2.140625 C 0.59375 -2.503906 0.675781 -2.851562 0.84375 -3.1875 C 1.007812 -3.53125 1.238281 -3.800781 1.53125 -4 C 1.84375 -4.207031 2.160156 -4.359375 2.484375 -4.453125 C 2.804688 -4.546875 3.203125 -4.617188 3.671875 -4.671875 C 4.179688 -4.722656 4.679688 -4.789062 5.171875 -4.875 C 5.671875 -4.96875 6.035156 -5.0625 6.265625 -5.15625 L 6.265625 -5.5 C 6.265625 -6.050781 6.113281 -6.46875 5.8125 -6.75 C 5.519531 -7.03125 5.015625 -7.171875 4.296875 -7.171875 C 3.609375 -7.171875 3.113281 -7.050781 2.8125 -6.8125 C 2.519531 -6.570312 2.304688 -6.175781 2.171875 -5.625 L 0.828125 -5.796875 C 1.015625 -6.671875 1.40625 -7.304688 2 -7.703125 C 2.601562 -8.097656 3.421875 -8.296875 4.453125 -8.296875 Z M 4.296875 -3.59375 C 3.753906 -3.507812 3.335938 -3.425781 3.046875 -3.34375 C 2.765625 -3.269531 2.53125 -3.140625 2.34375 -2.953125 C 2.15625 -2.773438 2.0625 -2.515625 2.0625 -2.171875 C 2.0625 -1.765625 2.207031 -1.445312 2.5 -1.21875 C 2.800781 -1 3.222656 -0.890625 3.765625 -0.890625 C 4.085938 -0.890625 4.429688 -0.953125 4.796875 -1.078125 C 5.160156 -1.210938 5.476562 -1.441406 5.75 -1.765625 C 5.925781 -1.972656 6.054688 -2.207031 6.140625 -2.46875 C 6.222656 -2.726562 6.265625 -3.0625 6.265625 -3.46875 L 6.265625 -4.078125 C 5.847656 -3.898438 5.191406 -3.738281 4.296875 -3.59375 Z M 4.296875 -3.59375 "/></g></g></g><g fill="#000000" fill-opacity="1"><g transform="translate(204.807847, 25.23582)"><g><path d="M 4.890625 -8.296875 C 5.472656 -8.296875 5.972656 -8.179688 6.390625 -7.953125 C 6.816406 -7.722656 7.128906 -7.429688 7.328125 -7.078125 C 7.453125 -6.835938 7.539062 -6.578125 7.59375 -6.296875 C 7.644531 -6.023438 7.671875 -5.679688 7.671875 -5.265625 L 7.671875 0 L 6.296875 0 L 6.296875 -5.015625 C 6.296875 -6.410156 5.726562 -7.109375 4.59375 -7.109375 C 4.164062 -7.109375 3.769531 -7.003906 3.40625 -6.796875 C 3.039062 -6.585938 2.78125 -6.285156 2.625 -5.890625 C 2.5 -5.554688 2.4375 -5.109375 2.4375 -4.546875 L 2.4375 0 L 1.0625 0 L 1.0625 -8.109375 L 2.296875 -8.109375 L 2.296875 -6.96875 C 2.910156 -7.851562 3.773438 -8.296875 4.890625 -8.296875 Z M 4.890625 -8.296875 "/></g></g></g><g fill="#000000" fill-opacity="1"><g transform="translate(213.508438, 25.23582)"><g><path d="M 7.609375 -11.203125 L 7.609375 0 L 6.328125 0 L 6.328125 -1.03125 C 6.171875 -0.757812 5.90625 -0.488281 5.53125 -0.21875 C 5.164062 0.0390625 4.679688 0.171875 4.078125 0.171875 C 3.410156 0.171875 2.8125 0 2.28125 -0.34375 C 1.75 -0.695312 1.328125 -1.195312 1.015625 -1.84375 C 0.710938 -2.488281 0.5625 -3.242188 0.5625 -4.109375 C 0.5625 -4.960938 0.703125 -5.703125 0.984375 -6.328125 C 1.273438 -6.960938 1.679688 -7.445312 2.203125 -7.78125 C 2.734375 -8.125 3.351562 -8.296875 4.0625 -8.296875 C 4.570312 -8.296875 5.015625 -8.175781 5.390625 -7.9375 C 5.773438 -7.695312 6.054688 -7.445312 6.234375 -7.1875 L 6.234375 -11.203125 Z M 1.96875 -4.0625 C 1.96875 -3.382812 2.066406 -2.8125 2.265625 -2.34375 C 2.460938 -1.882812 2.726562 -1.535156 3.0625 -1.296875 C 3.40625 -1.066406 3.785156 -0.953125 4.203125 -0.953125 C 4.835938 -0.953125 5.351562 -1.207031 5.75 -1.71875 C 6.15625 -2.226562 6.359375 -2.96875 6.359375 -3.9375 C 6.359375 -4.914062 6.164062 -5.695312 5.78125 -6.28125 C 5.394531 -6.875 4.847656 -7.171875 4.140625 -7.171875 C 3.453125 -7.171875 2.914062 -6.894531 2.53125 -6.34375 C 2.15625 -5.789062 1.96875 -5.03125 1.96875 -4.0625 Z M 1.96875 -4.0625 "/></g></g></g><g fill="#000000" fill-opacity="1"><g transform="translate(222.209028, 25.23582)"><g><path d="M 4.359375 -8.296875 C 4.972656 -8.296875 5.566406 -8.160156 6.140625 -7.890625 C 6.722656 -7.617188 7.203125 -7.164062 7.578125 -6.53125 C 7.960938 -5.90625 8.15625 -5.082031 8.15625 -4.0625 C 8.15625 -3.144531 7.992188 -2.367188 7.671875 -1.734375 C 7.347656 -1.109375 6.898438 -0.632812 6.328125 -0.3125 C 5.753906 0.0078125 5.097656 0.171875 4.359375 0.171875 C 3.265625 0.171875 2.375 -0.164062 1.6875 -0.84375 C 0.925781 -1.582031 0.546875 -2.65625 0.546875 -4.0625 C 0.546875 -4.96875 0.707031 -5.738281 1.03125 -6.375 C 1.351562 -7.007812 1.800781 -7.488281 2.375 -7.8125 C 2.945312 -8.132812 3.609375 -8.296875 4.359375 -8.296875 Z M 1.953125 -4.0625 C 1.953125 -3.070312 2.164062 -2.304688 2.59375 -1.765625 C 3.03125 -1.222656 3.617188 -0.953125 4.359375 -0.953125 C 5.078125 -0.953125 5.65625 -1.21875 6.09375 -1.75 C 6.53125 -2.289062 6.75 -3.0625 6.75 -4.0625 C 6.75 -5.019531 6.535156 -5.773438 6.109375 -6.328125 C 5.679688 -6.890625 5.09375 -7.171875 4.34375 -7.171875 C 3.625 -7.171875 3.046875 -6.894531 2.609375 -6.34375 C 2.171875 -5.800781 1.953125 -5.039062 1.953125 -4.0625 Z M 1.953125 -4.0625 "/></g></g></g><g fill="#000000" fill-opacity="1"><g transform="translate(290.771332, 188.287881)"><g><path d="M 5.90625 -11.390625 C 7.019531 -11.390625 7.992188 -11.148438 8.828125 -10.671875 C 9.671875 -10.191406 10.316406 -9.515625 10.765625 -8.640625 C 11.222656 -7.765625 11.453125 -6.75 11.453125 -5.59375 C 11.453125 -4.4375 11.21875 -3.421875 10.75 -2.546875 C 10.289062 -1.671875 9.660156 -0.992188 8.859375 -0.515625 C 8.054688 -0.046875 7.160156 0.1875 6.171875 0.1875 C 5.085938 0.1875 4.132812 -0.0625 3.3125 -0.5625 C 2.488281 -1.0625 1.851562 -1.738281 1.40625 -2.59375 C 0.957031 -3.457031 0.734375 -4.414062 0.734375 -5.46875 C 0.734375 -6.65625 0.957031 -7.695312 1.40625 -8.59375 C 1.851562 -9.488281 2.46875 -10.175781 3.25 -10.65625 C 4.039062 -11.144531 4.925781 -11.390625 5.90625 -11.390625 Z M 2.265625 -5.4375 C 2.265625 -4.570312 2.425781 -3.804688 2.75 -3.140625 C 3.070312 -2.484375 3.523438 -1.972656 4.109375 -1.609375 C 4.691406 -1.253906 5.351562 -1.078125 6.09375 -1.078125 C 6.851562 -1.078125 7.519531 -1.253906 8.09375 -1.609375 C 8.675781 -1.972656 9.125 -2.492188 9.4375 -3.171875 C 9.757812 -3.859375 9.921875 -4.664062 9.921875 -5.59375 C 9.921875 -6.507812 9.757812 -7.3125 9.4375 -8 C 9.125 -8.6875 8.679688 -9.210938 8.109375 -9.578125 C 7.535156 -9.941406 6.882812 -10.125 6.15625 -10.125 C 4.925781 -10.125 3.96875 -9.710938 3.28125 -8.890625 C 2.601562 -8.066406 2.265625 -6.914062 2.265625 -5.4375 Z M 2.265625 -5.4375 "/></g></g></g><g fill="#000000" fill-opacity="1"><g transform="translate(302.945898, 188.287881)"><g><path d="M 2.625 -5.65625 L 8.1875 -11.203125 L 10.203125 -11.203125 L 5.5 -6.671875 L 10.40625 0 L 8.453125 0 L 4.46875 -5.671875 L 2.625 -3.875 L 2.625 0 L 1.140625 0 L 1.140625 -11.203125 L 2.625 -11.203125 Z M 2.625 -5.65625 "/></g></g></g><g fill="#000000" fill-opacity="1"><g transform="translate(95.214749, 85.12929)"><g><path d="M 6.09375 -11.390625 C 7.226562 -11.390625 8.175781 -11.097656 8.9375 -10.515625 C 9.695312 -9.929688 10.222656 -9.132812 10.515625 -8.125 L 9.046875 -7.78125 C 8.804688 -8.53125 8.445312 -9.109375 7.96875 -9.515625 C 7.488281 -9.921875 6.851562 -10.125 6.0625 -10.125 C 4.894531 -10.125 3.976562 -9.738281 3.3125 -8.96875 C 2.65625 -8.195312 2.328125 -7.101562 2.328125 -5.6875 C 2.328125 -4.195312 2.648438 -3.054688 3.296875 -2.265625 C 3.941406 -1.472656 4.835938 -1.078125 5.984375 -1.078125 C 6.796875 -1.078125 7.488281 -1.316406 8.0625 -1.796875 C 8.632812 -2.285156 9.019531 -3 9.21875 -3.9375 L 10.703125 -3.546875 C 10.390625 -2.367188 9.832031 -1.453125 9.03125 -0.796875 C 8.226562 -0.140625 7.226562 0.1875 6.03125 0.1875 C 5.207031 0.1875 4.5 0.078125 3.90625 -0.140625 C 3.320312 -0.359375 2.828125 -0.679688 2.421875 -1.109375 C 1.859375 -1.703125 1.445312 -2.394531 1.1875 -3.1875 C 0.925781 -3.988281 0.796875 -4.820312 0.796875 -5.6875 C 0.796875 -6.84375 1.015625 -7.847656 1.453125 -8.703125 C 1.898438 -9.566406 2.523438 -10.226562 3.328125 -10.6875 C 4.128906 -11.15625 5.050781 -11.390625 6.09375 -11.390625 Z M 6.09375 -11.390625 "/></g></g></g><g fill="#000000" fill-opacity="1"><g transform="translate(106.512996, 85.12929)"><g><path d="M 2.96875 -6.546875 L 1.40625 -6.546875 L 1.40625 -8.109375 L 2.96875 -8.109375 Z M 2.96875 0 L 1.40625 0 L 1.40625 -1.5625 L 2.96875 -1.5625 Z M 2.96875 0 "/></g></g></g><g fill="#000000" fill-opacity="1"><g transform="translate(110.863291, 85.12929)"><g><path d="M 4.359375 0.1875 L 3.234375 0.1875 L 0 -11.390625 L 1.109375 -11.390625 Z M 4.359375 0.1875 "/></g></g></g><g fill="#000000" fill-opacity="1"><g transform="translate(115.213587, 85.12929)"><g><path d="M 2.71875 -4.59375 C 2.71875 -3.625 2.820312 -2.925781 3.03125 -2.5 C 3.226562 -2.09375 3.535156 -1.765625 3.953125 -1.515625 C 4.378906 -1.265625 4.921875 -1.140625 5.578125 -1.140625 C 6.484375 -1.140625 7.15625 -1.316406 7.59375 -1.671875 C 8.03125 -2.035156 8.300781 -2.445312 8.40625 -2.90625 C 8.507812 -3.375 8.5625 -3.929688 8.5625 -4.578125 L 8.5625 -11.203125 L 10.046875 -11.203125 L 10.046875 -4.609375 C 10.046875 -4.035156 10.007812 -3.484375 9.9375 -2.953125 C 9.875 -2.429688 9.679688 -1.9375 9.359375 -1.46875 C 9.003906 -0.957031 8.535156 -0.550781 7.953125 -0.25 C 7.367188 0.0390625 6.601562 0.1875 5.65625 0.1875 C 4.738281 0.1875 3.992188 0.0507812 3.421875 -0.21875 C 2.847656 -0.488281 2.375 -0.863281 2 -1.34375 C 1.664062 -1.757812 1.453125 -2.25 1.359375 -2.8125 C 1.273438 -3.375 1.234375 -3.96875 1.234375 -4.59375 L 1.234375 -11.203125 L 2.71875 -11.203125 Z M 2.71875 -4.59375 "/></g></g></g><g fill="#000000" fill-opacity="1"><g transform="translate(126.511833, 85.12929)"><g><path d="M 3.71875 -8.296875 C 4.644531 -8.296875 5.390625 -8.101562 5.953125 -7.71875 C 6.515625 -7.34375 6.835938 -6.78125 6.921875 -6.03125 L 5.578125 -5.84375 C 5.515625 -6.25 5.34375 -6.570312 5.0625 -6.8125 C 4.78125 -7.050781 4.359375 -7.171875 3.796875 -7.171875 C 3.242188 -7.171875 2.8125 -7.078125 2.5 -6.890625 C 2.195312 -6.703125 2.046875 -6.441406 2.046875 -6.109375 C 2.046875 -5.878906 2.132812 -5.6875 2.3125 -5.53125 C 2.5 -5.382812 2.71875 -5.269531 2.96875 -5.1875 C 3.21875 -5.113281 3.601562 -5.015625 4.125 -4.890625 C 4.78125 -4.734375 5.3125 -4.578125 5.71875 -4.421875 C 6.132812 -4.265625 6.488281 -4.019531 6.78125 -3.6875 C 7.082031 -3.363281 7.234375 -2.929688 7.234375 -2.390625 C 7.234375 -1.921875 7.101562 -1.488281 6.84375 -1.09375 C 6.582031 -0.707031 6.207031 -0.398438 5.71875 -0.171875 C 5.238281 0.0546875 4.6875 0.171875 4.0625 0.171875 C 2.96875 0.171875 2.132812 -0.0390625 1.5625 -0.46875 C 0.988281 -0.894531 0.628906 -1.546875 0.484375 -2.421875 L 1.84375 -2.625 C 1.914062 -2.070312 2.132812 -1.65625 2.5 -1.375 C 2.875 -1.09375 3.359375 -0.953125 3.953125 -0.953125 C 4.546875 -0.953125 5.003906 -1.070312 5.328125 -1.3125 C 5.660156 -1.5625 5.828125 -1.867188 5.828125 -2.234375 C 5.828125 -2.578125 5.660156 -2.832031 5.328125 -3 C 5.003906 -3.164062 4.5 -3.328125 3.8125 -3.484375 C 3.144531 -3.640625 2.609375 -3.796875 2.203125 -3.953125 C 1.804688 -4.109375 1.457031 -4.347656 1.15625 -4.671875 C 0.863281 -4.992188 0.71875 -5.425781 0.71875 -5.96875 C 0.71875 -6.40625 0.832031 -6.800781 1.0625 -7.15625 C 1.300781 -7.507812 1.644531 -7.785156 2.09375 -7.984375 C 2.550781 -8.191406 3.09375 -8.296875 3.71875 -8.296875 Z M 3.71875 -8.296875 "/></g></g></g><g fill="#000000" fill-opacity="1"><g transform="translate(134.336105, 85.12929)"><g><path d="M 4.40625 -8.296875 C 5.1875 -8.296875 5.851562 -8.109375 6.40625 -7.734375 C 6.96875 -7.367188 7.390625 -6.875 7.671875 -6.25 C 7.953125 -5.625 8.09375 -4.925781 8.09375 -4.15625 L 8.09375 -3.703125 L 2.03125 -3.703125 C 2.070312 -2.835938 2.316406 -2.160156 2.765625 -1.671875 C 3.210938 -1.191406 3.789062 -0.953125 4.5 -0.953125 C 5.03125 -0.953125 5.46875 -1.09375 5.8125 -1.375 C 6.164062 -1.65625 6.4375 -2.066406 6.625 -2.609375 L 8.046875 -2.4375 C 7.828125 -1.625 7.410156 -0.984375 6.796875 -0.515625 C 6.191406 -0.0546875 5.445312 0.171875 4.5625 0.171875 C 3.3125 0.171875 2.335938 -0.191406 1.640625 -0.921875 C 0.953125 -1.648438 0.609375 -2.675781 0.609375 -4 C 0.609375 -4.875 0.765625 -5.632812 1.078125 -6.28125 C 1.390625 -6.925781 1.828125 -7.421875 2.390625 -7.765625 C 2.960938 -8.117188 3.632812 -8.296875 4.40625 -8.296875 Z M 2.109375 -4.859375 L 6.640625 -4.859375 C 6.609375 -5.628906 6.367188 -6.207031 5.921875 -6.59375 C 5.484375 -6.976562 4.976562 -7.171875 4.40625 -7.171875 C 3.75 -7.171875 3.210938 -6.953125 2.796875 -6.515625 C 2.390625 -6.078125 2.160156 -5.523438 2.109375 -4.859375 Z M 2.109375 -4.859375 "/></g></g></g><g fill="#000000" fill-opacity="1"><g transform="translate(143.036695, 85.12929)"><g><path d="M 4.03125 -8.296875 C 4.5 -8.296875 4.960938 -8.148438 5.421875 -7.859375 L 4.953125 -6.59375 C 4.617188 -6.789062 4.265625 -6.890625 3.890625 -6.890625 C 3.367188 -6.890625 2.984375 -6.648438 2.734375 -6.171875 C 2.492188 -5.703125 2.375 -5.09375 2.375 -4.34375 L 2.375 0 L 1 0 L 1 -8.109375 L 2.234375 -8.109375 L 2.234375 -6.890625 C 2.492188 -7.359375 2.75 -7.707031 3 -7.9375 C 3.257812 -8.175781 3.601562 -8.296875 4.03125 -8.296875 Z M 4.03125 -8.296875 "/></g></g></g><g fill="#000000" fill-opacity="1"><g transform="translate(148.247661, 85.12929)"><g><path d="M 3.71875 -8.296875 C 4.644531 -8.296875 5.390625 -8.101562 5.953125 -7.71875 C 6.515625 -7.34375 6.835938 -6.78125 6.921875 -6.03125 L 5.578125 -5.84375 C 5.515625 -6.25 5.34375 -6.570312 5.0625 -6.8125 C 4.78125 -7.050781 4.359375 -7.171875 3.796875 -7.171875 C 3.242188 -7.171875 2.8125 -7.078125 2.5 -6.890625 C 2.195312 -6.703125 2.046875 -6.441406 2.046875 -6.109375 C 2.046875 -5.878906 2.132812 -5.6875 2.3125 -5.53125 C 2.5 -5.382812 2.71875 -5.269531 2.96875 -5.1875 C 3.21875 -5.113281 3.601562 -5.015625 4.125 -4.890625 C 4.78125 -4.734375 5.3125 -4.578125 5.71875 -4.421875 C 6.132812 -4.265625 6.488281 -4.019531 6.78125 -3.6875 C 7.082031 -3.363281 7.234375 -2.929688 7.234375 -2.390625 C 7.234375 -1.921875 7.101562 -1.488281 6.84375 -1.09375 C 6.582031 -0.707031 6.207031 -0.398438 5.71875 -0.171875 C 5.238281 0.0546875 4.6875 0.171875 4.0625 0.171875 C 2.96875 0.171875 2.132812 -0.0390625 1.5625 -0.46875 C 0.988281 -0.894531 0.628906 -1.546875 0.484375 -2.421875 L 1.84375 -2.625 C 1.914062 -2.070312 2.132812 -1.65625 2.5 -1.375 C 2.875 -1.09375 3.359375 -0.953125 3.953125 -0.953125 C 4.546875 -0.953125 5.003906 -1.070312 5.328125 -1.3125 C 5.660156 -1.5625 5.828125 -1.867188 5.828125 -2.234375 C 5.828125 -2.578125 5.660156 -2.832031 5.328125 -3 C 5.003906 -3.164062 4.5 -3.328125 3.8125 -3.484375 C 3.144531 -3.640625 2.609375 -3.796875 2.203125 -3.953125 C 1.804688 -4.109375 1.457031 -4.347656 1.15625 -4.671875 C 0.863281 -4.992188 0.71875 -5.425781 0.71875 -5.96875 C 0.71875 -6.40625 0.832031 -6.800781 1.0625 -7.15625 C 1.300781 -7.507812 1.644531 -7.785156 2.09375 -7.984375 C 2.550781 -8.191406 3.09375 -8.296875 3.71875 -8.296875 Z M 3.71875 -8.296875 "/></g></g></g><g fill="#000000" fill-opacity="1"><g transform="translate(156.071932, 85.12929)"><g><path d="M 4.359375 0.1875 L 3.234375 0.1875 L 0 -11.390625 L 1.109375 -11.390625 Z M 4.359375 0.1875 "/></g></g></g><g fill="#000000" fill-opacity="1"><g transform="translate(160.422228, 85.12929)"><g><path d="M 6.578125 -11.203125 L 6.578125 -3.453125 C 6.578125 -2.796875 6.515625 -2.253906 6.390625 -1.828125 C 6.265625 -1.410156 6.078125 -1.0625 5.828125 -0.78125 C 5.535156 -0.457031 5.179688 -0.210938 4.765625 -0.046875 C 4.347656 0.109375 3.894531 0.1875 3.40625 0.1875 C 2.4375 0.1875 1.691406 -0.0859375 1.171875 -0.640625 C 0.660156 -1.203125 0.40625 -2.003906 0.40625 -3.046875 L 0.40625 -3.171875 L 1.734375 -3.359375 L 1.734375 -3.296875 C 1.773438 -2.578125 1.914062 -2.035156 2.15625 -1.671875 C 2.40625 -1.316406 2.835938 -1.140625 3.453125 -1.140625 C 3.960938 -1.140625 4.367188 -1.300781 4.671875 -1.625 C 4.835938 -1.800781 4.945312 -2.019531 5 -2.28125 C 5.0625 -2.550781 5.09375 -2.867188 5.09375 -3.234375 L 5.09375 -11.203125 Z M 6.578125 -11.203125 "/></g></g></g><g fill="#000000" fill-opacity="1"><g transform="translate(168.246499, 85.12929)"><g><path d="M 4.359375 -8.296875 C 4.972656 -8.296875 5.566406 -8.160156 6.140625 -7.890625 C 6.722656 -7.617188 7.203125 -7.164062 7.578125 -6.53125 C 7.960938 -5.90625 8.15625 -5.082031 8.15625 -4.0625 C 8.15625 -3.144531 7.992188 -2.367188 7.671875 -1.734375 C 7.347656 -1.109375 6.898438 -0.632812 6.328125 -0.3125 C 5.753906 0.0078125 5.097656 0.171875 4.359375 0.171875 C 3.265625 0.171875 2.375 -0.164062 1.6875 -0.84375 C 0.925781 -1.582031 0.546875 -2.65625 0.546875 -4.0625 C 0.546875 -4.96875 0.707031 -5.738281 1.03125 -6.375 C 1.351562 -7.007812 1.800781 -7.488281 2.375 -7.8125 C 2.945312 -8.132812 3.609375 -8.296875 4.359375 -8.296875 Z M 1.953125 -4.0625 C 1.953125 -3.070312 2.164062 -2.304688 2.59375 -1.765625 C 3.03125 -1.222656 3.617188 -0.953125 4.359375 -0.953125 C 5.078125 -0.953125 5.65625 -1.21875 6.09375 -1.75 C 6.53125 -2.289062 6.75 -3.0625 6.75 -4.0625 C 6.75 -5.019531 6.535156 -5.773438 6.109375 -6.328125 C 5.679688 -6.890625 5.09375 -7.171875 4.34375 -7.171875 C 3.625 -7.171875 3.046875 -6.894531 2.609375 -6.34375 C 2.171875 -5.800781 1.953125 -5.039062 1.953125 -4.0625 Z M 1.953125 -4.0625 "/></g></g></g><g fill="#000000" fill-opacity="1"><g transform="translate(176.947094, 85.12929)"><g><path d="M 4.078125 -8.296875 C 5.015625 -8.296875 5.796875 -7.910156 6.421875 -7.140625 L 6.421875 -8.109375 L 7.6875 -8.109375 L 7.6875 -0.96875 C 7.6875 0.21875 7.535156 1.097656 7.234375 1.671875 C 6.972656 2.160156 6.578125 2.550781 6.046875 2.84375 C 5.523438 3.132812 4.851562 3.28125 4.03125 3.28125 C 3.332031 3.28125 2.738281 3.171875 2.25 2.953125 C 1.769531 2.734375 1.40625 2.441406 1.15625 2.078125 C 0.914062 1.722656 0.796875 1.332031 0.796875 0.90625 L 0.8125 0.671875 L 2.140625 0.875 L 2.140625 0.90625 C 2.210938 1.332031 2.398438 1.644531 2.703125 1.84375 C 3.015625 2.050781 3.476562 2.15625 4.09375 2.15625 C 4.5 2.15625 4.851562 2.085938 5.15625 1.953125 C 5.46875 1.816406 5.710938 1.628906 5.890625 1.390625 C 6.046875 1.171875 6.148438 0.910156 6.203125 0.609375 C 6.265625 0.316406 6.296875 -0.0390625 6.296875 -0.46875 L 6.296875 -1.0625 C 5.679688 -0.351562 4.941406 0 4.078125 0 C 3.367188 0 2.75 -0.171875 2.21875 -0.515625 C 1.6875 -0.867188 1.269531 -1.359375 0.96875 -1.984375 C 0.675781 -2.609375 0.53125 -3.320312 0.53125 -4.125 C 0.53125 -4.957031 0.675781 -5.6875 0.96875 -6.3125 C 1.257812 -6.945312 1.671875 -7.4375 2.203125 -7.78125 C 2.742188 -8.125 3.367188 -8.296875 4.078125 -8.296875 Z M 1.9375 -4.21875 C 1.9375 -3.207031 2.140625 -2.4375 2.546875 -1.90625 C 2.953125 -1.382812 3.507812 -1.125 4.21875 -1.125 C 4.507812 -1.125 4.84375 -1.21875 5.21875 -1.40625 C 5.601562 -1.601562 5.910156 -1.960938 6.140625 -2.484375 C 6.316406 -2.898438 6.40625 -3.445312 6.40625 -4.125 C 6.40625 -5.09375 6.195312 -5.84375 5.78125 -6.375 C 5.363281 -6.90625 4.816406 -7.171875 4.140625 -7.171875 C 3.492188 -7.171875 2.960938 -6.90625 2.546875 -6.375 C 2.140625 -5.851562 1.9375 -5.132812 1.9375 -4.21875 Z M 1.9375 -4.21875 "/></g></g></g><g fill="#000000" fill-opacity="1"><g transform="translate(185.647685, 85.12929)"><g><path d="M 4.453125 -8.296875 C 5.117188 -8.296875 5.65625 -8.226562 6.0625 -8.09375 C 6.476562 -7.96875 6.804688 -7.78125 7.046875 -7.53125 C 7.273438 -7.289062 7.429688 -7.023438 7.515625 -6.734375 C 7.597656 -6.441406 7.640625 -6.054688 7.640625 -5.578125 L 7.640625 -2.296875 C 7.640625 -1.242188 7.785156 -0.476562 8.078125 0 L 6.640625 0 C 6.503906 -0.28125 6.410156 -0.613281 6.359375 -1 C 5.859375 -0.582031 5.367188 -0.28125 4.890625 -0.09375 C 4.421875 0.09375 3.925781 0.1875 3.40625 0.1875 C 2.53125 0.1875 1.84375 -0.0234375 1.34375 -0.453125 C 0.84375 -0.878906 0.59375 -1.441406 0.59375 -2.140625 C 0.59375 -2.503906 0.675781 -2.851562 0.84375 -3.1875 C 1.007812 -3.53125 1.238281 -3.800781 1.53125 -4 C 1.84375 -4.207031 2.160156 -4.359375 2.484375 -4.453125 C 2.804688 -4.546875 3.203125 -4.617188 3.671875 -4.671875 C 4.179688 -4.722656 4.679688 -4.789062 5.171875 -4.875 C 5.671875 -4.96875 6.035156 -5.0625 6.265625 -5.15625 L 6.265625 -5.5 C 6.265625 -6.050781 6.113281 -6.46875 5.8125 -6.75 C 5.519531 -7.03125 5.015625 -7.171875 4.296875 -7.171875 C 3.609375 -7.171875 3.113281 -7.050781 2.8125 -6.8125 C 2.519531 -6.570312 2.304688 -6.175781 2.171875 -5.625 L 0.828125 -5.796875 C 1.015625 -6.671875 1.40625 -7.304688 2 -7.703125 C 2.601562 -8.097656 3.421875 -8.296875 4.453125 -8.296875 Z M 4.296875 -3.59375 C 3.753906 -3.507812 3.335938 -3.425781 3.046875 -3.34375 C 2.765625 -3.269531 2.53125 -3.140625 2.34375 -2.953125 C 2.15625 -2.773438 2.0625 -2.515625 2.0625 -2.171875 C 2.0625 -1.765625 2.207031 -1.445312 2.5 -1.21875 C 2.800781 -1 3.222656 -0.890625 3.765625 -0.890625 C 4.085938 -0.890625 4.429688 -0.953125 4.796875 -1.078125 C 5.160156 -1.210938 5.476562 -1.441406 5.75 -1.765625 C 5.925781 -1.972656 6.054688 -2.207031 6.140625 -2.46875 C 6.222656 -2.726562 6.265625 -3.0625 6.265625 -3.46875 L 6.265625 -4.078125 C 5.847656 -3.898438 5.191406 -3.738281 4.296875 -3.59375 Z M 4.296875 -3.59375 "/></g></g></g><g fill="#000000" fill-opacity="1"><g transform="translate(194.348275, 85.12929)"><g><path d="M 7.609375 -11.203125 L 7.609375 0 L 6.328125 0 L 6.328125 -1.03125 C 6.171875 -0.757812 5.90625 -0.488281 5.53125 -0.21875 C 5.164062 0.0390625 4.679688 0.171875 4.078125 0.171875 C 3.410156 0.171875 2.8125 0 2.28125 -0.34375 C 1.75 -0.695312 1.328125 -1.195312 1.015625 -1.84375 C 0.710938 -2.488281 0.5625 -3.242188 0.5625 -4.109375 C 0.5625 -4.960938 0.703125 -5.703125 0.984375 -6.328125 C 1.273438 -6.960938 1.679688 -7.445312 2.203125 -7.78125 C 2.734375 -8.125 3.351562 -8.296875 4.0625 -8.296875 C 4.570312 -8.296875 5.015625 -8.175781 5.390625 -7.9375 C 5.773438 -7.695312 6.054688 -7.445312 6.234375 -7.1875 L 6.234375 -11.203125 Z M 1.96875 -4.0625 C 1.96875 -3.382812 2.066406 -2.8125 2.265625 -2.34375 C 2.460938 -1.882812 2.726562 -1.535156 3.0625 -1.296875 C 3.40625 -1.066406 3.785156 -0.953125 4.203125 -0.953125 C 4.835938 -0.953125 5.351562 -1.207031 5.75 -1.71875 C 6.15625 -2.226562 6.359375 -2.96875 6.359375 -3.9375 C 6.359375 -4.914062 6.164062 -5.695312 5.78125 -6.28125 C 5.394531 -6.875 4.847656 -7.171875 4.140625 -7.171875 C 3.453125 -7.171875 2.914062 -6.894531 2.53125 -6.34375 C 2.15625 -5.789062 1.96875 -5.03125 1.96875 -4.0625 Z M 1.96875 -4.0625 "/></g></g></g><g fill="#000000" fill-opacity="1"><g transform="translate(203.048866, 85.12929)"><g><path d="M 4.359375 -8.296875 C 4.972656 -8.296875 5.566406 -8.160156 6.140625 -7.890625 C 6.722656 -7.617188 7.203125 -7.164062 7.578125 -6.53125 C 7.960938 -5.90625 8.15625 -5.082031 8.15625 -4.0625 C 8.15625 -3.144531 7.992188 -2.367188 7.671875 -1.734375 C 7.347656 -1.109375 6.898438 -0.632812 6.328125 -0.3125 C 5.753906 0.0078125 5.097656 0.171875 4.359375 0.171875 C 3.265625 0.171875 2.375 -0.164062 1.6875 -0.84375 C 0.925781 -1.582031 0.546875 -2.65625 0.546875 -4.0625 C 0.546875 -4.96875 0.707031 -5.738281 1.03125 -6.375 C 1.351562 -7.007812 1.800781 -7.488281 2.375 -7.8125 C 2.945312 -8.132812 3.609375 -8.296875 4.359375 -8.296875 Z M 1.953125 -4.0625 C 1.953125 -3.070312 2.164062 -2.304688 2.59375 -1.765625 C 3.03125 -1.222656 3.617188 -0.953125 4.359375 -0.953125 C 5.078125 -0.953125 5.65625 -1.21875 6.09375 -1.75 C 6.53125 -2.289062 6.75 -3.0625 6.75 -4.0625 C 6.75 -5.019531 6.535156 -5.773438 6.109375 -6.328125 C 5.679688 -6.890625 5.09375 -7.171875 4.34375 -7.171875 C 3.625 -7.171875 3.046875 -6.894531 2.609375 -6.34375 C 2.171875 -5.800781 1.953125 -5.039062 1.953125 -4.0625 Z M 1.953125 -4.0625 "/></g></g></g><g fill="#000000" fill-opacity="1"><g transform="translate(211.749457, 85.12929)"><g><path d="M 4.03125 -8.296875 C 4.5 -8.296875 4.960938 -8.148438 5.421875 -7.859375 L 4.953125 -6.59375 C 4.617188 -6.789062 4.265625 -6.890625 3.890625 -6.890625 C 3.367188 -6.890625 2.984375 -6.648438 2.734375 -6.171875 C 2.492188 -5.703125 2.375 -5.09375 2.375 -4.34375 L 2.375 0 L 1 0 L 1 -8.109375 L 2.234375 -8.109375 L 2.234375 -6.890625 C 2.492188 -7.359375 2.75 -7.707031 3 -7.9375 C 3.257812 -8.175781 3.601562 -8.296875 4.03125 -8.296875 Z M 4.03125 -8.296875 "/></g></g></g><g fill="#000000" fill-opacity="1"><g transform="translate(216.960423, 85.12929)"><g><path d="M 8.265625 -4.90625 L 0.875 -1.71875 L 0.875 -3.09375 L 6.734375 -5.53125 L 0.875 -7.953125 L 0.875 -9.3125 L 8.265625 -6.1875 Z M 8.265625 -4.90625 "/></g></g></g><g fill="#000000" fill-opacity="1"><g transform="translate(226.099166, 85.12929)"><g/></g></g><g fill="#000000" fill-opacity="1"><g transform="translate(230.449462, 85.12929)"><g><path d="M 6.578125 -11.203125 L 6.578125 -3.453125 C 6.578125 -2.796875 6.515625 -2.253906 6.390625 -1.828125 C 6.265625 -1.410156 6.078125 -1.0625 5.828125 -0.78125 C 5.535156 -0.457031 5.179688 -0.210938 4.765625 -0.046875 C 4.347656 0.109375 3.894531 0.1875 3.40625 0.1875 C 2.4375 0.1875 1.691406 -0.0859375 1.171875 -0.640625 C 0.660156 -1.203125 0.40625 -2.003906 0.40625 -3.046875 L 0.40625 -3.171875 L 1.734375 -3.359375 L 1.734375 -3.296875 C 1.773438 -2.578125 1.914062 -2.035156 2.15625 -1.671875 C 2.40625 -1.316406 2.835938 -1.140625 3.453125 -1.140625 C 3.960938 -1.140625 4.367188 -1.300781 4.671875 -1.625 C 4.835938 -1.800781 4.945312 -2.019531 5 -2.28125 C 5.0625 -2.550781 5.09375 -2.867188 5.09375 -3.234375 L 5.09375 -11.203125 Z M 6.578125 -11.203125 "/></g></g></g><g fill="#000000" fill-opacity="1"><g transform="translate(238.273728, 85.12929)"><g><path d="M 4.359375 -8.296875 C 4.972656 -8.296875 5.566406 -8.160156 6.140625 -7.890625 C 6.722656 -7.617188 7.203125 -7.164062 7.578125 -6.53125 C 7.960938 -5.90625 8.15625 -5.082031 8.15625 -4.0625 C 8.15625 -3.144531 7.992188 -2.367188 7.671875 -1.734375 C 7.347656 -1.109375 6.898438 -0.632812 6.328125 -0.3125 C 5.753906 0.0078125 5.097656 0.171875 4.359375 0.171875 C 3.265625 0.171875 2.375 -0.164062 1.6875 -0.84375 C 0.925781 -1.582031 0.546875 -2.65625 0.546875 -4.0625 C 0.546875 -4.96875 0.707031 -5.738281 1.03125 -6.375 C 1.351562 -7.007812 1.800781 -7.488281 2.375 -7.8125 C 2.945312 -8.132812 3.609375 -8.296875 4.359375 -8.296875 Z M 1.953125 -4.0625 C 1.953125 -3.070312 2.164062 -2.304688 2.59375 -1.765625 C 3.03125 -1.222656 3.617188 -0.953125 4.359375 -0.953125 C 5.078125 -0.953125 5.65625 -1.21875 6.09375 -1.75 C 6.53125 -2.289062 6.75 -3.0625 6.75 -4.0625 C 6.75 -5.019531 6.535156 -5.773438 6.109375 -6.328125 C 5.679688 -6.890625 5.09375 -7.171875 4.34375 -7.171875 C 3.625 -7.171875 3.046875 -6.894531 2.609375 -6.34375 C 2.171875 -5.800781 1.953125 -5.039062 1.953125 -4.0625 Z M 1.953125 -4.0625 "/></g></g></g><g fill="#000000" fill-opacity="1"><g transform="translate(246.974319, 85.12929)"><g><path d="M 4.078125 -8.296875 C 5.015625 -8.296875 5.796875 -7.910156 6.421875 -7.140625 L 6.421875 -8.109375 L 7.6875 -8.109375 L 7.6875 -0.96875 C 7.6875 0.21875 7.535156 1.097656 7.234375 1.671875 C 6.972656 2.160156 6.578125 2.550781 6.046875 2.84375 C 5.523438 3.132812 4.851562 3.28125 4.03125 3.28125 C 3.332031 3.28125 2.738281 3.171875 2.25 2.953125 C 1.769531 2.734375 1.40625 2.441406 1.15625 2.078125 C 0.914062 1.722656 0.796875 1.332031 0.796875 0.90625 L 0.8125 0.671875 L 2.140625 0.875 L 2.140625 0.90625 C 2.210938 1.332031 2.398438 1.644531 2.703125 1.84375 C 3.015625 2.050781 3.476562 2.15625 4.09375 2.15625 C 4.5 2.15625 4.851562 2.085938 5.15625 1.953125 C 5.46875 1.816406 5.710938 1.628906 5.890625 1.390625 C 6.046875 1.171875 6.148438 0.910156 6.203125 0.609375 C 6.265625 0.316406 6.296875 -0.0390625 6.296875 -0.46875 L 6.296875 -1.0625 C 5.679688 -0.351562 4.941406 0 4.078125 0 C 3.367188 0 2.75 -0.171875 2.21875 -0.515625 C 1.6875 -0.867188 1.269531 -1.359375 0.96875 -1.984375 C 0.675781 -2.609375 0.53125 -3.320312 0.53125 -4.125 C 0.53125 -4.957031 0.675781 -5.6875 0.96875 -6.3125 C 1.257812 -6.945312 1.671875 -7.4375 2.203125 -7.78125 C 2.742188 -8.125 3.367188 -8.296875 4.078125 -8.296875 Z M 1.9375 -4.21875 C 1.9375 -3.207031 2.140625 -2.4375 2.546875 -1.90625 C 2.953125 -1.382812 3.507812 -1.125 4.21875 -1.125 C 4.507812 -1.125 4.84375 -1.21875 5.21875 -1.40625 C 5.601562 -1.601562 5.910156 -1.960938 6.140625 -2.484375 C 6.316406 -2.898438 6.40625 -3.445312 6.40625 -4.125 C 6.40625 -5.09375 6.195312 -5.84375 5.78125 -6.375 C 5.363281 -6.90625 4.816406 -7.171875 4.140625 -7.171875 C 3.492188 -7.171875 2.960938 -6.90625 2.546875 -6.375 C 2.140625 -5.851562 1.9375 -5.132812 1.9375 -4.21875 Z M 1.9375 -4.21875 "/></g></g></g><g fill="#000000" fill-opacity="1"><g transform="translate(255.67491, 85.12929)"><g><path d="M 4.453125 -8.296875 C 5.117188 -8.296875 5.65625 -8.226562 6.0625 -8.09375 C 6.476562 -7.96875 6.804688 -7.78125 7.046875 -7.53125 C 7.273438 -7.289062 7.429688 -7.023438 7.515625 -6.734375 C 7.597656 -6.441406 7.640625 -6.054688 7.640625 -5.578125 L 7.640625 -2.296875 C 7.640625 -1.242188 7.785156 -0.476562 8.078125 0 L 6.640625 0 C 6.503906 -0.28125 6.410156 -0.613281 6.359375 -1 C 5.859375 -0.582031 5.367188 -0.28125 4.890625 -0.09375 C 4.421875 0.09375 3.925781 0.1875 3.40625 0.1875 C 2.53125 0.1875 1.84375 -0.0234375 1.34375 -0.453125 C 0.84375 -0.878906 0.59375 -1.441406 0.59375 -2.140625 C 0.59375 -2.503906 0.675781 -2.851562 0.84375 -3.1875 C 1.007812 -3.53125 1.238281 -3.800781 1.53125 -4 C 1.84375 -4.207031 2.160156 -4.359375 2.484375 -4.453125 C 2.804688 -4.546875 3.203125 -4.617188 3.671875 -4.671875 C 4.179688 -4.722656 4.679688 -4.789062 5.171875 -4.875 C 5.671875 -4.96875 6.035156 -5.0625 6.265625 -5.15625 L 6.265625 -5.5 C 6.265625 -6.050781 6.113281 -6.46875 5.8125 -6.75 C 5.519531 -7.03125 5.015625 -7.171875 4.296875 -7.171875 C 3.609375 -7.171875 3.113281 -7.050781 2.8125 -6.8125 C 2.519531 -6.570312 2.304688 -6.175781 2.171875 -5.625 L 0.828125 -5.796875 C 1.015625 -6.671875 1.40625 -7.304688 2 -7.703125 C 2.601562 -8.097656 3.421875 -8.296875 4.453125 -8.296875 Z M 4.296875 -3.59375 C 3.753906 -3.507812 3.335938 -3.425781 3.046875 -3.34375 C 2.765625 -3.269531 2.53125 -3.140625 2.34375 -2.953125 C 2.15625 -2.773438 2.0625 -2.515625 2.0625 -2.171875 C 2.0625 -1.765625 2.207031 -1.445312 2.5 -1.21875 C 2.800781 -1 3.222656 -0.890625 3.765625 -0.890625 C 4.085938 -0.890625 4.429688 -0.953125 4.796875 -1.078125 C 5.160156 -1.210938 5.476562 -1.441406 5.75 -1.765625 C 5.925781 -1.972656 6.054688 -2.207031 6.140625 -2.46875 C 6.222656 -2.726562 6.265625 -3.0625 6.265625 -3.46875 L 6.265625 -4.078125 C 5.847656 -3.898438 5.191406 -3.738281 4.296875 -3.59375 Z M 4.296875 -3.59375 "/></g></g></g><g fill="#000000" fill-opacity="1"><g transform="translate(264.3755, 85.12929)"><g><path d="M 4.890625 -8.296875 C 5.472656 -8.296875 5.972656 -8.179688 6.390625 -7.953125 C 6.816406 -7.722656 7.128906 -7.429688 7.328125 -7.078125 C 7.453125 -6.835938 7.539062 -6.578125 7.59375 -6.296875 C 7.644531 -6.023438 7.671875 -5.679688 7.671875 -5.265625 L 7.671875 0 L 6.296875 0 L 6.296875 -5.015625 C 6.296875 -6.410156 5.726562 -7.109375 4.59375 -7.109375 C 4.164062 -7.109375 3.769531 -7.003906 3.40625 -6.796875 C 3.039062 -6.585938 2.78125 -6.285156 2.625 -5.890625 C 2.5 -5.554688 2.4375 -5.109375 2.4375 -4.546875 L 2.4375 0 L 1.0625 0 L 1.0625 -8.109375 L 2.296875 -8.109375 L 2.296875 -6.96875 C 2.910156 -7.851562 3.773438 -8.296875 4.890625 -8.296875 Z M 4.890625 -8.296875 "/></g></g></g><g fill="#000000" fill-opacity="1"><g transform="translate(273.076091, 85.12929)"><g><path d="M 7.609375 -11.203125 L 7.609375 0 L 6.328125 0 L 6.328125 -1.03125 C 6.171875 -0.757812 5.90625 -0.488281 5.53125 -0.21875 C 5.164062 0.0390625 4.679688 0.171875 4.078125 0.171875 C 3.410156 0.171875 2.8125 0 2.28125 -0.34375 C 1.75 -0.695312 1.328125 -1.195312 1.015625 -1.84375 C 0.710938 -2.488281 0.5625 -3.242188 0.5625 -4.109375 C 0.5625 -4.960938 0.703125 -5.703125 0.984375 -6.328125 C 1.273438 -6.960938 1.679688 -7.445312 2.203125 -7.78125 C 2.734375 -8.125 3.351562 -8.296875 4.0625 -8.296875 C 4.570312 -8.296875 5.015625 -8.175781 5.390625 -7.9375 C 5.773438 -7.695312 6.054688 -7.445312 6.234375 -7.1875 L 6.234375 -11.203125 Z M 1.96875 -4.0625 C 1.96875 -3.382812 2.066406 -2.8125 2.265625 -2.34375 C 2.460938 -1.882812 2.726562 -1.535156 3.0625 -1.296875 C 3.40625 -1.066406 3.785156 -0.953125 4.203125 -0.953125 C 4.835938 -0.953125 5.351562 -1.207031 5.75 -1.71875 C 6.15625 -2.226562 6.359375 -2.96875 6.359375 -3.9375 C 6.359375 -4.914062 6.164062 -5.695312 5.78125 -6.28125 C 5.394531 -6.875 4.847656 -7.171875 4.140625 -7.171875 C 3.453125 -7.171875 2.914062 -6.894531 2.53125 -6.34375 C 2.15625 -5.789062 1.96875 -5.03125 1.96875 -4.0625 Z M 1.96875 -4.0625 "/></g></g></g><g fill="#000000" fill-opacity="1"><g transform="translate(281.776682, 85.12929)"><g><path d="M 4.359375 -8.296875 C 4.972656 -8.296875 5.566406 -8.160156 6.140625 -7.890625 C 6.722656 -7.617188 7.203125 -7.164062 7.578125 -6.53125 C 7.960938 -5.90625 8.15625 -5.082031 8.15625 -4.0625 C 8.15625 -3.144531 7.992188 -2.367188 7.671875 -1.734375 C 7.347656 -1.109375 6.898438 -0.632812 6.328125 -0.3125 C 5.753906 0.0078125 5.097656 0.171875 4.359375 0.171875 C 3.265625 0.171875 2.375 -0.164062 1.6875 -0.84375 C 0.925781 -1.582031 0.546875 -2.65625 0.546875 -4.0625 C 0.546875 -4.96875 0.707031 -5.738281 1.03125 -6.375 C 1.351562 -7.007812 1.800781 -7.488281 2.375 -7.8125 C 2.945312 -8.132812 3.609375 -8.296875 4.359375 -8.296875 Z M 1.953125 -4.0625 C 1.953125 -3.070312 2.164062 -2.304688 2.59375 -1.765625 C 3.03125 -1.222656 3.617188 -0.953125 4.359375 -0.953125 C 5.078125 -0.953125 5.65625 -1.21875 6.09375 -1.75 C 6.53125 -2.289062 6.75 -3.0625 6.75 -4.0625 C 6.75 -5.019531 6.535156 -5.773438 6.109375 -6.328125 C 5.679688 -6.890625 5.09375 -7.171875 4.34375 -7.171875 C 3.625 -7.171875 3.046875 -6.894531 2.609375 -6.34375 C 2.171875 -5.800781 1.953125 -5.039062 1.953125 -4.0625 Z M 1.953125 -4.0625 "/></g></g></g><g fill="#000000" fill-opacity="1"><g transform="translate(95.654908, 117.637655)"><g><path d="M 9.34375 -9.890625 L 2.71875 -9.890625 L 2.71875 -6.453125 L 8.921875 -6.453125 L 8.921875 -5.140625 L 2.71875 -5.140625 L 2.71875 -1.3125 L 9.59375 -1.3125 L 9.59375 0 L 1.234375 0 L 1.234375 -11.203125 L 9.34375 -11.203125 Z M 9.34375 -9.890625 "/></g></g></g><g fill="#000000" fill-opacity="1"><g transform="translate(106.092485, 117.637655)"><g><path d="M 4.03125 -8.296875 C 4.5 -8.296875 4.960938 -8.148438 5.421875 -7.859375 L 4.953125 -6.59375 C 4.617188 -6.789062 4.265625 -6.890625 3.890625 -6.890625 C 3.367188 -6.890625 2.984375 -6.648438 2.734375 -6.171875 C 2.492188 -5.703125 2.375 -5.09375 2.375 -4.34375 L 2.375 0 L 1 0 L 1 -8.109375 L 2.234375 -8.109375 L 2.234375 -6.890625 C 2.492188 -7.359375 2.75 -7.707031 3 -7.9375 C 3.257812 -8.175781 3.601562 -8.296875 4.03125 -8.296875 Z M 4.03125 -8.296875 "/></g></g></g><g fill="#000000" fill-opacity="1"><g transform="translate(111.303451, 117.637655)"><g><path d="M 4.03125 -8.296875 C 4.5 -8.296875 4.960938 -8.148438 5.421875 -7.859375 L 4.953125 -6.59375 C 4.617188 -6.789062 4.265625 -6.890625 3.890625 -6.890625 C 3.367188 -6.890625 2.984375 -6.648438 2.734375 -6.171875 C 2.492188 -5.703125 2.375 -5.09375 2.375 -4.34375 L 2.375 0 L 1 0 L 1 -8.109375 L 2.234375 -8.109375 L 2.234375 -6.890625 C 2.492188 -7.359375 2.75 -7.707031 3 -7.9375 C 3.257812 -8.175781 3.601562 -8.296875 4.03125 -8.296875 Z M 4.03125 -8.296875 "/></g></g></g><g fill="#000000" fill-opacity="1"><g transform="translate(116.514417, 117.637655)"><g><path d="M 4.359375 -8.296875 C 4.972656 -8.296875 5.566406 -8.160156 6.140625 -7.890625 C 6.722656 -7.617188 7.203125 -7.164062 7.578125 -6.53125 C 7.960938 -5.90625 8.15625 -5.082031 8.15625 -4.0625 C 8.15625 -3.144531 7.992188 -2.367188 7.671875 -1.734375 C 7.347656 -1.109375 6.898438 -0.632812 6.328125 -0.3125 C 5.753906 0.0078125 5.097656 0.171875 4.359375 0.171875 C 3.265625 0.171875 2.375 -0.164062 1.6875 -0.84375 C 0.925781 -1.582031 0.546875 -2.65625 0.546875 -4.0625 C 0.546875 -4.96875 0.707031 -5.738281 1.03125 -6.375 C 1.351562 -7.007812 1.800781 -7.488281 2.375 -7.8125 C 2.945312 -8.132812 3.609375 -8.296875 4.359375 -8.296875 Z M 1.953125 -4.0625 C 1.953125 -3.070312 2.164062 -2.304688 2.59375 -1.765625 C 3.03125 -1.222656 3.617188 -0.953125 4.359375 -0.953125 C 5.078125 -0.953125 5.65625 -1.21875 6.09375 -1.75 C 6.53125 -2.289062 6.75 -3.0625 6.75 -4.0625 C 6.75 -5.019531 6.535156 -5.773438 6.109375 -6.328125 C 5.679688 -6.890625 5.09375 -7.171875 4.34375 -7.171875 C 3.625 -7.171875 3.046875 -6.894531 2.609375 -6.34375 C 2.171875 -5.800781 1.953125 -5.039062 1.953125 -4.0625 Z M 1.953125 -4.0625 "/></g></g></g><g fill="#000000" fill-opacity="1"><g transform="translate(125.215007, 117.637655)"><g/></g></g><g fill="#000000" fill-opacity="1"><g transform="translate(129.565303, 117.637655)"><g><path d="M 4.890625 -8.296875 C 5.472656 -8.296875 5.972656 -8.179688 6.390625 -7.953125 C 6.816406 -7.722656 7.128906 -7.429688 7.328125 -7.078125 C 7.453125 -6.835938 7.539062 -6.578125 7.59375 -6.296875 C 7.644531 -6.023438 7.671875 -5.679688 7.671875 -5.265625 L 7.671875 0 L 6.296875 0 L 6.296875 -5.015625 C 6.296875 -6.410156 5.726562 -7.109375 4.59375 -7.109375 C 4.164062 -7.109375 3.769531 -7.003906 3.40625 -6.796875 C 3.039062 -6.585938 2.78125 -6.285156 2.625 -5.890625 C 2.5 -5.554688 2.4375 -5.109375 2.4375 -4.546875 L 2.4375 0 L 1.0625 0 L 1.0625 -8.109375 L 2.296875 -8.109375 L 2.296875 -6.96875 C 2.910156 -7.851562 3.773438 -8.296875 4.890625 -8.296875 Z M 4.890625 -8.296875 "/></g></g></g><g fill="#000000" fill-opacity="1"><g transform="translate(138.265893, 117.637655)"><g><path d="M 4.453125 -8.296875 C 5.117188 -8.296875 5.65625 -8.226562 6.0625 -8.09375 C 6.476562 -7.96875 6.804688 -7.78125 7.046875 -7.53125 C 7.273438 -7.289062 7.429688 -7.023438 7.515625 -6.734375 C 7.597656 -6.441406 7.640625 -6.054688 7.640625 -5.578125 L 7.640625 -2.296875 C 7.640625 -1.242188 7.785156 -0.476562 8.078125 0 L 6.640625 0 C 6.503906 -0.28125 6.410156 -0.613281 6.359375 -1 C 5.859375 -0.582031 5.367188 -0.28125 4.890625 -0.09375 C 4.421875 0.09375 3.925781 0.1875 3.40625 0.1875 C 2.53125 0.1875 1.84375 -0.0234375 1.34375 -0.453125 C 0.84375 -0.878906 0.59375 -1.441406 0.59375 -2.140625 C 0.59375 -2.503906 0.675781 -2.851562 0.84375 -3.1875 C 1.007812 -3.53125 1.238281 -3.800781 1.53125 -4 C 1.84375 -4.207031 2.160156 -4.359375 2.484375 -4.453125 C 2.804688 -4.546875 3.203125 -4.617188 3.671875 -4.671875 C 4.179688 -4.722656 4.679688 -4.789062 5.171875 -4.875 C 5.671875 -4.96875 6.035156 -5.0625 6.265625 -5.15625 L 6.265625 -5.5 C 6.265625 -6.050781 6.113281 -6.46875 5.8125 -6.75 C 5.519531 -7.03125 5.015625 -7.171875 4.296875 -7.171875 C 3.609375 -7.171875 3.113281 -7.050781 2.8125 -6.8125 C 2.519531 -6.570312 2.304688 -6.175781 2.171875 -5.625 L 0.828125 -5.796875 C 1.015625 -6.671875 1.40625 -7.304688 2 -7.703125 C 2.601562 -8.097656 3.421875 -8.296875 4.453125 -8.296875 Z M 4.296875 -3.59375 C 3.753906 -3.507812 3.335938 -3.425781 3.046875 -3.34375 C 2.765625 -3.269531 2.53125 -3.140625 2.34375 -2.953125 C 2.15625 -2.773438 2.0625 -2.515625 2.0625 -2.171875 C 2.0625 -1.765625 2.207031 -1.445312 2.5 -1.21875 C 2.800781 -1 3.222656 -0.890625 3.765625 -0.890625 C 4.085938 -0.890625 4.429688 -0.953125 4.796875 -1.078125 C 5.160156 -1.210938 5.476562 -1.441406 5.75 -1.765625 C 5.925781 -1.972656 6.054688 -2.207031 6.140625 -2.46875 C 6.222656 -2.726562 6.265625 -3.0625 6.265625 -3.46875 L 6.265625 -4.078125 C 5.847656 -3.898438 5.191406 -3.738281 4.296875 -3.59375 Z M 4.296875 -3.59375 "/></g></g></g><g fill="#000000" fill-opacity="1"><g transform="translate(146.966484, 117.637655)"><g/></g></g><g fill="#000000" fill-opacity="1"><g transform="translate(151.316779, 117.637655)"><g><path d="M 4.03125 -8.296875 C 4.5 -8.296875 4.960938 -8.148438 5.421875 -7.859375 L 4.953125 -6.59375 C 4.617188 -6.789062 4.265625 -6.890625 3.890625 -6.890625 C 3.367188 -6.890625 2.984375 -6.648438 2.734375 -6.171875 C 2.492188 -5.703125 2.375 -5.09375 2.375 -4.34375 L 2.375 0 L 1 0 L 1 -8.109375 L 2.234375 -8.109375 L 2.234375 -6.890625 C 2.492188 -7.359375 2.75 -7.707031 3 -7.9375 C 3.257812 -8.175781 3.601562 -8.296875 4.03125 -8.296875 Z M 4.03125 -8.296875 "/></g></g></g><g fill="#000000" fill-opacity="1"><g transform="translate(156.527745, 117.637655)"><g><path d="M 4.40625 -8.296875 C 5.1875 -8.296875 5.851562 -8.109375 6.40625 -7.734375 C 6.96875 -7.367188 7.390625 -6.875 7.671875 -6.25 C 7.953125 -5.625 8.09375 -4.925781 8.09375 -4.15625 L 8.09375 -3.703125 L 2.03125 -3.703125 C 2.070312 -2.835938 2.316406 -2.160156 2.765625 -1.671875 C 3.210938 -1.191406 3.789062 -0.953125 4.5 -0.953125 C 5.03125 -0.953125 5.46875 -1.09375 5.8125 -1.375 C 6.164062 -1.65625 6.4375 -2.066406 6.625 -2.609375 L 8.046875 -2.4375 C 7.828125 -1.625 7.410156 -0.984375 6.796875 -0.515625 C 6.191406 -0.0546875 5.445312 0.171875 4.5625 0.171875 C 3.3125 0.171875 2.335938 -0.191406 1.640625 -0.921875 C 0.953125 -1.648438 0.609375 -2.675781 0.609375 -4 C 0.609375 -4.875 0.765625 -5.632812 1.078125 -6.28125 C 1.390625 -6.925781 1.828125 -7.421875 2.390625 -7.765625 C 2.960938 -8.117188 3.632812 -8.296875 4.40625 -8.296875 Z M 2.109375 -4.859375 L 6.640625 -4.859375 C 6.609375 -5.628906 6.367188 -6.207031 5.921875 -6.59375 C 5.484375 -6.976562 4.976562 -7.171875 4.40625 -7.171875 C 3.75 -7.171875 3.210938 -6.953125 2.796875 -6.515625 C 2.390625 -6.078125 2.160156 -5.523438 2.109375 -4.859375 Z M 2.109375 -4.859375 "/></g></g></g><g fill="#000000" fill-opacity="1"><g transform="translate(165.228336, 117.637655)"><g><path d="M 3.71875 -8.296875 C 4.644531 -8.296875 5.390625 -8.101562 5.953125 -7.71875 C 6.515625 -7.34375 6.835938 -6.78125 6.921875 -6.03125 L 5.578125 -5.84375 C 5.515625 -6.25 5.34375 -6.570312 5.0625 -6.8125 C 4.78125 -7.050781 4.359375 -7.171875 3.796875 -7.171875 C 3.242188 -7.171875 2.8125 -7.078125 2.5 -6.890625 C 2.195312 -6.703125 2.046875 -6.441406 2.046875 -6.109375 C 2.046875 -5.878906 2.132812 -5.6875 2.3125 -5.53125 C 2.5 -5.382812 2.71875 -5.269531 2.96875 -5.1875 C 3.21875 -5.113281 3.601562 -5.015625 4.125 -4.890625 C 4.78125 -4.734375 5.3125 -4.578125 5.71875 -4.421875 C 6.132812 -4.265625 6.488281 -4.019531 6.78125 -3.6875 C 7.082031 -3.363281 7.234375 -2.929688 7.234375 -2.390625 C 7.234375 -1.921875 7.101562 -1.488281 6.84375 -1.09375 C 6.582031 -0.707031 6.207031 -0.398438 5.71875 -0.171875 C 5.238281 0.0546875 4.6875 0.171875 4.0625 0.171875 C 2.96875 0.171875 2.132812 -0.0390625 1.5625 -0.46875 C 0.988281 -0.894531 0.628906 -1.546875 0.484375 -2.421875 L 1.84375 -2.625 C 1.914062 -2.070312 2.132812 -1.65625 2.5 -1.375 C 2.875 -1.09375 3.359375 -0.953125 3.953125 -0.953125 C 4.546875 -0.953125 5.003906 -1.070312 5.328125 -1.3125 C 5.660156 -1.5625 5.828125 -1.867188 5.828125 -2.234375 C 5.828125 -2.578125 5.660156 -2.832031 5.328125 -3 C 5.003906 -3.164062 4.5 -3.328125 3.8125 -3.484375 C 3.144531 -3.640625 2.609375 -3.796875 2.203125 -3.953125 C 1.804688 -4.109375 1.457031 -4.347656 1.15625 -4.671875 C 0.863281 -4.992188 0.71875 -5.425781 0.71875 -5.96875 C 0.71875 -6.40625 0.832031 -6.800781 1.0625 -7.15625 C 1.300781 -7.507812 1.644531 -7.785156 2.09375 -7.984375 C 2.550781 -8.191406 3.09375 -8.296875 3.71875 -8.296875 Z M 3.71875 -8.296875 "/></g></g></g><g fill="#000000" fill-opacity="1"><g transform="translate(173.052611, 117.637655)"><g><path d="M 4.65625 -8.296875 C 5.34375 -8.296875 5.945312 -8.125 6.46875 -7.78125 C 6.988281 -7.4375 7.390625 -6.953125 7.671875 -6.328125 C 7.960938 -5.710938 8.109375 -5 8.109375 -4.1875 C 8.109375 -3.289062 7.953125 -2.515625 7.640625 -1.859375 C 7.328125 -1.203125 6.898438 -0.695312 6.359375 -0.34375 C 5.828125 0 5.234375 0.171875 4.578125 0.171875 C 4.148438 0.171875 3.75 0.0820312 3.375 -0.09375 C 3.007812 -0.28125 2.695312 -0.53125 2.4375 -0.84375 L 2.4375 3.109375 L 1.0625 3.109375 L 1.0625 -8.109375 L 2.3125 -8.109375 L 2.3125 -7.0625 C 2.613281 -7.476562 2.941406 -7.785156 3.296875 -7.984375 C 3.660156 -8.191406 4.113281 -8.296875 4.65625 -8.296875 Z M 2.296875 -4.015625 C 2.296875 -3.023438 2.492188 -2.265625 2.890625 -1.734375 C 3.285156 -1.210938 3.816406 -0.953125 4.484375 -0.953125 C 5.128906 -0.953125 5.660156 -1.222656 6.078125 -1.765625 C 6.492188 -2.304688 6.703125 -3.09375 6.703125 -4.125 C 6.703125 -5.082031 6.503906 -5.835938 6.109375 -6.390625 C 5.710938 -6.941406 5.1875 -7.21875 4.53125 -7.21875 C 4.09375 -7.21875 3.707031 -7.082031 3.375 -6.8125 C 3.039062 -6.550781 2.773438 -6.175781 2.578125 -5.6875 C 2.390625 -5.195312 2.296875 -4.640625 2.296875 -4.015625 Z M 2.296875 -4.015625 "/></g></g></g><g fill="#000000" fill-opacity="1"><g transform="translate(181.753202, 117.637655)"><g><path d="M 4.359375 -8.296875 C 4.972656 -8.296875 5.566406 -8.160156 6.140625 -7.890625 C 6.722656 -7.617188 7.203125 -7.164062 7.578125 -6.53125 C 7.960938 -5.90625 8.15625 -5.082031 8.15625 -4.0625 C 8.15625 -3.144531 7.992188 -2.367188 7.671875 -1.734375 C 7.347656 -1.109375 6.898438 -0.632812 6.328125 -0.3125 C 5.753906 0.0078125 5.097656 0.171875 4.359375 0.171875 C 3.265625 0.171875 2.375 -0.164062 1.6875 -0.84375 C 0.925781 -1.582031 0.546875 -2.65625 0.546875 -4.0625 C 0.546875 -4.96875 0.707031 -5.738281 1.03125 -6.375 C 1.351562 -7.007812 1.800781 -7.488281 2.375 -7.8125 C 2.945312 -8.132812 3.609375 -8.296875 4.359375 -8.296875 Z M 1.953125 -4.0625 C 1.953125 -3.070312 2.164062 -2.304688 2.59375 -1.765625 C 3.03125 -1.222656 3.617188 -0.953125 4.359375 -0.953125 C 5.078125 -0.953125 5.65625 -1.21875 6.09375 -1.75 C 6.53125 -2.289062 6.75 -3.0625 6.75 -4.0625 C 6.75 -5.019531 6.535156 -5.773438 6.109375 -6.328125 C 5.679688 -6.890625 5.09375 -7.171875 4.34375 -7.171875 C 3.625 -7.171875 3.046875 -6.894531 2.609375 -6.34375 C 2.171875 -5.800781 1.953125 -5.039062 1.953125 -4.0625 Z M 1.953125 -4.0625 "/></g></g></g><g fill="#000000" fill-opacity="1"><g transform="translate(190.453793, 117.637655)"><g><path d="M 3.71875 -8.296875 C 4.644531 -8.296875 5.390625 -8.101562 5.953125 -7.71875 C 6.515625 -7.34375 6.835938 -6.78125 6.921875 -6.03125 L 5.578125 -5.84375 C 5.515625 -6.25 5.34375 -6.570312 5.0625 -6.8125 C 4.78125 -7.050781 4.359375 -7.171875 3.796875 -7.171875 C 3.242188 -7.171875 2.8125 -7.078125 2.5 -6.890625 C 2.195312 -6.703125 2.046875 -6.441406 2.046875 -6.109375 C 2.046875 -5.878906 2.132812 -5.6875 2.3125 -5.53125 C 2.5 -5.382812 2.71875 -5.269531 2.96875 -5.1875 C 3.21875 -5.113281 3.601562 -5.015625 4.125 -4.890625 C 4.78125 -4.734375 5.3125 -4.578125 5.71875 -4.421875 C 6.132812 -4.265625 6.488281 -4.019531 6.78125 -3.6875 C 7.082031 -3.363281 7.234375 -2.929688 7.234375 -2.390625 C 7.234375 -1.921875 7.101562 -1.488281 6.84375 -1.09375 C 6.582031 -0.707031 6.207031 -0.398438 5.71875 -0.171875 C 5.238281 0.0546875 4.6875 0.171875 4.0625 0.171875 C 2.96875 0.171875 2.132812 -0.0390625 1.5625 -0.46875 C 0.988281 -0.894531 0.628906 -1.546875 0.484375 -2.421875 L 1.84375 -2.625 C 1.914062 -2.070312 2.132812 -1.65625 2.5 -1.375 C 2.875 -1.09375 3.359375 -0.953125 3.953125 -0.953125 C 4.546875 -0.953125 5.003906 -1.070312 5.328125 -1.3125 C 5.660156 -1.5625 5.828125 -1.867188 5.828125 -2.234375 C 5.828125 -2.578125 5.660156 -2.832031 5.328125 -3 C 5.003906 -3.164062 4.5 -3.328125 3.8125 -3.484375 C 3.144531 -3.640625 2.609375 -3.796875 2.203125 -3.953125 C 1.804688 -4.109375 1.457031 -4.347656 1.15625 -4.671875 C 0.863281 -4.992188 0.71875 -5.425781 0.71875 -5.96875 C 0.71875 -6.40625 0.832031 -6.800781 1.0625 -7.15625 C 1.300781 -7.507812 1.644531 -7.785156 2.09375 -7.984375 C 2.550781 -8.191406 3.09375 -8.296875 3.71875 -8.296875 Z M 3.71875 -8.296875 "/></g></g></g><g fill="#000000" fill-opacity="1"><g transform="translate(198.278059, 117.637655)"><g><path d="M 2.640625 -8.109375 L 4.03125 -8.109375 L 4.03125 -7.078125 L 2.640625 -7.078125 L 2.640625 -2.046875 C 2.640625 -1.691406 2.6875 -1.441406 2.78125 -1.296875 C 2.882812 -1.148438 3.09375 -1.078125 3.40625 -1.078125 C 3.476562 -1.078125 3.6875 -1.101562 4.03125 -1.15625 L 4.234375 0.0625 C 3.804688 0.144531 3.460938 0.1875 3.203125 0.1875 C 2.671875 0.1875 2.265625 0.101562 1.984375 -0.0625 C 1.703125 -0.238281 1.507812 -0.476562 1.40625 -0.78125 C 1.3125 -1.09375 1.265625 -1.492188 1.265625 -1.984375 L 1.265625 -7.078125 L 0.265625 -7.078125 L 0.265625 -8.109375 L 1.265625 -8.109375 L 1.265625 -10.125 L 2.640625 -10.953125 Z M 2.640625 -8.109375 "/></g></g></g><g fill="#000000" fill-opacity="1"><g transform="translate(202.628355, 117.637655)"><g><path d="M 4.453125 -8.296875 C 5.117188 -8.296875 5.65625 -8.226562 6.0625 -8.09375 C 6.476562 -7.96875 6.804688 -7.78125 7.046875 -7.53125 C 7.273438 -7.289062 7.429688 -7.023438 7.515625 -6.734375 C 7.597656 -6.441406 7.640625 -6.054688 7.640625 -5.578125 L 7.640625 -2.296875 C 7.640625 -1.242188 7.785156 -0.476562 8.078125 0 L 6.640625 0 C 6.503906 -0.28125 6.410156 -0.613281 6.359375 -1 C 5.859375 -0.582031 5.367188 -0.28125 4.890625 -0.09375 C 4.421875 0.09375 3.925781 0.1875 3.40625 0.1875 C 2.53125 0.1875 1.84375 -0.0234375 1.34375 -0.453125 C 0.84375 -0.878906 0.59375 -1.441406 0.59375 -2.140625 C 0.59375 -2.503906 0.675781 -2.851562 0.84375 -3.1875 C 1.007812 -3.53125 1.238281 -3.800781 1.53125 -4 C 1.84375 -4.207031 2.160156 -4.359375 2.484375 -4.453125 C 2.804688 -4.546875 3.203125 -4.617188 3.671875 -4.671875 C 4.179688 -4.722656 4.679688 -4.789062 5.171875 -4.875 C 5.671875 -4.96875 6.035156 -5.0625 6.265625 -5.15625 L 6.265625 -5.5 C 6.265625 -6.050781 6.113281 -6.46875 5.8125 -6.75 C 5.519531 -7.03125 5.015625 -7.171875 4.296875 -7.171875 C 3.609375 -7.171875 3.113281 -7.050781 2.8125 -6.8125 C 2.519531 -6.570312 2.304688 -6.175781 2.171875 -5.625 L 0.828125 -5.796875 C 1.015625 -6.671875 1.40625 -7.304688 2 -7.703125 C 2.601562 -8.097656 3.421875 -8.296875 4.453125 -8.296875 Z M 4.296875 -3.59375 C 3.753906 -3.507812 3.335938 -3.425781 3.046875 -3.34375 C 2.765625 -3.269531 2.53125 -3.140625 2.34375 -2.953125 C 2.15625 -2.773438 2.0625 -2.515625 2.0625 -2.171875 C 2.0625 -1.765625 2.207031 -1.445312 2.5 -1.21875 C 2.800781 -1 3.222656 -0.890625 3.765625 -0.890625 C 4.085938 -0.890625 4.429688 -0.953125 4.796875 -1.078125 C 5.160156 -1.210938 5.476562 -1.441406 5.75 -1.765625 C 5.925781 -1.972656 6.054688 -2.207031 6.140625 -2.46875 C 6.222656 -2.726562 6.265625 -3.0625 6.265625 -3.46875 L 6.265625 -4.078125 C 5.847656 -3.898438 5.191406 -3.738281 4.296875 -3.59375 Z M 4.296875 -3.59375 "/></g></g></g><g fill="#000000" fill-opacity="1"><g transform="translate(211.328945, 117.637655)"><g><path d="M 3.03125 -8.71875 L 2.640625 -2.78125 L 1.75 -2.78125 L 1.328125 -8.71875 L 1.328125 -11.203125 L 3.03125 -11.203125 Z M 2.96875 0 L 1.40625 0 L 1.40625 -1.5625 L 2.96875 -1.5625 Z M 2.96875 0 "/></g></g></g><g fill="#000000" fill-opacity="1"><g transform="translate(215.679241, 117.637655)"><g/></g></g><g fill="#000000" fill-opacity="1"><g transform="translate(220.029536, 117.637655)"><g><path d="M 9.234375 -9.890625 L 5.53125 -9.890625 L 5.53125 0 L 4.046875 0 L 4.046875 -9.890625 L 0.34375 -9.890625 L 0.34375 -11.203125 L 9.234375 -11.203125 Z M 9.234375 -9.890625 "/></g></g></g><g fill="#000000" fill-opacity="1"><g transform="translate(229.590797, 117.637655)"><g><path d="M 4.40625 -8.296875 C 5.1875 -8.296875 5.851562 -8.109375 6.40625 -7.734375 C 6.96875 -7.367188 7.390625 -6.875 7.671875 -6.25 C 7.953125 -5.625 8.09375 -4.925781 8.09375 -4.15625 L 8.09375 -3.703125 L 2.03125 -3.703125 C 2.070312 -2.835938 2.316406 -2.160156 2.765625 -1.671875 C 3.210938 -1.191406 3.789062 -0.953125 4.5 -0.953125 C 5.03125 -0.953125 5.46875 -1.09375 5.8125 -1.375 C 6.164062 -1.65625 6.4375 -2.066406 6.625 -2.609375 L 8.046875 -2.4375 C 7.828125 -1.625 7.410156 -0.984375 6.796875 -0.515625 C 6.191406 -0.0546875 5.445312 0.171875 4.5625 0.171875 C 3.3125 0.171875 2.335938 -0.191406 1.640625 -0.921875 C 0.953125 -1.648438 0.609375 -2.675781 0.609375 -4 C 0.609375 -4.875 0.765625 -5.632812 1.078125 -6.28125 C 1.390625 -6.925781 1.828125 -7.421875 2.390625 -7.765625 C 2.960938 -8.117188 3.632812 -8.296875 4.40625 -8.296875 Z M 2.109375 -4.859375 L 6.640625 -4.859375 C 6.609375 -5.628906 6.367188 -6.207031 5.921875 -6.59375 C 5.484375 -6.976562 4.976562 -7.171875 4.40625 -7.171875 C 3.75 -7.171875 3.210938 -6.953125 2.796875 -6.515625 C 2.390625 -6.078125 2.160156 -5.523438 2.109375 -4.859375 Z M 2.109375 -4.859375 "/></g></g></g><g fill="#000000" fill-opacity="1"><g transform="translate(238.291388, 117.637655)"><g><path d="M 4.890625 -8.296875 C 5.472656 -8.296875 5.972656 -8.179688 6.390625 -7.953125 C 6.816406 -7.722656 7.128906 -7.429688 7.328125 -7.078125 C 7.453125 -6.835938 7.539062 -6.578125 7.59375 -6.296875 C 7.644531 -6.023438 7.671875 -5.679688 7.671875 -5.265625 L 7.671875 0 L 6.296875 0 L 6.296875 -5.015625 C 6.296875 -6.410156 5.726562 -7.109375 4.59375 -7.109375 C 4.164062 -7.109375 3.769531 -7.003906 3.40625 -6.796875 C 3.039062 -6.585938 2.78125 -6.285156 2.625 -5.890625 C 2.5 -5.554688 2.4375 -5.109375 2.4375 -4.546875 L 2.4375 0 L 1.0625 0 L 1.0625 -8.109375 L 2.296875 -8.109375 L 2.296875 -6.96875 C 2.910156 -7.851562 3.773438 -8.296875 4.890625 -8.296875 Z M 4.890625 -8.296875 "/></g></g></g><g fill="#000000" fill-opacity="1"><g transform="translate(246.991978, 117.637655)"><g><path d="M 2.640625 -8.109375 L 4.03125 -8.109375 L 4.03125 -7.078125 L 2.640625 -7.078125 L 2.640625 -2.046875 C 2.640625 -1.691406 2.6875 -1.441406 2.78125 -1.296875 C 2.882812 -1.148438 3.09375 -1.078125 3.40625 -1.078125 C 3.476562 -1.078125 3.6875 -1.101562 4.03125 -1.15625 L 4.234375 0.0625 C 3.804688 0.144531 3.460938 0.1875 3.203125 0.1875 C 2.671875 0.1875 2.265625 0.101562 1.984375 -0.0625 C 1.703125 -0.238281 1.507812 -0.476562 1.40625 -0.78125 C 1.3125 -1.09375 1.265625 -1.492188 1.265625 -1.984375 L 1.265625 -7.078125 L 0.265625 -7.078125 L 0.265625 -8.109375 L 1.265625 -8.109375 L 1.265625 -10.125 L 2.640625 -10.953125 Z M 2.640625 -8.109375 "/></g></g></g><g fill="#000000" fill-opacity="1"><g transform="translate(251.342274, 117.637655)"><g><path d="M 4.40625 -8.296875 C 5.1875 -8.296875 5.851562 -8.109375 6.40625 -7.734375 C 6.96875 -7.367188 7.390625 -6.875 7.671875 -6.25 C 7.953125 -5.625 8.09375 -4.925781 8.09375 -4.15625 L 8.09375 -3.703125 L 2.03125 -3.703125 C 2.070312 -2.835938 2.316406 -2.160156 2.765625 -1.671875 C 3.210938 -1.191406 3.789062 -0.953125 4.5 -0.953125 C 5.03125 -0.953125 5.46875 -1.09375 5.8125 -1.375 C 6.164062 -1.65625 6.4375 -2.066406 6.625 -2.609375 L 8.046875 -2.4375 C 7.828125 -1.625 7.410156 -0.984375 6.796875 -0.515625 C 6.191406 -0.0546875 5.445312 0.171875 4.5625 0.171875 C 3.3125 0.171875 2.335938 -0.191406 1.640625 -0.921875 C 0.953125 -1.648438 0.609375 -2.675781 0.609375 -4 C 0.609375 -4.875 0.765625 -5.632812 1.078125 -6.28125 C 1.390625 -6.925781 1.828125 -7.421875 2.390625 -7.765625 C 2.960938 -8.117188 3.632812 -8.296875 4.40625 -8.296875 Z M 2.109375 -4.859375 L 6.640625 -4.859375 C 6.609375 -5.628906 6.367188 -6.207031 5.921875 -6.59375 C 5.484375 -6.976562 4.976562 -7.171875 4.40625 -7.171875 C 3.75 -7.171875 3.210938 -6.953125 2.796875 -6.515625 C 2.390625 -6.078125 2.160156 -5.523438 2.109375 -4.859375 Z M 2.109375 -4.859375 "/></g></g></g><g fill="#000000" fill-opacity="1"><g transform="translate(260.042864, 117.637655)"><g/></g></g><g fill="#000000" fill-opacity="1"><g transform="translate(264.39316, 117.637655)"><g><path d="M 8.640625 -2.40625 L 8.640625 -11.203125 L 10.0625 -11.203125 L 10.0625 0 L 8.546875 0 L 2.65625 -8.796875 L 2.65625 0 L 1.234375 0 L 1.234375 -11.203125 L 2.75 -11.203125 Z M 8.640625 -2.40625 "/></g></g></g><g fill="#000000" fill-opacity="1"><g transform="translate(275.691398, 117.637655)"><g><path d="M 4.359375 -8.296875 C 4.972656 -8.296875 5.566406 -8.160156 6.140625 -7.890625 C 6.722656 -7.617188 7.203125 -7.164062 7.578125 -6.53125 C 7.960938 -5.90625 8.15625 -5.082031 8.15625 -4.0625 C 8.15625 -3.144531 7.992188 -2.367188 7.671875 -1.734375 C 7.347656 -1.109375 6.898438 -0.632812 6.328125 -0.3125 C 5.753906 0.0078125 5.097656 0.171875 4.359375 0.171875 C 3.265625 0.171875 2.375 -0.164062 1.6875 -0.84375 C 0.925781 -1.582031 0.546875 -2.65625 0.546875 -4.0625 C 0.546875 -4.96875 0.707031 -5.738281 1.03125 -6.375 C 1.351562 -7.007812 1.800781 -7.488281 2.375 -7.8125 C 2.945312 -8.132812 3.609375 -8.296875 4.359375 -8.296875 Z M 1.953125 -4.0625 C 1.953125 -3.070312 2.164062 -2.304688 2.59375 -1.765625 C 3.03125 -1.222656 3.617188 -0.953125 4.359375 -0.953125 C 5.078125 -0.953125 5.65625 -1.21875 6.09375 -1.75 C 6.53125 -2.289062 6.75 -3.0625 6.75 -4.0625 C 6.75 -5.019531 6.535156 -5.773438 6.109375 -6.328125 C 5.679688 -6.890625 5.09375 -7.171875 4.34375 -7.171875 C 3.625 -7.171875 3.046875 -6.894531 2.609375 -6.34375 C 2.171875 -5.800781 1.953125 -5.039062 1.953125 -4.0625 Z M 1.953125 -4.0625 "/></g></g></g><g fill="#000000" fill-opacity="1"><g transform="translate(284.391988, 117.637655)"><g><path d="M 3.3125 -3.46875 C 3.40625 -3.21875 3.539062 -2.800781 3.71875 -2.21875 L 3.9375 -1.609375 C 4.164062 -2.378906 4.332031 -2.890625 4.4375 -3.140625 L 6.234375 -8.109375 L 7.65625 -8.109375 L 4.59375 0 L 3.28125 0 L 0.203125 -8.109375 L 1.65625 -8.109375 Z M 3.3125 -3.46875 "/></g></g></g><g fill="#000000" fill-opacity="1"><g transform="translate(292.216255, 117.637655)"><g><path d="M 4.453125 -8.296875 C 5.117188 -8.296875 5.65625 -8.226562 6.0625 -8.09375 C 6.476562 -7.96875 6.804688 -7.78125 7.046875 -7.53125 C 7.273438 -7.289062 7.429688 -7.023438 7.515625 -6.734375 C 7.597656 -6.441406 7.640625 -6.054688 7.640625 -5.578125 L 7.640625 -2.296875 C 7.640625 -1.242188 7.785156 -0.476562 8.078125 0 L 6.640625 0 C 6.503906 -0.28125 6.410156 -0.613281 6.359375 -1 C 5.859375 -0.582031 5.367188 -0.28125 4.890625 -0.09375 C 4.421875 0.09375 3.925781 0.1875 3.40625 0.1875 C 2.53125 0.1875 1.84375 -0.0234375 1.34375 -0.453125 C 0.84375 -0.878906 0.59375 -1.441406 0.59375 -2.140625 C 0.59375 -2.503906 0.675781 -2.851562 0.84375 -3.1875 C 1.007812 -3.53125 1.238281 -3.800781 1.53125 -4 C 1.84375 -4.207031 2.160156 -4.359375 2.484375 -4.453125 C 2.804688 -4.546875 3.203125 -4.617188 3.671875 -4.671875 C 4.179688 -4.722656 4.679688 -4.789062 5.171875 -4.875 C 5.671875 -4.96875 6.035156 -5.0625 6.265625 -5.15625 L 6.265625 -5.5 C 6.265625 -6.050781 6.113281 -6.46875 5.8125 -6.75 C 5.519531 -7.03125 5.015625 -7.171875 4.296875 -7.171875 C 3.609375 -7.171875 3.113281 -7.050781 2.8125 -6.8125 C 2.519531 -6.570312 2.304688 -6.175781 2.171875 -5.625 L 0.828125 -5.796875 C 1.015625 -6.671875 1.40625 -7.304688 2 -7.703125 C 2.601562 -8.097656 3.421875 -8.296875 4.453125 -8.296875 Z M 4.296875 -3.59375 C 3.753906 -3.507812 3.335938 -3.425781 3.046875 -3.34375 C 2.765625 -3.269531 2.53125 -3.140625 2.34375 -2.953125 C 2.15625 -2.773438 2.0625 -2.515625 2.0625 -2.171875 C 2.0625 -1.765625 2.207031 -1.445312 2.5 -1.21875 C 2.800781 -1 3.222656 -0.890625 3.765625 -0.890625 C 4.085938 -0.890625 4.429688 -0.953125 4.796875 -1.078125 C 5.160156 -1.210938 5.476562 -1.441406 5.75 -1.765625 C 5.925781 -1.972656 6.054688 -2.207031 6.140625 -2.46875 C 6.222656 -2.726562 6.265625 -3.0625 6.265625 -3.46875 L 6.265625 -4.078125 C 5.847656 -3.898438 5.191406 -3.738281 4.296875 -3.59375 Z M 4.296875 -3.59375 "/></g></g></g><g fill="#000000" fill-opacity="1"><g transform="translate(300.916845, 117.637655)"><g><path d="M 4.734375 -8.296875 C 5.316406 -8.296875 5.796875 -8.171875 6.171875 -7.921875 C 6.554688 -7.679688 6.832031 -7.332031 7 -6.875 C 7.320312 -7.332031 7.675781 -7.679688 8.0625 -7.921875 C 8.457031 -8.171875 8.9375 -8.296875 9.5 -8.296875 C 10.3125 -8.296875 10.9375 -8.0625 11.375 -7.59375 C 11.820312 -7.132812 12.046875 -6.476562 12.046875 -5.625 L 12.046875 0 L 10.65625 0 L 10.65625 -5.21875 C 10.65625 -5.875 10.539062 -6.351562 10.3125 -6.65625 C 10.082031 -6.957031 9.707031 -7.109375 9.1875 -7.109375 C 8.53125 -7.109375 8.035156 -6.882812 7.703125 -6.4375 C 7.378906 -6 7.21875 -5.445312 7.21875 -4.78125 L 7.21875 0 L 5.84375 0 L 5.84375 -5.34375 C 5.84375 -5.9375 5.722656 -6.378906 5.484375 -6.671875 C 5.253906 -6.960938 4.894531 -7.109375 4.40625 -7.109375 C 4 -7.109375 3.617188 -6.992188 3.265625 -6.765625 C 2.921875 -6.546875 2.679688 -6.21875 2.546875 -5.78125 C 2.441406 -5.46875 2.390625 -4.992188 2.390625 -4.359375 L 2.390625 0 L 1.015625 0 L 1.015625 -8.109375 L 2.25 -8.109375 L 2.25 -6.984375 C 2.539062 -7.429688 2.898438 -7.757812 3.328125 -7.96875 C 3.765625 -8.1875 4.234375 -8.296875 4.734375 -8.296875 Z M 4.734375 -8.296875 "/></g></g></g><g fill="#000000" fill-opacity="1"><g transform="translate(313.952078, 117.637655)"><g><path d="M 4.40625 -8.296875 C 5.1875 -8.296875 5.851562 -8.109375 6.40625 -7.734375 C 6.96875 -7.367188 7.390625 -6.875 7.671875 -6.25 C 7.953125 -5.625 8.09375 -4.925781 8.09375 -4.15625 L 8.09375 -3.703125 L 2.03125 -3.703125 C 2.070312 -2.835938 2.316406 -2.160156 2.765625 -1.671875 C 3.210938 -1.191406 3.789062 -0.953125 4.5 -0.953125 C 5.03125 -0.953125 5.46875 -1.09375 5.8125 -1.375 C 6.164062 -1.65625 6.4375 -2.066406 6.625 -2.609375 L 8.046875 -2.4375 C 7.828125 -1.625 7.410156 -0.984375 6.796875 -0.515625 C 6.191406 -0.0546875 5.445312 0.171875 4.5625 0.171875 C 3.3125 0.171875 2.335938 -0.191406 1.640625 -0.921875 C 0.953125 -1.648438 0.609375 -2.675781 0.609375 -4 C 0.609375 -4.875 0.765625 -5.632812 1.078125 -6.28125 C 1.390625 -6.925781 1.828125 -7.421875 2.390625 -7.765625 C 2.960938 -8.117188 3.632812 -8.296875 4.40625 -8.296875 Z M 2.109375 -4.859375 L 6.640625 -4.859375 C 6.609375 -5.628906 6.367188 -6.207031 5.921875 -6.59375 C 5.484375 -6.976562 4.976562 -7.171875 4.40625 -7.171875 C 3.75 -7.171875 3.210938 -6.953125 2.796875 -6.515625 C 2.390625 -6.078125 2.160156 -5.523438 2.109375 -4.859375 Z M 2.109375 -4.859375 "/></g></g></g><g fill="#000000" fill-opacity="1"><g transform="translate(322.652669, 117.637655)"><g><path d="M 4.890625 -8.296875 C 5.472656 -8.296875 5.972656 -8.179688 6.390625 -7.953125 C 6.816406 -7.722656 7.128906 -7.429688 7.328125 -7.078125 C 7.453125 -6.835938 7.539062 -6.578125 7.59375 -6.296875 C 7.644531 -6.023438 7.671875 -5.679688 7.671875 -5.265625 L 7.671875 0 L 6.296875 0 L 6.296875 -5.015625 C 6.296875 -6.410156 5.726562 -7.109375 4.59375 -7.109375 C 4.164062 -7.109375 3.769531 -7.003906 3.40625 -6.796875 C 3.039062 -6.585938 2.78125 -6.285156 2.625 -5.890625 C 2.5 -5.554688 2.4375 -5.109375 2.4375 -4.546875 L 2.4375 0 L 1.0625 0 L 1.0625 -8.109375 L 2.296875 -8.109375 L 2.296875 -6.96875 C 2.910156 -7.851562 3.773438 -8.296875 4.890625 -8.296875 Z M 4.890625 -8.296875 "/></g></g></g><g fill="#000000" fill-opacity="1"><g transform="translate(331.353259, 117.637655)"><g><path d="M 2.640625 -8.109375 L 4.03125 -8.109375 L 4.03125 -7.078125 L 2.640625 -7.078125 L 2.640625 -2.046875 C 2.640625 -1.691406 2.6875 -1.441406 2.78125 -1.296875 C 2.882812 -1.148438 3.09375 -1.078125 3.40625 -1.078125 C 3.476562 -1.078125 3.6875 -1.101562 4.03125 -1.15625 L 4.234375 0.0625 C 3.804688 0.144531 3.460938 0.1875 3.203125 0.1875 C 2.671875 0.1875 2.265625 0.101562 1.984375 -0.0625 C 1.703125 -0.238281 1.507812 -0.476562 1.40625 -0.78125 C 1.3125 -1.09375 1.265625 -1.492188 1.265625 -1.984375 L 1.265625 -7.078125 L 0.265625 -7.078125 L 0.265625 -8.109375 L 1.265625 -8.109375 L 1.265625 -10.125 L 2.640625 -10.953125 Z M 2.640625 -8.109375 "/></g></g></g><g fill="#000000" fill-opacity="1"><g transform="translate(335.703555, 117.637655)"><g><path d="M 4.40625 -8.296875 C 5.1875 -8.296875 5.851562 -8.109375 6.40625 -7.734375 C 6.96875 -7.367188 7.390625 -6.875 7.671875 -6.25 C 7.953125 -5.625 8.09375 -4.925781 8.09375 -4.15625 L 8.09375 -3.703125 L 2.03125 -3.703125 C 2.070312 -2.835938 2.316406 -2.160156 2.765625 -1.671875 C 3.210938 -1.191406 3.789062 -0.953125 4.5 -0.953125 C 5.03125 -0.953125 5.46875 -1.09375 5.8125 -1.375 C 6.164062 -1.65625 6.4375 -2.066406 6.625 -2.609375 L 8.046875 -2.4375 C 7.828125 -1.625 7.410156 -0.984375 6.796875 -0.515625 C 6.191406 -0.0546875 5.445312 0.171875 4.5625 0.171875 C 3.3125 0.171875 2.335938 -0.191406 1.640625 -0.921875 C 0.953125 -1.648438 0.609375 -2.675781 0.609375 -4 C 0.609375 -4.875 0.765625 -5.632812 1.078125 -6.28125 C 1.390625 -6.925781 1.828125 -7.421875 2.390625 -7.765625 C 2.960938 -8.117188 3.632812 -8.296875 4.40625 -8.296875 Z M 2.109375 -4.859375 L 6.640625 -4.859375 C 6.609375 -5.628906 6.367188 -6.207031 5.921875 -6.59375 C 5.484375 -6.976562 4.976562 -7.171875 4.40625 -7.171875 C 3.75 -7.171875 3.210938 -6.953125 2.796875 -6.515625 C 2.390625 -6.078125 2.160156 -5.523438 2.109375 -4.859375 Z M 2.109375 -4.859375 "/></g></g></g></svg>